<svg id="Layer_1" data-name="Layer 1" xmlns="http://www.w3.org/2000/svg" viewBox="0 0 500 500"><defs><style>.cls-1{fill:#666;}</style></defs><title>Artboard 5</title><path class="cls-1" d="M183,169.79c33.72,0,62.92,9.52,62.92,48.71,0,19.83-9.21,32.63-26.86,41.06,24.2,6.87,35.91,25.14,35.91,49.8,0,40-33.56,57.14-69.32,57.14H90.26V169.79Zm-5.62,79.47c15.46,0,26.38-6.72,26.38-23.42,0-18.11-14-22.48-29.66-22.48H133.51v45.9Zm2.34,83.83c17.64,0,32-6.24,32-26.07,0-20.14-12-28.1-31.07-28.1H133.51v54.17Zm193.12-10.77h34.51c-10.62,32.63-32.63,47.93-66.67,47.93-45,0-72.91-30.44-72.91-74.78,0-42.78,29.51-75.41,72.91-75.41,44.65,0,69.32,35.13,69.32,77.28,0,2.5-.16,5-.31,7.34H307c0,22.79,12,36.22,35,36.22C353.8,340.9,369.1,334.5,372.84,322.32ZM299,183.06v19.36h79.78V183.06ZM307,280h63.7c-1.72-18.89-11.56-30.44-31.23-30.44C320.7,249.57,308.21,261.28,307,280Z"/></svg>