<svg id="Layer_1" data-name="Layer 1" xmlns="http://www.w3.org/2000/svg" viewBox="0 0 500 500"><defs><style>.cls-1{fill:#666;}</style></defs><title>Artboard 6</title><path class="cls-1" d="M392.43,327.93C368,377.25,301,382.05,253,382.05c-48.77,0-119.9-4.25-145.2-54.12-9.43-18.66-11.46-40.65-11.46-61.15,0-27,7.39-52.47,25.13-73.16a101.31,101.31,0,0,1-5-31.4A90.13,90.13,0,0,1,125.86,122c29.19,0,47.85,12.74,70,30.11A247.29,247.29,0,0,1,253,145.59a220.77,220.77,0,0,1,51.72,5.92c22-17.19,40.64-29.56,69.46-29.56a90.13,90.13,0,0,1,9.42,40.27,98.14,98.14,0,0,1-5,31c17.74,20.88,25.13,46.56,25.13,73.53C403.7,287.28,401.67,309.08,392.43,327.93ZM315,246.09c-12.2,0-23.83,2.22-36,3.88a189.39,189.39,0,0,1-29,2,189.39,189.39,0,0,1-29-2c-12-1.66-23.83-3.88-36-3.88-30.11,0-47.29,24.94-47.29,53.2,0,56.53,51.73,65.21,96.8,65.21h31c45.07,0,96.8-8.68,96.8-65.21C362.32,271,345.14,246.09,315,246.09ZM190.89,334.76c-16.63,0-23.65-22-23.65-35.47s7-35.47,23.65-35.47,23.64,22,23.64,35.47S207.51,334.76,190.89,334.76Zm118.22,0c-16.62,0-23.64-22-23.64-35.47s7-35.47,23.64-35.47,23.65,22,23.65,35.47S325.74,334.76,309.11,334.76Z"/></svg>