<svg id="Layer_1" data-name="Layer 1" xmlns="http://www.w3.org/2000/svg" viewBox="0 0 479.9 479.78"><defs><style>.banana-yellow{fill:#fce14b;}.banana-yellow-shade{fill:#e5b939;}.cls-1,.cls-3{fill:none;stroke:#4d4d4d;stroke-miterlimit:10;}.cls-1{stroke-width:5px;}.cls-2{fill:#4d4d4d;}.cls-3{stroke-linecap:round;stroke-width:6px;}</style></defs><title>hannabanana_stroke</title><path class="banana-yellow" d="M108,398c-11.39,4.15-29.29,17.27-32,25.89-2.18,6.82-.67,14.05,4.35,20.89,12.26,16.69,30.85,28.14,53.77,33.11,36.34,7.88,76.19,1.48,111.36-4.15,42.72-6.85,83.32-23.06,120.67-48.17,80.31-54,124.5-152.77,110-245.82h0c-3.92-25.1-16-67.26-38.05-84.41l.12.23C439,97.33,426.58,97.89,427,99c9.4,24.68,15.48,32.77,15,54-.74,33-6.67,68.06-17,93-32.79,79.16-98.15,136.94-189.85,155.21C176,413,114.89,399.75,108,398Z" transform="translate(-6.5 -10.6)"/><path class="banana-yellow-shade" d="M78.75,437c45.05,9.75,98.34,16.58,143.8,6.36,100.34-22.56,201.86-84,226.78-190.46,7.11-30.4,4.48-62.25,2.49-93.34C450,131,424.69,91.39,424.69,91.39S430.34,91.18,450,108c7.58,6.49,19.74,31.06,26,54,10,36.55,15.82,86.1-4.85,138.64-33.64,85.52-93.09,146.16-173.67,167.22-52.48,13.72-93,20.36-123.18,19.45-33.9-1-54.64-10.78-64.39-15.45L78.67,437.42" transform="translate(-6.5 -10.6)"/><path class="banana-yellow" d="M77.69,275.74c-1.31,0-2.63,0-3.94,0-6.89.1-17.15.51-26.64,2.76-10.84,2.56-18.63,6.91-23.82,13.31a28,28,0,0,0-6.35,21.62c2,18.48,18.89,38.11,32.79,49.3C69,378.25,94.13,388.28,129,394.34c35.3,6.14,73.3,5.46,109.87-2,87.38-17.76,155.36-71.09,186.53-146.32C435.25,222.22,441.3,184,442,153c.44-19.62-16-56-13.94-71.39l14.17-44.18a167.32,167.32,0,0,1-17,6.7L422,45.19l-2.23-2.56C414.08,36,405.28,25,401,18c-3,6.2-7.16,3.55-10,13-1.21,4-6.85,15.41-8,19-2.62,8.23-10.52,30.94-12.9,41.37l-.75,3.27-3.3.6C352.79,97.66,338,114,338,114c-10.51,10.87-26.14,30-34,43-20.48,33.92-30.18,52.76-59.9,74.82-30.39,22.54-62.29,38.92-96,43.57-16.19,2.23-32.4,1.58-48.07.94C92.68,276,85.14,275.74,77.69,275.74Z" transform="translate(-6.5 -10.6)"/><path class="banana-yellow-shade" d="M20,311c22.12,16.26,40.36,31.3,67.25,37.65C148,363,187,363.47,234.32,348.67c47.87-15,91.34-49.82,121.83-89.58,33-43,46.09-94.67,58.91-146C416.51,107.34,420,95,426,97c0,0,37,83,1.38,154.54-33.73,67.76-77.88,103.84-129.8,129.81S163,411,89.79,392.15C62.26,385.06,12,342.4,12,316.44Z" transform="translate(-6.5 -10.6)"/><path class="cls-1" d="M179.68,487.88A177.94,177.94,0,0,1,142,484.15C118,479,98.53,466.91,85.61,449.3c-6.32-8.6-8.15-17.88-5.3-26.83,3.47-10.92,13.87-20.21,27.81-24.86l.69-.23.72.19c6.87,1.78,14.29,3.37,22.06,4.73a294.65,294.65,0,0,0,108.06-1.94c86-17.48,153-70,183.69-144.16,9.72-23.45,19.74-51.54,20.43-82.18.43-19.47-2.94-36.75-11.65-59.62-.29-.76-.91-2-1.63-3.5-2.8-5.76-5.08-10.81-4.66-14.23l.67-3.17,2.59,1.13c14.74,5,27.29,19.08,37.31,41.77,9.68,21.9,13.75,44.87,14.77,51.39h0c14.48,92.67-29.48,191-109.39,244.74-37,24.85-77.19,40.9-119.52,47.69C229.38,483.89,204.47,487.88,179.68,487.88Z" transform="translate(-6.5 -10.6)"/><path class="cls-1" d="M15.54,329.29h-.37c-3-.21-5.22-2.93-5.81-7.1h0c-.56-4-1.09-16.48,3.63-21.93a7.65,7.65,0,0,1,5.9-2.74h0a6.1,6.1,0,0,1,5.62,3.34c3.54,6.51-.72,20.82-3,24.32C19.76,327.9,17.75,329.29,15.54,329.29Z" transform="translate(-6.5 -10.6)"/><path class="cls-2" d="M75.89,440.62a5.37,5.37,0,0,0,3.14,3,4.65,4.65,0,0,0,4-.83c6.27-5,7.28-14.47,5.5-20.65-1.59-5.53-8-7.15-11.34-1.89C75.26,423.29,73.17,434.88,75.89,440.62Z" transform="translate(-6.5 -10.6)"/><path class="cls-1" d="M80,445.22a5.6,5.6,0,0,1-1.71-.27A7.12,7.12,0,0,1,74,441h0c-2.91-6.17-.8-17.59,1.36-20.95a8,8,0,0,1,7.86-3.93,8.42,8.42,0,0,1,6.72,6.28c2,6.81.59,16.36-5.85,21.45A6.87,6.87,0,0,1,80,445.22Z" transform="translate(-6.5 -10.6)"/><path class="cls-1" d="M429.17,108.21c-1.28-2.63-4.68-9.61-4.12-11.38L441.8,44.62l.1-.3h0l.3-.94a2,2,0,0,1,.07-.23l1.34-5.32a17.23,17.23,0,0,0-.55-9.09c-2.32-6.27-17-12.79-20.54-13.9-9.68-3-16-2.16-21.86,2.94A33.93,33.93,0,0,0,396,22.91l-2.36,3.4c-4.69,7.34-9,17.69-13.2,31.66-1.15,3.84-2.26,7.34-3.35,10.75-2.44,7.64-4.74,14.88-7,24.42-14.35,3.35-26.59,16-36.48,26.31l-1.33,1.36a207.37,207.37,0,0,0-27.95,36.36c-19.21,31.81-37.65,57.19-65.22,77.64-28.17,20.91-59.54,34.23-90.71,38.53-14.9,2.05-30.12,1.43-44.83.84-8.38-.34-17-.67-25.61-.55-7,.11-17.34.53-27.14,2.84-11.87,2.81-20.91,8-26.86,15.3a34.37,34.37,0,0,0-7.7,26.13c2.12,20,19,40.07,34.16,52.25,19.46,15.67,44.69,25.78,79.4,31.82a282.65,282.65,0,0,0,48.33,4.09,301.48,301.48,0,0,0,59.83-6c86.29-17.54,153.47-70.32,184.32-144.8,9.74-23.5,19.78-51.69,20.48-82.65.44-19.84-3-37.37-11.79-60.52C430.59,111.11,429.93,109.77,429.17,108.21Z" transform="translate(-6.5 -10.6)"/><path class="cls-2" d="M20.63,296h0a7,7,0,0,0-5.17,2.05c-6,5.8-5.77,21.23-4.73,27.38h0c.43,2.56,1.83,5.36,3.88,5.48,1.88.12,3.93-2.1,5-3.42,3.58-4.61,9.14-23.08,4.91-29.57A4.11,4.11,0,0,0,20.63,296Z" transform="translate(-6.5 -10.6)"/><path class="cls-2" d="M396.56,23.14A156.31,156.31,0,0,0,415.07,50a179.74,179.74,0,0,0,26.64-11.7c1.18-4,2.14-8.35.75-12.11-1.3-3.54-13.76-10.6-20-12.53-9.34-2.91-14.51-2.33-19.74,2.24A37.35,37.35,0,0,0,396.56,23.14Z" transform="translate(-6.5 -10.6)"/><path class="cls-3" d="M24.66,316.48a253.82,253.82,0,0,0,45.47,25.13c64.76,27.81,143.46,24.05,204.52-11.4,52.18-30.29,95.94-79.3,117.37-136,.31-.83.62-1.66.92-2.49C408.63,148.62,415,105,415,105" transform="translate(-6.5 -10.6)"/><path class="cls-3" d="M79,436.88c21.4,3,43.2,6.94,64.77,7.86,69.59,3,145.79-11.42,202.31-52.94C405,348.51,448.65,288.23,455.54,212.7a209.92,209.92,0,0,0,.46-27.82C454,137,440,112,427,99" transform="translate(-6.5 -10.6)"/></svg>