<svg id="Layer_1" data-name="Layer 1" xmlns="http://www.w3.org/2000/svg" viewBox="0 0 500 500"><defs><style>.cls-1{fill:#693d40;}</style></defs><title>Artboard 5</title><path class="cls-1" d="M185.36,258.28H141.5v50.4h43c16.42,0,29.78-5.81,29.78-24.26C214.27,265.69,203.08,258.28,185.36,258.28Z"/><path class="cls-1" d="M206.86,208.89c0-16.84-13.07-20.91-27.6-20.91H141.5v42.7h40.81C196.69,230.68,206.86,224.44,206.86,208.89Z"/><path class="cls-1" d="M250,0C111.93,0,0,111.93,0,250S111.93,500,250,500,500,388.07,500,250,388.07,0,250,0Zm45.46,169.1h74.23v18H295.46ZM190,339.76H101.26v-183h86.28c31.38,0,58.54,8.86,58.54,45.32,0,18.44-8.57,30.35-25,38.2,22.51,6.39,33.4,23.38,33.4,46.33C254.5,323.79,223.27,339.76,190,339.76Zm208.43-57.51H302.87c0,21.2,11.18,33.69,32.54,33.69,11,0,25.27-5.95,28.76-17.28h32.1c-9.88,30.36-30.36,44.59-62,44.59-41.83,0-67.83-28.32-67.83-69.57,0-39.8,27.46-70.16,67.83-70.16,41.55,0,64.5,32.68,64.5,71.9C398.74,277.74,398.59,280.07,398.44,282.25Z"/><path class="cls-1" d="M333.08,231c-17.43,0-29.05,10.9-30.21,28.33h59.26C360.53,241.72,351.38,231,333.08,231Z"/></svg>