<svg id="Layer_1" data-name="Layer 1" xmlns="http://www.w3.org/2000/svg" viewBox="0 0 500 500"><defs><style>.cls-1{fill:#666;}</style></defs><title>Artboard 2</title><path class="cls-1" d="M250,11a239.06,239.06,0,0,1,93,459.22A239.06,239.06,0,0,1,157,29.78,237.51,237.51,0,0,1,250,11m0-11C111.93,0,0,111.93,0,250S111.93,500,250,500,500,388.07,500,250,388.07,0,250,0Z"/><path class="cls-1" d="M187.54,156.75c31.38,0,58.54,8.86,58.54,45.32,0,18.44-8.57,30.35-25,38.2,22.51,6.39,33.4,23.38,33.4,46.33,0,37.19-31.23,53.16-64.49,53.16H101.26v-183Zm-5.23,73.93c14.38,0,24.55-6.24,24.55-21.79,0-16.84-13.07-20.91-27.6-20.91H141.5v42.7Zm2.18,78c16.42,0,29.78-5.81,29.78-24.26,0-18.73-11.19-26.14-28.91-26.14H141.5v50.4Zm179.68-10h32.1c-9.88,30.36-30.36,44.59-62,44.59-41.83,0-67.83-28.32-67.83-69.57,0-39.8,27.46-70.16,67.83-70.16,41.55,0,64.5,32.68,64.5,71.9,0,2.32-.15,4.65-.3,6.83H302.87c0,21.2,11.18,33.69,32.54,33.69C346.45,315.94,360.68,310,364.17,298.66ZM295.46,169.1v18h74.23v-18Zm7.41,90.2h59.26c-1.6-17.58-10.75-28.33-29.05-28.33C315.65,231,304,241.87,302.87,259.3Z"/></svg>