<svg id="Layer_1" data-name="Layer 1" xmlns="http://www.w3.org/2000/svg" viewBox="0 0 500 500"><defs><style>.cls-1{fill:#4d4d4d;}.cls-2{fill:none;stroke:#4d4d4d;stroke-linecap:round;stroke-miterlimit:10;stroke-width:6px;}</style></defs><title>banana_stroke</title><path class="cls-1" d="M438.78,98.24c12.14,5.79,22.73,18.79,31.52,38.7,9.72,22,13.82,45.11,14.85,51.67,14.62,93.55-29.79,192.86-110.51,247.12-37.47,25.19-78.21,41.45-121.09,48.32-22.87,3.67-48.8,7.83-73.94,7.83a176.66,176.66,0,0,1-37.8-3.73c-23.44-5.08-42.47-16.82-55.06-34C81.23,446.68,79.6,438.67,82,431c3-9.56,12.28-17.8,24.78-22.13,7,1.8,14.55,3.4,22.42,4.77A296.12,296.12,0,0,0,179.79,418a314.87,314.87,0,0,0,62.57-6.3c90.26-18.34,160.53-73.54,192.8-151.45,10.18-24.57,20.68-54.06,21.41-86.43.46-20.75-3.11-39.08-12.32-63.28-.36-.95-.94-2.16-1.85-4a79.38,79.38,0,0,1-3.62-8.22m-5.3-7.36L433.1,94c-.43,3.52,1.91,8.72,4.8,14.65.74,1.52,1.37,2.82,1.67,3.61,9,23.56,12.45,41.34,12,61.4-.71,31.55-11,60.48-21,84.63C398.91,334.63,330,388.75,241.37,406.75a310.07,310.07,0,0,1-61.58,6.2,290.4,290.4,0,0,1-49.7-4.21c-8-1.39-15.65-3-22.73-4.87l-.74-.19-.71.24c-14.36,4.78-25.07,14.35-28.64,25.6-2.94,9.22-1,18.77,5.46,27.63C96,475.29,116.1,487.7,140.75,493a183.29,183.29,0,0,0,38.86,3.84c25.52,0,51.17-4.11,74.74-7.89,43.59-7,85-23.52,123.08-49.11,82.3-55.32,127.57-156.61,112.66-252-1-6.71-5.25-30.37-15.21-52.92-10.32-23.37-23.25-37.84-38.42-43l-3-1Z"/><path class="cls-1" d="M20.69,303.53a3.05,3.05,0,0,1,3,1.8c1.41,2.6,1.56,7.9.38,14.18-1.15,6.12-3.13,11.2-4.11,12.71-.76,1.18-2.26,3.15-3.7,3.15h-.14c-1.41-.1-2.63-2.13-3-5.06-.88-6.22-.73-19.9,3.6-24.89a5.05,5.05,0,0,1,4-1.89h0m0-5h0a10,10,0,0,0-7.77,3.62C6.69,309.32,7.4,325.8,8.13,331c.78,5.5,3.71,9.08,7.65,9.35h.49c2.9,0,5.56-1.82,7.9-5.43,3-4.6,8.58-23.44,3.92-32a8,8,0,0,0-7.4-4.41Z"/><path class="cls-1" d="M77.45,448.4a5.46,5.46,0,0,0,3.22,3.09,4.7,4.7,0,0,0,4.08-.84c6.4-5.06,7.44-14.77,5.62-21.08-1.62-5.64-8.12-7.3-11.57-1.93C76.82,430.72,74.68,442.54,77.45,448.4Z"/><path class="cls-1" d="M84.16,426.81a2.82,2.82,0,0,1,.48,0,4.44,4.44,0,0,1,3.38,3.4c1.67,5.8.56,14.25-4.79,18.48a2.55,2.55,0,0,1-1.44.49,1.23,1.23,0,0,1-.39-.06,3.11,3.11,0,0,1-1.73-1.81l0-.1c-2.29-5.05-.35-15.82,1.24-18.29a4.1,4.1,0,0,1,3.3-2.15m0-5a9,9,0,0,0-7.51,4.45c-2.4,3.73-4.74,16.39-1.51,23.23h0a7.91,7.91,0,0,0,4.73,4.43,6,6,0,0,0,1.91.3,7.59,7.59,0,0,0,4.54-1.57c7.14-5.64,8.67-16.24,6.49-23.79a9.32,9.32,0,0,0-7.46-7,8.08,8.08,0,0,0-1.2-.09Z"/><path class="cls-1" d="M425.26,11.88h0A30.16,30.16,0,0,1,434,13.47c5.22,1.63,17,8,18.29,11.5a13.13,13.13,0,0,1,.34,6.91L452.3,34l-.68,2.17L451,38.05l-.09.29L433.41,93c-.91,2.88.16,6.52,4.6,15.64.7,1.44,1.37,2.8,1.67,3.59,9,23.57,12.45,41.37,12,61.44-.71,31.57-11,60.52-21,84.67C399,334.71,330,388.84,241.39,406.86a310.28,310.28,0,0,1-61.61,6.2,291.16,291.16,0,0,1-49.71-4.21c-35.45-6.16-61.12-16.41-80.8-32.26a118.77,118.77,0,0,1-22-23.28c-6.85-9.71-11-19.41-11.88-28a31.15,31.15,0,0,1,7-23.66c5.52-6.8,14.06-11.61,25.38-14.29C57.47,285,68,284.6,75,284.49c1.26,0,2.53,0,3.8,0,7.35,0,14.64.27,22.74.6,7.34.3,14.92.6,22.51.6a186.65,186.65,0,0,0,25.27-1.52c33.44-4.61,67-18.88,97.21-41.25C276.06,221,295.69,194,316.09,160.22a211.64,211.64,0,0,1,28.57-37.16l1.39-1.44c9.86-10.22,22.13-23,35.71-26.11l3-.71.71-3c2.31-9.81,4.69-17.28,7.21-25.19l.1-.32c1.11-3.48,2.25-7.07,3.43-11,4.25-14.16,8.58-24.59,13.24-31.88l1.08-1.7,1.16-1.53a30.18,30.18,0,0,1,4.22-4.62,13.23,13.23,0,0,1,9.33-3.66m0-5a18.23,18.23,0,0,0-12.61,4.89,35.18,35.18,0,0,0-4.93,5.38l-.09-.18-2.38,3.73c-4.9,7.68-9.42,18.52-13.81,33.13-1.2,4-2.37,7.68-3.5,11.25-2.55,8-5,15.57-7.32,25.56-15,3.5-27.82,16.78-38.17,27.52l-1.39,1.43a216.74,216.74,0,0,0-29.25,38c-20.1,33.28-39.39,59.83-68.24,81.23-29.48,21.88-62.31,35.82-94.92,40.31a180.42,180.42,0,0,1-24.58,1.48c-7.5,0-15-.3-22.33-.59s-15.23-.61-22.92-.61c-1.3,0-2.58,0-3.87,0-7.28.12-18.15.55-28.4,3-12.43,2.94-21.88,8.33-28.11,16a35.93,35.93,0,0,0-8,27.34c2.22,20.87,19.92,41.93,35.74,54.68,20.36,16.39,46.76,27,83.08,33.29a296.44,296.44,0,0,0,50.57,4.28,315.2,315.2,0,0,0,62.61-6.3C332.67,393.41,403,338.18,435.26,260.25c10.18-24.59,20.69-54.08,21.42-86.48.46-20.76-3.11-39.11-12.33-63.33-.38-1-1.07-2.41-1.86-4-1.34-2.75-4.9-10.05-4.31-11.9L455.7,39.87l.1-.32h0l.3-1,.08-.24L458,32.52l-.42.22a18,18,0,0,0-.57-9.5c-2.43-6.56-17.79-13.39-21.5-14.54a34.7,34.7,0,0,0-10.26-1.82Z"/><path class="cls-1" d="M20.91,302h0A5.39,5.39,0,0,0,16.58,304c-5,5.8-4.82,21.24-3.95,27.39h0c.36,2.56,1.53,5.36,3.25,5.48,1.56.12,3.28-2.1,4.14-3.42,3-4.61,7.63-23.09,4.1-29.58A3.29,3.29,0,0,0,20.91,302Z"/><path class="cls-1" d="M409.71,21.59A148.77,148.77,0,0,0,427.3,47.12,170.42,170.42,0,0,0,452.63,36c1.13-3.77,2-7.95.72-11.51-1.24-3.37-13.08-10.08-19-11.92-8.88-2.76-13.8-2.21-18.77,2.13A35.22,35.22,0,0,0,409.71,21.59Z"/><path class="cls-2" d="M20.81,327.61A259.6,259.6,0,0,0,67.2,353.24c66.06,28.37,146.34,24.53,208.63-11.63,53.22-30.9,97.87-80.89,119.73-138.69.32-.85.63-1.69.94-2.54,16-44,22.5-88.5,22.5-88.5"/><path class="cls-2" d="M88,445.88c21.4,3,43.2,6.94,64.77,7.86,69.59,3,145.79-11.42,202.31-52.94C414,357.51,457.65,297.23,464.54,221.7a152.11,152.11,0,0,0,.46-27.82c-3-32-24-87-28-95"/></svg>