<svg id="Layer_1" data-name="Layer 1" xmlns="http://www.w3.org/2000/svg" viewBox="0 0 400 176.75"><defs><style>.cls-1{fill:#4d4d4d;}</style></defs><title>hannabanana_full_logo</title><path class="cls-1" d="M193,85.75a31,31,0,0,1-6.59-.65,16.39,16.39,0,0,1-9.95-6.16,5.42,5.42,0,0,1-1-5,7.64,7.64,0,0,1,5.06-4.56l.24-.08.24.07c1.17.3,2.44.57,3.76.8a50.29,50.29,0,0,0,18.45-.33c14.66-3,26.07-11.93,31.3-24.56,1.66-4,3.37-8.78,3.49-14a25.25,25.25,0,0,0-2-10.1c-.05-.11-.15-.33-.27-.56a5.57,5.57,0,0,1-.84-2.69l.13-1.05,1,.34c2.66.91,4.9,3.41,6.68,7.43a37.76,37.76,0,0,1,2.57,9h0c2.52,16.11-5.12,33.21-19,42.54a51.73,51.73,0,0,1-20.74,8.28A80.4,80.4,0,0,1,193,85.75ZM180.83,71.08a5.85,5.85,0,0,0-3.74,3.37,3.8,3.8,0,0,0,.73,3.48,14.66,14.66,0,0,0,8.94,5.5c6,1.31,12.66.25,18.51-.69a49.91,49.91,0,0,0,20.06-8c13.35-9,20.69-25.39,18.28-40.86h0c-.66-4.17-2.67-11.18-6.33-14l0,0c.14.29.25.52.32.71a26.6,26.6,0,0,1,2.09,10.74c-.12,5.49-1.89,10.46-3.61,14.61-5.45,13.16-17.31,22.48-32.54,25.58a52.18,52.18,0,0,1-19.08.34C183.2,71.63,182,71.37,180.83,71.08Z"/><path class="cls-1" d="M164.74,57.54c.08.53.34,1.16.89,1.2s.78-.35,1-.71c.59-.91,1.76-5.43-.22-5.43S164.59,56.48,164.74,57.54Z"/><path class="cls-1" d="M165.68,59.59h-.11c-.87-.06-1.51-.8-1.67-1.93h0s-.46-3.59.9-5.16a2.08,2.08,0,0,1,1.62-.75h0a1.77,1.77,0,0,1,1.61,1c.89,1.63-.17,5-.67,5.78A2,2,0,0,1,165.68,59.59Zm.74-6.14h0a.38.38,0,0,0-.33.17c-.63.71-.64,2.86-.5,3.8h0a1.19,1.19,0,0,0,.12.41,1.25,1.25,0,0,0,.21-.27c.66-1,1-3.83.57-4.1Z"/><path class="cls-1" d="M175.91,77.22a.9.9,0,0,0,.53.52.81.81,0,0,0,.68-.14,3.46,3.46,0,0,0,.94-3.53,1,1,0,0,0-1.93-.32A5,5,0,0,0,175.91,77.22Z"/><path class="cls-1" d="M176.63,78.62a1.37,1.37,0,0,1-.45-.07,1.73,1.73,0,0,1-1.05-1h0a5.81,5.81,0,0,1,.28-4.3,1.89,1.89,0,0,1,1.88-.92,2,2,0,0,1,1.59,1.47,4.3,4.3,0,0,1-1.23,4.43A1.66,1.66,0,0,1,176.63,78.62Zm.05-1.76h0a2.69,2.69,0,0,0,.56-2.55c0-.16-.13-.24-.2-.25s-.14.07-.19.15a4.35,4.35,0,0,0-.17,2.65Z"/><path class="cls-1" d="M193,72.58a50,50,0,0,1-8.53-.72c-6.14-1.07-10.62-2.87-14.08-5.66-2.71-2.18-5.74-5.8-6.13-9.42a6.42,6.42,0,0,1,1.44-4.88,8.74,8.74,0,0,1,4.93-2.83,23.57,23.57,0,0,1,4.84-.51c1.51,0,3,0,4.5.1a44.84,44.84,0,0,0,7.77-.14,34.49,34.49,0,0,0,15.66-6.66c4.79-3.55,7.87-7.78,11.3-13.46A36.33,36.33,0,0,1,219.66,22l.23-.24c1.71-1.77,3.81-4,6.33-4.65.38-1.56.76-2.78,1.17-4,.19-.6.38-1.21.58-1.88a23.2,23.2,0,0,1,2.36-5.64l.8-1.25.72,1.41a23.72,23.72,0,0,0,2.65,3.92,27.18,27.18,0,0,0,3.87-1.74l1.86-1-.7,2.24-2.92,9.09a8.57,8.57,0,0,0,.69,1.72c.14.29.25.52.32.71a26.6,26.6,0,0,1,2.09,10.74c-.12,5.49-1.89,10.46-3.61,14.61-5.45,13.16-17.31,22.48-32.54,25.58A53.71,53.71,0,0,1,193,72.58ZM176.17,50.27h-.66a21.59,21.59,0,0,0-4.48.47A7,7,0,0,0,167,53,4.68,4.68,0,0,0,166,56.6c.33,3.1,3.17,6.39,5.5,8.27,3.23,2.6,7.46,4.29,13.3,5.3a50.29,50.29,0,0,0,18.45-.33c14.66-3,26.07-11.93,31.3-24.56,1.66-4,3.37-8.78,3.49-14a25.25,25.25,0,0,0-2-10.1c-.05-.11-.15-.33-.27-.57-.61-1.25-1-2.19-.79-2.94l2.38-7.41a26.29,26.29,0,0,1-2.85,1.12l-.54.18-.38-.43a26.57,26.57,0,0,1-2.52-3.42,29.4,29.4,0,0,0-1.45,3.92c-.2.68-.4,1.3-.59,1.9-.44,1.38-.86,2.69-1.26,4.44l-.12.55-.56.1c-2.22.41-4.3,2.56-6,4.29l-.24.24a34.79,34.79,0,0,0-4.71,6.13c-3.44,5.69-6.75,10.24-11.74,13.94a36.14,36.14,0,0,1-16.45,7,46.48,46.48,0,0,1-8.07.16C178.68,50.32,177.42,50.27,176.17,50.27Z"/><path class="cls-1" d="M238.94,6.31c-.3-.8-2.5-1.91-3.32-2.17-1.52-.47-2.48-.38-3.41.43A6.36,6.36,0,0,0,231.05,6l0,.1a24.55,24.55,0,0,0,3.13,4.51,27.83,27.83,0,0,0,4.55-2A3.56,3.56,0,0,0,238.94,6.31Z"/><path class="cls-1" d="M234,11.57l-.38-.43a25.73,25.73,0,0,1-3.23-4.67L230.08,6l.25-.44a7.28,7.28,0,0,1,1.32-1.59,4.08,4.08,0,0,1,4.23-.6c.42.14,3.36,1.33,3.86,2.69h0a4.38,4.38,0,0,1-.14,2.84l-.1.33-.31.17a28,28,0,0,1-4.69,2ZM232.05,6a23.37,23.37,0,0,0,2.45,3.57A26.78,26.78,0,0,0,238.07,8a2.36,2.36,0,0,0,.07-1.4A7.42,7.42,0,0,0,235.37,5c-1.43-.45-2-.26-2.6.25A4.91,4.91,0,0,0,232.05,6Z"/><path class="cls-1" d="M190.65,65.34A45,45,0,0,1,175,62.4c-2.88-1.08-6.14-2.3-8.73-4.44a.85.85,0,0,1-.12-1.2.86.86,0,0,1,1.2-.12c2.38,2,5.36,3.08,8.25,4.16a41.53,41.53,0,0,0,20.05,2.5c6.34-.87,12.61-3.84,19.17-9.08a44.65,44.65,0,0,0,12.14-15.14c2.52-5.15,3.58-10.4,4.7-16,.2-1,.4-2,.62-3a.85.85,0,0,1,1-.66.86.86,0,0,1,.66,1c-.21,1-.42,2-.62,3-1.14,5.67-2.21,11-4.83,16.37a46.48,46.48,0,0,1-12.62,15.73c-6.8,5.43-13.35,8.52-20,9.43A37.09,37.09,0,0,1,190.65,65.34Z"/><path class="cls-1" d="M191,78.89h-.35c-1.88,0-3.88,0-5.9-.24A32.21,32.21,0,0,1,177.46,77l.57-1.61A31.05,31.05,0,0,0,185,77c1.94.2,3.89.22,5.72.23,4.39,0,9.49-.1,14.23-1.38a53.27,53.27,0,0,0,18.59-9.42c4.23-3.3,10.17-8.48,13-15.3a43.6,43.6,0,0,0,3.35-14.38c.23-4.49-2.46-14.25-5-18l1.42-.94c2.7,4,5.49,14.18,5.24,19a45.27,45.27,0,0,1-3.47,15c-3,7.19-9.16,12.57-13.54,16a54.62,54.62,0,0,1-19.19,9.72A54.9,54.9,0,0,1,191,78.89Z"/><path class="cls-1" d="M7.18,107a.81.81,0,0,1,.79-.78H9.58a.78.78,0,0,1,.79.78v12.09H27.18V107a.78.78,0,0,1,.78-.78h1.62a.81.81,0,0,1,.78.78v27.41a.82.82,0,0,1-.78.79H28a.79.79,0,0,1-.78-.79V121.9H10.37v12.54a.79.79,0,0,1-.79.79H8a.82.82,0,0,1-.79-.79Z"/><path class="cls-1" d="M55.53,134.15l12.58-27.86a.76.76,0,0,1,.71-.46h.41a.76.76,0,0,1,.71.46l12.5,27.86a.74.74,0,0,1-.71,1.08H80.08a.78.78,0,0,1-.71-.46l-3.06-6.83H61.62l-3,6.83a.75.75,0,0,1-.7.46H56.23A.73.73,0,0,1,55.53,134.15Zm19.66-8.78c-2-4.51-4-9.06-6-13.58h-.33l-6,13.58Z"/><path class="cls-1" d="M107.65,106.58a.78.78,0,0,1,.78-.75h1l18.67,23.27h.08V107a.78.78,0,0,1,.79-.78h1.45a.81.81,0,0,1,.78.78v27.86a.78.78,0,0,1-.78.75h-.75l-19-23.72h0v22.52a.79.79,0,0,1-.79.79h-1.45a.82.82,0,0,1-.78-.79Z"/><path class="cls-1" d="M160.38,106.58a.78.78,0,0,1,.79-.75h1l18.67,23.27H181V107a.78.78,0,0,1,.78-.78h1.45a.81.81,0,0,1,.79.78v27.86a.78.78,0,0,1-.79.75h-.74l-19-23.72h0v22.52a.79.79,0,0,1-.78.79h-1.45a.82.82,0,0,1-.79-.79Z"/><path class="cls-1" d="M209.14,134.15l12.59-27.86a.74.74,0,0,1,.7-.46h.42a.74.74,0,0,1,.7.46l12.5,27.86a.73.73,0,0,1-.7,1.08h-1.66a.75.75,0,0,1-.7-.46l-3.06-6.83h-14.7l-3,6.83a.76.76,0,0,1-.71.46h-1.65A.74.74,0,0,1,209.14,134.15Zm19.67-8.78c-2-4.51-4-9.06-6.05-13.58h-.33l-6,13.58Z"/><path class="cls-1" d="M291.15,107a.78.78,0,0,1,.78-.78h1.62a.81.81,0,0,1,.78.78v25.42h11.93a.78.78,0,0,1,.78.79v1.2a.79.79,0,0,1-.78.79H291.93a.79.79,0,0,1-.78-.79Z"/><path class="cls-1" d="M332.17,107a.78.78,0,0,1,.79-.78h16.31a.78.78,0,0,1,.78.78v1.2a.78.78,0,0,1-.78.79H335.36v10.1h11.88a.82.82,0,0,1,.78.79v1.2a.79.79,0,0,1-.78.79H335.36v10.55h13.91a.78.78,0,0,1,.78.79v1.2a.79.79,0,0,1-.78.79H333a.79.79,0,0,1-.79-.79Z"/><path class="cls-1" d="M377.37,107a.78.78,0,0,1,.79-.78h16.31a.79.79,0,0,1,.79.78v1.2a.79.79,0,0,1-.79.79H380.56v10.1h11.88a.82.82,0,0,1,.79.79v1.2a.79.79,0,0,1-.79.79H380.56v10.55h13.91a.79.79,0,0,1,.79.79v1.2a.8.8,0,0,1-.79.79H378.16a.79.79,0,0,1-.79-.79Z"/><path class="cls-1" d="M51,159.5v-1.31h3.84c2.92,0,4.64,1.29,4.64,7.28,0,3.2-.17,7.26-4.6,7.26H51v-1.31h1.18V159.5Zm2.64,11.92h1.2c1.76,0,3.12-.46,3.12-5.95s-1.49-6-2.77-6H53.62Z"/><path class="cls-1" d="M67.06,158.19h7.09v1.31H68.52v4.79h4.65v1.31H68.52v5.82h5.63v1.31H67.06Z"/><path class="cls-1" d="M87.52,161.5c-.24-1.06-.76-2.13-2-2.13s-1.92,1.11-1.92,2.33.24,1.55,2.53,2.92c1.78,1.07,3,2,3,4.21s-1.22,4.09-3.66,4.09-3.51-1.7-3.72-4l1.46-.19c.19,1.61.54,2.83,2.31,2.83,1.26,0,2.15-.85,2.15-2.59,0-1.92-1.24-2.58-2.74-3.45-1.68-1-2.79-1.67-2.79-3.81a3.47,3.47,0,0,1,3.38-3.7c2,0,3,1.46,3.42,3.29Z"/><path class="cls-1" d="M99.94,159.5H98v-1.31h5.4v1.31h-2v11.92h2v1.31H98v-1.31h2Z"/><path class="cls-1" d="M119.77,171.66a5.51,5.51,0,0,1-3.38,1.26c-3.75,0-4.4-4.53-4.4-7.43,0-2.72.63-7.49,4.25-7.49a4.25,4.25,0,0,1,3.63,2.33l-1.28.78a2.86,2.86,0,0,0-2.44-1.74c-2.42,0-2.64,4.44-2.64,6.17,0,5,1.46,6,2.9,6a3.24,3.24,0,0,0,1.9-.68v-4.38h-2.73v-1.3h4.19Z"/><path class="cls-1" d="M127.39,158.19h1.83l4.32,12.23,0,0-.07-3.24v-8.94H135v14.54h-1.83l-4.31-12.25-.05,0,.07,3.29v8.92h-1.46Z"/><path class="cls-1" d="M143.32,158.19h7.08v1.31h-5.62v4.79h4.64v1.31h-4.64v5.82h5.62v1.31h-7.08Z"/><path class="cls-1" d="M158.68,158.19h3.92c1.44,0,3.24,1.24,3.24,3.86,0,1.79-.71,3.49-2.5,4.1l3,6.23L165,173l-3.27-6.76h-1.63v6.48h-1.46Zm1.46,6.76h2.13c1.26,0,2-.94,2-2.9s-.92-2.55-2.4-2.55h-1.78Z"/><path class="cls-1" d="M198,165.36h-5.32v5.32h-1v-5.32h-5.31v-1h5.31v-5.32h1v5.32H198Z"/><path class="cls-1" d="M218.74,159.5v-1.31h3.84c2.92,0,4.64,1.29,4.64,7.28,0,3.2-.18,7.26-4.6,7.26h-3.88v-1.31h1.18V159.5Zm2.64,11.92h1.2c1.76,0,3.11-.46,3.11-5.95s-1.48-6-2.77-6h-1.54Z"/><path class="cls-1" d="M234.82,158.19h7.08v1.31h-5.62v4.79h4.64v1.31h-4.64v5.82h5.62v1.31h-7.08Z"/><path class="cls-1" d="M256.19,157.91l1.48.3L253.36,173H253l-4.31-14.8,1.48-.3,3,10.87Z"/><path class="cls-1" d="M265.32,158.19h7.08v1.31h-5.62v4.79h4.64v1.31h-4.64v5.82h5.62v1.31h-7.08Z"/><path class="cls-1" d="M280.83,158.19h1.46v13.23h6v1.31h-7.43Z"/><path class="cls-1" d="M303,165.45c0,1.83.07,7.47-4,7.47s-4-5.6-4-7.47c0-2.4.15-7.45,4-7.45C303,158,303,163.53,303,165.45Zm-6.54,0c0,3.92.46,6.1,2.51,6.1,2.53,0,2.5-3.57,2.5-6.1,0-2.75.07-6.08-2.5-6.08S296.43,163.31,296.43,165.45Z"/><path class="cls-1" d="M312.64,172.73h-1.46V158.19h3.16c2.57,0,4,1.37,4,3.86,0,2.7-1.52,4.2-3.53,4.2h-2.18Zm0-7.78,2.05,0c1.35,0,2.14-1,2.14-2.87a2.24,2.24,0,0,0-2.51-2.55h-1.68Z"/><path class="cls-1" d="M326.32,158.19h7.09v1.31h-5.63v4.79h4.64v1.31h-4.64v5.82h5.63v1.31h-7.09Z"/><path class="cls-1" d="M341.68,158.19h3.92c1.44,0,3.25,1.24,3.25,3.86,0,1.79-.72,3.49-2.5,4.1l3,6.23L348,173l-3.26-6.76h-1.64v6.48h-1.46Zm1.46,6.76h2.14c1.26,0,2.05-.94,2.05-2.9s-.92-2.55-2.4-2.55h-1.79Z"/></svg>