<svg id="Layer_1" data-name="Layer 1" xmlns="http://www.w3.org/2000/svg" viewBox="0 0 100 100"><defs><style>.cls-1{fill:#4d4d4d;}</style></defs><title>hannabanana_small</title><path class="cls-1" d="M35.54,98.88a36.47,36.47,0,0,1-7.8-.78A19.31,19.31,0,0,1,16,90.81a6.45,6.45,0,0,1-1.16-5.93,9,9,0,0,1,6-5.39l.29-.09.29.07c1.39.36,2.89.68,4.46,1A59.46,59.46,0,0,0,47.66,80C65,76.5,78.55,65.9,84.74,51c2-4.73,4-10.41,4.13-16.57a30,30,0,0,0-2.35-12c0-.13-.17-.4-.31-.67a6.6,6.6,0,0,1-1-3.18l.16-1.24,1.17.4c3.15,1.08,5.8,4,7.91,8.79a45.93,45.93,0,0,1,3,10.6h0c3,19.08-6.06,39.33-22.51,50.39a61.33,61.33,0,0,1-24.57,9.8A94.59,94.59,0,0,1,35.54,98.88ZM21.16,81.51a6.86,6.86,0,0,0-4.43,4,4.48,4.48,0,0,0,.86,4.11,17.38,17.38,0,0,0,10.58,6.52c7.16,1.55,15,.29,21.92-.82a59.22,59.22,0,0,0,23.76-9.48C89.66,75.2,98.36,55.75,95.5,37.43h0c-.78-4.94-3.15-13.24-7.49-16.61l0,0c.17.35.3.62.38.84a31.82,31.82,0,0,1,2.48,12.73c-.15,6.49-2.25,12.39-4.28,17.3C80.15,67.31,66.11,78.35,48.07,82a61.83,61.83,0,0,1-22.59.4C24,82.16,22.51,81.85,21.16,81.51Z"/><path class="cls-1" d="M2.1,65.47c.09.62.4,1.37,1,1.41s.92-.41,1.2-.84C5,65,6.44,59.61,4.08,59.62S1.92,64.21,2.1,65.47Z"/><path class="cls-1" d="M3.21,67.9H3.08c-1-.07-1.79-.94-2-2.28h0c0-.06-.55-4.26,1.07-6.12a2.5,2.5,0,0,1,1.91-.89h0A2.08,2.08,0,0,1,6,59.74c1.06,1.94-.2,5.94-.79,6.85A2.39,2.39,0,0,1,3.21,67.9Zm.88-7.27h0a.47.47,0,0,0-.4.19c-.73.85-.74,3.4-.59,4.51h0a1.42,1.42,0,0,0,.15.48,1.52,1.52,0,0,0,.25-.32c.78-1.2,1.14-4.54.67-4.85Z"/><path class="cls-1" d="M15.32,88.77a1.11,1.11,0,0,0,.64.62,1,1,0,0,0,.81-.17,4.11,4.11,0,0,0,1.11-4.17,1.23,1.23,0,0,0-2.29-.39A6,6,0,0,0,15.32,88.77Z"/><path class="cls-1" d="M16.18,90.43a1.89,1.89,0,0,1-.53-.08,2.05,2.05,0,0,1-1.24-1.14h0a6.86,6.86,0,0,1,.33-5.09A2.23,2.23,0,0,1,17,83a2.34,2.34,0,0,1,1.89,1.74A5.09,5.09,0,0,1,17.39,90,2,2,0,0,1,16.18,90.43Zm.06-2.09h0a3.2,3.2,0,0,0,.67-3c-.06-.19-.17-.29-.24-.3s-.17.09-.23.18a5.11,5.11,0,0,0-.2,3.13Z"/><path class="cls-1" d="M35.58,83.27a59.09,59.09,0,0,1-10.1-.85C18.2,81.15,12.9,79,8.81,75.73,5.59,73.14,2,68.85,1.54,64.56a7.64,7.64,0,0,1,1.71-5.78,10.31,10.31,0,0,1,5.84-3.34,27.27,27.27,0,0,1,5.73-.6c1.79,0,3.59,0,5.33.11a52.43,52.43,0,0,0,9.2-.17A40.76,40.76,0,0,0,47.9,46.89c5.66-4.2,9.32-9.21,13.38-15.93a43.44,43.44,0,0,1,5.85-7.62l.28-.28c2-2.11,4.52-4.69,7.5-5.51.44-1.85.9-3.29,1.38-4.8.23-.71.46-1.43.7-2.22a26.87,26.87,0,0,1,2.79-6.68l.94-1.48L81.58,4a26.89,26.89,0,0,0,3.14,4.64A31.09,31.09,0,0,0,89.3,6.61l2.2-1.2-.83,2.66L87.22,18.83a9,9,0,0,0,.81,2c.17.35.3.62.38.84a31.82,31.82,0,0,1,2.48,12.73c-.15,6.49-2.25,12.39-4.28,17.3C80.15,67.31,66.11,78.35,48.07,82A63.44,63.44,0,0,1,35.58,83.27ZM15.63,56.85h-.78a25.22,25.22,0,0,0-5.3.55,8.26,8.26,0,0,0-4.73,2.64,5.58,5.58,0,0,0-1.26,4.3C4,68,7.31,71.93,10.07,74.15c3.83,3.08,8.83,5.07,15.76,6.28A59.46,59.46,0,0,0,47.66,80C65,76.5,78.55,65.9,84.74,51c2-4.73,4-10.41,4.13-16.57a30,30,0,0,0-2.35-12c0-.13-.18-.4-.31-.67-.72-1.49-1.21-2.61-.94-3.48l2.82-8.79a34.39,34.39,0,0,1-3.38,1.34l-.64.21-.44-.51a30.21,30.21,0,0,1-3-4.06,35.16,35.16,0,0,0-1.72,4.65c-.24.81-.47,1.54-.7,2.25-.52,1.64-1,3.18-1.49,5.26l-.14.65-.66.12c-2.64.48-5.09,3-7.07,5.07l-.27.29A41.09,41.09,0,0,0,63,32c-4.07,6.74-8,12.13-13.9,16.51a42.84,42.84,0,0,1-19.49,8.26,52.75,52.75,0,0,1-9.55.19C18.61,56.91,17.11,56.85,15.63,56.85Z"/><path class="cls-1" d="M90,4.8c-.35-1-3-2.27-3.93-2.57-1.8-.57-2.94-.46-4,.5a7.45,7.45,0,0,0-1.37,1.66l.06.12a28.83,28.83,0,0,0,3.7,5.35,33.21,33.21,0,0,0,5.4-2.36A4.27,4.27,0,0,0,90,4.8Z"/><path class="cls-1" d="M84.07,11l-.44-.51A30.13,30.13,0,0,1,79.79,5l-.31-.61.3-.52A8.2,8.2,0,0,1,81.34,2a4.81,4.81,0,0,1,5-.71c.5.16,4,1.57,4.57,3.19h0a5.07,5.07,0,0,1-.17,3.35l-.12.39-.36.2a34.35,34.35,0,0,1-5.56,2.43ZM81.81,4.45a26.93,26.93,0,0,0,2.91,4.22,31.33,31.33,0,0,0,4.22-1.86A2.84,2.84,0,0,0,89,5.15a9,9,0,0,0-3.29-2c-1.69-.53-2.38-.3-3.08.3A6.41,6.41,0,0,0,81.81,4.45Z"/><path class="cls-1" d="M32.79,74.71A53.23,53.23,0,0,1,14.2,71.22C10.8,69.94,6.94,68.5,3.86,66a1,1,0,0,1-.14-1.43,1,1,0,0,1,1.42-.14C8,66.72,11.5,68,14.91,69.32a49.12,49.12,0,0,0,23.74,3c7.51-1,14.94-4.55,22.7-10.75A52.8,52.8,0,0,0,75.74,43.6c3-6.09,4.24-12.31,5.56-18.9.24-1.19.48-2.39.73-3.6a1,1,0,0,1,1.2-.78,1,1,0,0,1,.78,1.2c-.25,1.2-.49,2.4-.73,3.58-1.35,6.72-2.62,13.06-5.72,19.39A55,55,0,0,1,62.62,63.12c-8.06,6.44-15.81,10.09-23.69,11.17A44.49,44.49,0,0,1,32.79,74.71Z"/><path class="cls-1" d="M33.25,90.74h-.42a64.6,64.6,0,0,1-7-.28,38,38,0,0,1-8.68-2l.67-1.9a36.24,36.24,0,0,0,8.23,1.87,65.35,65.35,0,0,0,6.77.27c5.21,0,11.24-.11,16.86-1.64a62.88,62.88,0,0,0,22-11.15c5-3.91,12-10,15.41-18.11a51.81,51.81,0,0,0,4-17c.27-5.31-2.91-16.87-5.87-21.31l1.69-1.12c3.19,4.79,6.5,16.8,6.2,22.54A53.72,53.72,0,0,1,89,58.6c-3.55,8.51-10.85,14.88-16,18.92A65.11,65.11,0,0,1,50.22,89C44.51,90.59,38.49,90.74,33.25,90.74Z"/></svg>