<svg id="Layer_1" data-name="Layer 1" xmlns="http://www.w3.org/2000/svg" xmlns:xlink="http://www.w3.org/1999/xlink" viewBox="0 0 450 450"><defs><style>.cls-1{fill:none;}.cls-2{fill:#fff;}.cls-3{fill:#e6e6e6;}.cls-4{fill:#f2e5e3;}.cls-5{fill:#d2c5c6;}.cls-6{fill:#693d40;}.cls-7{fill:url(#Nova_amostra_de_padrão_5);}</style><pattern id="Nova_amostra_de_padrão_5" data-name="Nova amostra de padrão 5" width="150" height="150" patternTransform="translate(149 301)" patternUnits="userSpaceOnUse" viewBox="0 0 150 150"><rect class="cls-1" width="150" height="150"/><path class="cls-2" d="M150,145.68a46,46,0,0,0-8.7,4.32H129a18.28,18.28,0,0,0-1.67-7.22c-3.63-8-12.86-14.17-12.86-14.17s-1.36,11,2.27,19a19.26,19.26,0,0,0,1.31,2.39H107a26.59,26.59,0,0,0-5.4-4.17,17.9,17.9,0,0,0-14.48-1.54A16.62,16.62,0,0,0,89.61,150H78.49a11.23,11.23,0,0,0,2.32-1.61A13.22,13.22,0,0,0,71.47,143c-6.4-.73-13.83,2.73-13.83,2.73a36.25,36.25,0,0,0,5.6,3.45,1.17,1.17,0,0,0-.18.58.93.93,0,0,0,0,.24h-8c-6.18-7.56-15.81-12.48-15.81-12.48A61.43,61.43,0,0,0,40.84,150H33a32,32,0,0,0-4.16-10.68,18,18,0,0,0-12.26-8,18,18,0,0,0,2.56,14.41A25.28,25.28,0,0,0,22.79,150h-16a58.8,58.8,0,0,0,2.78-7.11A61.63,61.63,0,0,0,0,145.68V137.3l.23.1A13.27,13.27,0,0,0,11,136.67a13.23,13.23,0,0,0-7.89-7.35,16.93,16.93,0,0,0-3.1-.77v-8.63a18.37,18.37,0,0,0,5.1-5c4.94-7.21,5.49-18.33,5.49-18.33A48.3,48.3,0,0,0,0,103.38V92a29,29,0,0,0,9-.28A17.9,17.9,0,0,0,20.82,83.3,17.92,17.92,0,0,0,6.55,80.41,26.37,26.37,0,0,0,0,82.85V72.12A36.59,36.59,0,0,0,3.14,67.8s-1.27-.07-3.14,0V58.44a22.41,22.41,0,0,0,16.07,4.85A22.47,22.47,0,0,0,8.52,46.62,35.12,35.12,0,0,0,0,41.11V34.39A35.07,35.07,0,0,0,9.74,37s-3-7.63-8.14-11.5a13.87,13.87,0,0,0-1.6-1V10.92A47.53,47.53,0,0,0,6.78,0h16A47.58,47.58,0,0,0,34.08,7.73,48.75,48.75,0,0,0,33,0h7.81A36.8,36.8,0,0,0,45,10.76a22.48,22.48,0,0,0,15,10.54A22.45,22.45,0,0,0,57.39,3.18,28.83,28.83,0,0,0,55.12,0h8a1.18,1.18,0,0,0,1.15,1A1.19,1.19,0,0,0,65.38.14a20.14,20.14,0,0,0,5.11,1.38,13.46,13.46,0,0,0,8-1.52H89.61a18.24,18.24,0,0,0,6.33,5.91c7.57,4.28,18.64,3.88,18.64,3.88A48.53,48.53,0,0,0,107,0h11a17.86,17.86,0,0,0,9.56,7.41A17.13,17.13,0,0,0,129,0H141.3a29.47,29.47,0,0,0-3.56,2.7,22.75,22.75,0,0,0-7.61,15.5,1.39,1.39,0,1,0,.15,1.15,22.52,22.52,0,0,0,17.18-5.82A29.82,29.82,0,0,0,150,10.92V24.46a13.17,13.17,0,0,0-8.89-1.5,13.25,13.25,0,0,0,5.33,9.38,18.2,18.2,0,0,0,3.56,2v6.72a61,61,0,0,0-13.24-4.42s3.89,13.36,12,20.7c.42.38.84.72,1.26,1v9.37c-2.9.14-7.28.66-10.74,2.5a13.24,13.24,0,0,0-6.73,8.42,13.24,13.24,0,0,0,10.75-.85A24,24,0,0,0,150,72.12V82.85a48.26,48.26,0,0,0-10,7A48.52,48.52,0,0,0,150,92v11.36a26.7,26.7,0,0,0-4.51,4.93,18,18,0,0,0-2.77,14.37,17.05,17.05,0,0,0,7.28-2.76v8.63a34.44,34.44,0,0,0-11,.31s5,6.21,11,8.44ZM8,14.1A1.57,1.57,0,1,0,6.4,15.67,1.56,1.56,0,0,0,8,14.1Zm.48,100.2a.65.65,0,1,0-.65.64A.65.65,0,0,0,8.44,114.3Zm92.87-93.49s7.71,2.79,14,1.49a13.22,13.22,0,0,0,8.82-6.2,13.23,13.23,0,0,0-10.55-2.2C107.29,15.2,101.31,20.81,101.31,20.81Zm1.06,2.54a1,1,0,1,0,1,1A1,1,0,0,0,102.37,23.35ZM99.57,29a22.46,22.46,0,0,0,10.07,15.28c9.14,6,23,6.39,23,6.39S126.75,38.09,117.6,32.1a23,23,0,0,0-9.34-3.55,1.79,1.79,0,0,0-3.45-.24A19.61,19.61,0,0,0,99.57,29Zm28.72,66.72a1.76,1.76,0,1,0,1.76,1.76A1.76,1.76,0,0,0,128.29,95.72ZM113.85,61.13a1.2,1.2,0,1,0,1.2,1.2A1.19,1.19,0,0,0,113.85,61.13Zm-18.57-18A13.35,13.35,0,0,0,95.51,51c2,6.12,8.28,11.41,8.28,11.41s1.88-8-.14-14.1a13.27,13.27,0,0,0-7.18-8.05,10.12,10.12,0,0,0-.88,1.91.65.65,0,0,0-.19,0,.53.53,0,0,0-.12,1ZM67.46,97.07a13.25,13.25,0,0,0,6-9,13.28,13.28,0,0,0-10.63,1.81c-5.4,3.52-8.91,10.93-8.91,10.93S62.07,100.59,67.46,97.07Zm-3.72,7.14a.61.61,0,0,0-.61.61.61.61,0,1,0,1.22,0A.61.61,0,0,0,63.74,104.21Zm-35-6.5s11.12.22,18.66-4.21A17.93,17.93,0,0,0,56,81.69a17.66,17.66,0,0,0-10.64.06,1.2,1.2,0,0,0-2.25.58,1.28,1.28,0,0,0,0,.27,16.68,16.68,0,0,0-1.68.86C33.93,87.89,28.69,97.71,28.69,97.71Zm8.43-15A1.16,1.16,0,1,0,36,81.5,1.16,1.16,0,0,0,37.12,82.66Zm40.6-5.24a17.89,17.89,0,0,0,11.56-8.86,17.9,17.9,0,0,0-14.37-2.37c-8.44,2.11-16.19,10-16.19,10S69.28,79.53,77.72,77.42ZM89.47,53.13a17.88,17.88,0,0,0-12.18-8c-8.57-1.48-18.85,2.61-18.85,2.61s8.31,7.32,16.88,8.8A17.89,17.89,0,0,0,89.47,53.13ZM59.58,41.65a1.14,1.14,0,1,0-1.13-1.14A1.14,1.14,0,0,0,59.58,41.65Zm6.74,2.76A1.37,1.37,0,1,0,65,43,1.37,1.37,0,0,0,66.32,44.41ZM88,15.86a.58.58,0,0,0,1.16,0,.58.58,0,0,0-1.16,0ZM75.56,10.93a18,18,0,0,0,.53,14.62c3.76,7.89,13.1,14,13.1,14s1.17-11.06-2.6-19A18,18,0,0,0,75.56,10.93Zm-4-7.58a1.7,1.7,0,1,0,1.7-1.7A1.71,1.71,0,0,0,71.54,3.35ZM49.33,30.05a13.23,13.23,0,0,0,8.55,6.57c6.25,1.56,14.07-.9,14.07-.9s-5.74-5.86-12-7.42A13.23,13.23,0,0,0,49.33,30.05ZM30.13,51.3a18,18,0,0,0,10.68-10c3.47-8,1.9-19,1.9-19S33.6,28.64,30.13,36.66A18,18,0,0,0,30.13,51.3ZM21.84,74.21s13.76,2.1,23.83-2.15A22.48,22.48,0,0,0,58.31,58.83,22.47,22.47,0,0,0,40,58.65C29.94,62.9,21.84,74.21,21.84,74.21Zm2.95,27.12a.56.56,0,1,0,.55.56A.56.56,0,0,0,24.79,101.33ZM23.56,48.12a.72.72,0,0,0,0,1.44.72.72,0,0,0,0-1.44Zm.7-5.55a.33.33,0,1,0,0-.66.33.33,0,0,0,0,.66ZM21,57.64a2,2,0,1,0,2-2A2,2,0,0,0,21,57.64ZM11.47,7a1.3,1.3,0,1,0-1.3-1.3A1.3,1.3,0,0,0,11.47,7ZM14.2,9.72a1.49,1.49,0,0,0-3,0,1.49,1.49,0,1,0,3,0Zm12,10.52A17.89,17.89,0,0,0,21.63,6.41a17.89,17.89,0,0,0-7,12.78c-.79,8.66,4.12,18.58,4.12,18.58S25.39,28.9,26.18,20.24ZM13.79,129.61a.64.64,0,1,0-.63.63A.63.63,0,0,0,13.79,129.61Zm9,2a1.07,1.07,0,1,0-1.07,1.07A1.07,1.07,0,0,0,22.74,131.65Zm6.66,3.66a1.93,1.93,0,1,0-1.92-1.92A1.92,1.92,0,0,0,29.4,135.31Zm2.66,4.37a.87.87,0,0,0-1.73,0,.87.87,0,1,0,1.73,0Zm22.34-30s-13.16-4.53-23.83-2.16A22.43,22.43,0,0,0,15.76,118.3a22.45,22.45,0,0,0,18,3.46C44.39,119.4,54.4,109.72,54.4,109.72Zm16.71,21.92a17.93,17.93,0,0,0-12-8.2c-8.54-1.63-18.9,2.28-18.9,2.28s8.18,7.46,16.73,9.1A17.9,17.9,0,0,0,71.11,131.64Zm12.65,2.14a1,1,0,1,0-1,1A1,1,0,0,0,83.76,133.78Zm2.8-1.25s-.43-11.12-5.29-18.39A18,18,0,0,0,69,106.21a18,18,0,0,0,2.62,14.4C76.45,127.88,86.56,132.53,86.56,132.53Zm1.86-19.09a1.13,1.13,0,1,0-1.13,1.12A1.13,1.13,0,0,0,88.42,113.44Zm3.09,8.8a1.24,1.24,0,1,0-1.24,1.23A1.24,1.24,0,0,0,91.51,122.24Zm11.12-35.12A22.46,22.46,0,0,0,110,70.38a16.39,16.39,0,0,0-2.72-.08,1.92,1.92,0,0,0,1.36-1.84,1.94,1.94,0,1,0-2.29,1.91,22.81,22.81,0,0,0-13.62,6.06C86.6,82.11,83,91.3,81.58,95.29a.91.91,0,0,0-.52-.16A1,1,0,0,0,81,97.21v0l.09,0h0a1.09,1.09,0,0,0,.44-.1C84.09,96.54,95.55,93.66,102.63,87.12Zm-1.43,54.52a.91.91,0,1,0-.91.91A.91.91,0,0,0,101.2,141.64Zm6-24.67a22.86,22.86,0,0,0-6.67-15,1.91,1.91,0,0,0-.8-3s0,0,0-.06a1.66,1.66,0,1,0-2.58,1.37,1.85,1.85,0,0,0-.07.48,2,2,0,0,0,.55,1.36,22.81,22.81,0,0,0-5,15.66c.6,10.91,8.53,22.35,8.53,22.35S107.86,127.89,107.25,117Zm6.63-4.4a.69.69,0,1,0-.69.69A.69.69,0,0,0,113.88,112.57Zm4.33-10.91c-2.31-6-8.82-11-8.82-11s-1.49,8.06.82,14.08a13.22,13.22,0,0,0,7.55,7.69A13.2,13.2,0,0,0,118.21,101.66Zm7.05-13.32s4.63-10.12,3.58-18.79A18,18,0,0,0,121.58,57a1.73,1.73,0,1,0-.23,0A18.09,18.09,0,0,0,117.28,71C118.34,79.63,125.26,88.34,125.26,88.34Zm8.08,7.84s-7.39,8.24-9,16.79a17.87,17.87,0,0,0,3.29,14.19,17.92,17.92,0,0,0,8.1-12.1C137.34,106.51,133.34,96.18,133.34,96.18ZM139,136a.76.76,0,0,0-1.52,0,.76.76,0,0,0,1.52,0Z"/><path class="cls-3" d="M95.94,5.91c7.57,4.28,18.64,3.88,18.64,3.88A48.53,48.53,0,0,0,107,0H89.61A18.24,18.24,0,0,0,95.94,5.91Z"/><path class="cls-4" d="M130.13,18.2a1.43,1.43,0,0,1,.22.74,1.41,1.41,0,0,1-.07.41,22.52,22.52,0,0,0,17.18-5.82A29.82,29.82,0,0,0,150,10.92V0h-8.7a29.47,29.47,0,0,0-3.56,2.7A22.75,22.75,0,0,0,130.13,18.2Z"/><path class="cls-4" d="M150,145.68a46,46,0,0,0-8.7,4.32H150Z"/><path class="cls-4" d="M59.93,21.3A22.45,22.45,0,0,0,57.39,3.18,28.83,28.83,0,0,0,55.12,0H54a1.47,1.47,0,0,1-1.45,1.26A1.48,1.48,0,0,1,51.05,0H40.84A36.8,36.8,0,0,0,45,10.76,22.48,22.48,0,0,0,59.93,21.3Z"/><path class="cls-4" d="M107.25,117c.61,10.92-6,23.16-6,23.16s-7.93-11.44-8.53-22.35a22.81,22.81,0,0,1,5-15.66,2,2,0,0,0,1.38.57,1.93,1.93,0,0,0,1.51-.74A22.86,22.86,0,0,1,107.25,117Zm-6.71,4.92a1.49,1.49,0,1,0-1.48,1.48A1.49,1.49,0,0,0,100.54,121.89Z"/><path class="cls-4" d="M39.31,137.52A61.43,61.43,0,0,0,40.84,150H51.05a1.46,1.46,0,0,1,1.46-1.7A1.48,1.48,0,0,1,54,149.78a1.5,1.5,0,0,1,0,.22h1.16C48.94,142.44,39.31,137.52,39.31,137.52Z"/><path class="cls-4" d="M0,0V10.92A47.53,47.53,0,0,0,6.78,0Z"/><path class="cls-4" d="M0,145.68V150H6.78a58.8,58.8,0,0,0,2.78-7.11A61.63,61.63,0,0,0,0,145.68Z"/><path class="cls-4" d="M16.07,63.29A22.47,22.47,0,0,0,8.52,46.62,35.12,35.12,0,0,0,0,41.11V58.44A22.41,22.41,0,0,0,16.07,63.29Z"/><path class="cls-4" d="M54.4,109.72s-10,9.68-20.68,12a22.45,22.45,0,0,1-18-3.46,22.43,22.43,0,0,1,14.81-10.74C41.24,105.19,54.4,109.72,54.4,109.72ZM25.94,120.2a.86.86,0,0,0-1.72,0,.86.86,0,0,0,1.72,0Zm8.09-.34a.72.72,0,1,0-.72.72A.72.72,0,0,0,34,119.86Z"/><path class="cls-4" d="M110,70.38a16.39,16.39,0,0,0-2.72-.08,1.91,1.91,0,0,1-.58.1,2.07,2.07,0,0,1-.35,0,22.81,22.81,0,0,0-13.62,6.06C86.6,82.11,83,91.3,81.58,95.29a1,1,0,0,1,.53.89,1.05,1.05,0,0,1-.61.95c2.59-.59,14-3.47,21.13-10A22.46,22.46,0,0,0,110,70.38Z"/><path class="cls-4" d="M81,97.24l.09,0H81Z"/><path class="cls-4" d="M99.57,29a19.61,19.61,0,0,1,5.24-.69,1.91,1.91,0,0,0-.1.58,1.8,1.8,0,1,0,3.59,0,2,2,0,0,0,0-.34,23,23,0,0,1,9.34,3.55c9.15,6,15.09,18.57,15.09,18.57s-13.91-.4-23-6.39A22.46,22.46,0,0,1,99.57,29Zm28.22,15.88a.45.45,0,1,0,.45-.44A.45.45,0,0,0,127.79,44.88Zm-10.47-5.32a.86.86,0,1,0,1.71,0,.85.85,0,0,0-.85-.85A.86.86,0,0,0,117.32,39.56Z"/><path class="cls-4" d="M45.67,72.06A22.48,22.48,0,0,0,58.31,58.83,22.47,22.47,0,0,0,40,58.65C29.94,62.9,21.84,74.21,21.84,74.21S35.6,76.31,45.67,72.06Z"/><path class="cls-4" d="M136.76,36.69A61,61,0,0,1,150,41.11V58.44c-.42-.33-.84-.67-1.26-1C140.65,50.05,136.76,36.69,136.76,36.69Zm9.06,12.73a1,1,0,0,0,1.9,0,.95.95,0,0,0-1.9,0Z"/><path class="cls-5" d="M127.64,7.41A17.13,17.13,0,0,0,129,0h-11A17.86,17.86,0,0,0,127.64,7.41Z"/><path class="cls-5" d="M127.36,142.78A18.28,18.28,0,0,1,129,150h-11a19.26,19.26,0,0,1-1.31-2.39c-3.63-8-2.27-19-2.27-19S123.73,134.82,127.36,142.78Zm-10-4.13a.78.78,0,0,0-.78-.78.78.78,0,0,0,0,1.56A.78.78,0,0,0,117.35,138.65Z"/><path class="cls-5" d="M5.1,114.88c4.94-7.21,5.49-18.33,5.49-18.33A48.3,48.3,0,0,0,0,103.38v16.54A18.37,18.37,0,0,0,5.1,114.88Z"/><path class="cls-5" d="M145.49,108.31a18,18,0,0,0-2.77,14.37,17.05,17.05,0,0,0,7.28-2.76V103.38A26.7,26.7,0,0,0,145.49,108.31Z"/><path class="cls-5" d="M33,0H22.79A47.58,47.58,0,0,0,34.08,7.73,48.75,48.75,0,0,0,33,0Z"/><path class="cls-5" d="M16.61,131.33a18,18,0,0,0,2.56,14.41A25.28,25.28,0,0,0,22.79,150H33a32,32,0,0,0-4.16-10.68A18,18,0,0,0,16.61,131.33Z"/><path class="cls-5" d="M40.81,41.29c3.47-8,1.9-19,1.9-19S33.6,28.64,30.13,36.66a18,18,0,0,0,0,14.64A18,18,0,0,0,40.81,41.29Z"/><path class="cls-5" d="M47.35,93.5A17.93,17.93,0,0,0,56,81.69a17.66,17.66,0,0,0-10.64.06,1.13,1.13,0,0,1,.17.58,1.21,1.21,0,0,1-1.21,1.21,1.19,1.19,0,0,1-1.16-.94,16.68,16.68,0,0,0-1.68.86c-7.54,4.43-12.78,14.25-12.78,14.25S39.81,97.93,47.35,93.5Z"/><path class="cls-5" d="M128.84,69.55A18,18,0,0,0,121.58,57a1.73,1.73,0,1,0-.23,0A18.09,18.09,0,0,0,117.28,71c1.06,8.68,8,17.39,8,17.39S129.89,78.22,128.84,69.55Z"/><path class="cls-5" d="M76.09,25.55c3.76,7.89,13.1,14,13.1,14s1.17-11.06-2.6-19a18,18,0,0,0-11-9.61A18,18,0,0,0,76.09,25.55Z"/><path class="cls-5" d="M69,106.21a18,18,0,0,0,2.62,14.4c4.86,7.27,15,11.92,15,11.92s-.43-11.12-5.29-18.39A18,18,0,0,0,69,106.21Z"/><path class="cls-6" d="M70.49,1.52a13.46,13.46,0,0,0,8-1.52H65.41a.7.7,0,0,1,0,.14A20.14,20.14,0,0,0,70.49,1.52Z"/><path class="cls-6" d="M71.47,143c-6.4-.73-13.83,2.73-13.83,2.73a36.25,36.25,0,0,0,5.6,3.45,1.17,1.17,0,0,1,1-.61,1.19,1.19,0,0,1,1.2,1.19,1.69,1.69,0,0,1,0,.24H78.49a11.23,11.23,0,0,0,2.32-1.61A13.22,13.22,0,0,0,71.47,143Z"/><path class="cls-6" d="M73.41,88.07a13.28,13.28,0,0,0-10.63,1.81c-5.4,3.52-8.91,10.93-8.91,10.93s8.2-.22,13.59-3.74A13.25,13.25,0,0,0,73.41,88.07Z"/><path class="cls-6" d="M95.51,51c2,6.12,8.28,11.41,8.28,11.41s1.88-8-.14-14.1a13.27,13.27,0,0,0-7.18-8.05,10.12,10.12,0,0,0-.88,1.91.65.65,0,0,0-.19,0,.53.53,0,0,0-.12,1A13.35,13.35,0,0,0,95.51,51Z"/><path class="cls-6" d="M115.33,22.3a13.22,13.22,0,0,0,8.82-6.2,13.23,13.23,0,0,0-10.55-2.2c-6.31,1.3-12.29,6.91-12.29,6.91S109,23.6,115.33,22.3Z"/><path class="cls-6" d="M11,136.67a13.23,13.23,0,0,0-7.89-7.35,16.93,16.93,0,0,0-3.1-.77v8.75l.23.1A13.27,13.27,0,0,0,11,136.67Z"/><path class="cls-6" d="M139,128.86s5,6.21,11,8.44v-8.75A34.44,34.44,0,0,0,139,128.86Z"/><path class="cls-6" d="M118.21,101.66a13.2,13.2,0,0,1-.45,10.77,13.22,13.22,0,0,1-7.55-7.69c-2.31-6-.82-14.08-.82-14.08S115.9,95.65,118.21,101.66Zm-3.32,4.22a.3.3,0,0,0-.6,0,.3.3,0,1,0,.6,0Zm3-1.13a.71.71,0,1,0-.71.71A.71.71,0,0,0,117.92,104.75Z"/><path class="cls-6" d="M0,67.81v4.31A36.59,36.59,0,0,0,3.14,67.8S1.87,67.73,0,67.81Z"/><path class="cls-6" d="M132.53,78.73a13.24,13.24,0,0,0,10.75-.85A24,24,0,0,0,150,72.12V67.81c-2.9.14-7.28.66-10.74,2.5A13.24,13.24,0,0,0,132.53,78.73Z"/><path class="cls-6" d="M1.6,25.49a13.87,13.87,0,0,0-1.6-1v9.93A35.07,35.07,0,0,0,9.74,37S6.74,29.36,1.6,25.49Z"/><path class="cls-6" d="M57.88,36.62c6.25,1.56,14.07-.9,14.07-.9s-5.74-5.86-12-7.42a13.23,13.23,0,0,0-10.64,1.75A13.23,13.23,0,0,0,57.88,36.62Z"/><path class="cls-6" d="M141.11,23a13.25,13.25,0,0,0,5.33,9.38,18.2,18.2,0,0,0,3.56,2V24.46A13.17,13.17,0,0,0,141.11,23Z"/><path class="cls-3" d="M77.72,77.42c-8.44,2.11-19-1.21-19-1.21s7.75-7.91,16.19-10a17.9,17.9,0,0,1,14.37,2.37A17.89,17.89,0,0,1,77.72,77.42Zm-6-3.38a.56.56,0,1,0-.56.56A.56.56,0,0,0,71.68,74Z"/><path class="cls-3" d="M101.64,145.83a17.9,17.9,0,0,0-14.48-1.54A16.62,16.62,0,0,0,89.61,150H107A26.59,26.59,0,0,0,101.64,145.83Z"/><path class="cls-3" d="M26.18,20.24c-.79,8.66-7.41,17.53-7.41,17.53s-4.91-9.92-4.12-18.58a17.89,17.89,0,0,1,7-12.78A17.89,17.89,0,0,1,26.18,20.24Zm-6,11.15a1.67,1.67,0,1,0-1.67,1.68A1.67,1.67,0,0,0,20.2,31.39Z"/><path class="cls-3" d="M89.47,53.13a17.89,17.89,0,0,1-14.15,3.43c-8.57-1.48-16.88-8.8-16.88-8.8s10.28-4.09,18.85-2.61A17.88,17.88,0,0,1,89.47,53.13ZM64,49.62a1.08,1.08,0,1,0-1.07,1.07A1.07,1.07,0,0,0,64,49.62Z"/><path class="cls-3" d="M59.07,123.44c-8.54-1.63-18.9,2.28-18.9,2.28s8.18,7.46,16.73,9.1a17.9,17.9,0,0,0,14.21-3.18A17.93,17.93,0,0,0,59.07,123.44Z"/><path class="cls-3" d="M124.38,113a17.87,17.87,0,0,0,3.29,14.19,17.92,17.92,0,0,0,8.1-12.1c1.57-8.55-2.43-18.88-2.43-18.88S126,104.42,124.38,113Z"/><path class="cls-3" d="M0,92V82.85a26.37,26.37,0,0,1,6.55-2.44A17.92,17.92,0,0,1,20.82,83.3,17.9,17.9,0,0,1,9,91.74,29,29,0,0,1,0,92Zm9.83-3.34a1.82,1.82,0,1,0,1.81-1.82A1.81,1.81,0,0,0,9.83,88.68ZM3.72,85.94A1.77,1.77,0,1,0,2,84.17,1.77,1.77,0,0,0,3.72,85.94Z"/><path class="cls-3" d="M150,92V88.1a1,1,0,0,1,0-1.91V82.85a48.26,48.26,0,0,0-10,7A48.52,48.52,0,0,0,150,92Z"/><path class="cls-6" d="M44.31,83.54a1.21,1.21,0,0,0,1.21-1.21,1.13,1.13,0,0,0-.17-.58,1.2,1.2,0,0,0-2.25.58,1.28,1.28,0,0,0,0,.27A1.19,1.19,0,0,0,44.31,83.54Z"/><path class="cls-6" d="M82.11,96.18a1,1,0,0,0-.53-.89.91.91,0,0,0-.52-.16A1,1,0,0,0,81,97.21h.09a1.09,1.09,0,0,0,.44-.1A1.05,1.05,0,0,0,82.11,96.18Z"/><path class="cls-6" d="M112.66,62.33a1.2,1.2,0,1,0,1.19-1.2A1.19,1.19,0,0,0,112.66,62.33Z"/><path class="cls-6" d="M126.53,97.48a1.76,1.76,0,1,0,1.76-1.76A1.76,1.76,0,0,0,126.53,97.48Z"/><path class="cls-6" d="M107.3,70.3a1.92,1.92,0,0,0,1.36-1.84,1.94,1.94,0,1,0-2.29,1.91,2.07,2.07,0,0,0,.35,0A1.91,1.91,0,0,0,107.3,70.3Z"/><path class="cls-6" d="M146.77,50.37a.95.95,0,1,0-1-.95A.95.95,0,0,0,146.77,50.37Z"/><path class="cls-6" d="M149.26,87.14a1,1,0,0,0,.74,1V86.19A1,1,0,0,0,149.26,87.14Z"/><path class="cls-6" d="M128.24,45.33a.45.45,0,1,0-.45-.45A.45.45,0,0,0,128.24,45.33Z"/><path class="cls-6" d="M118.18,40.42a.86.86,0,0,0,.85-.86.85.85,0,0,0-.85-.85.86.86,0,1,0,0,1.71Z"/><path class="cls-6" d="M101.35,24.38a1,1,0,1,0,1-1A1,1,0,0,0,101.35,24.38Z"/><path class="cls-6" d="M106.5,30.69a1.81,1.81,0,0,0,1.8-1.8,2,2,0,0,0,0-.34,1.79,1.79,0,0,0-3.45-.24,1.91,1.91,0,0,0-.1.58A1.8,1.8,0,0,0,106.5,30.69Z"/><path class="cls-6" d="M62.94,48.54A1.08,1.08,0,1,0,64,49.62,1.08,1.08,0,0,0,62.94,48.54Z"/><path class="cls-6" d="M71.12,73.49a.56.56,0,1,0,.56.55A.55.55,0,0,0,71.12,73.49Z"/><path class="cls-6" d="M21,57.64a2,2,0,1,0,2-2A2,2,0,0,0,21,57.64Z"/><path class="cls-6" d="M18.53,29.72a1.68,1.68,0,1,0,1.67,1.67A1.67,1.67,0,0,0,18.53,29.72Z"/><circle class="cls-6" cx="24.26" cy="42.24" r="0.33"/><circle class="cls-6" cx="23.56" cy="48.84" r="0.72"/><path class="cls-6" d="M5.49,84.17a1.77,1.77,0,1,0-1.77,1.77A1.77,1.77,0,0,0,5.49,84.17Z"/><path class="cls-6" d="M11.64,90.49a1.82,1.82,0,1,0-1.81-1.81A1.81,1.81,0,0,0,11.64,90.49Z"/><path class="cls-6" d="M25.08,119.34a.86.86,0,1,0,.86.86A.86.86,0,0,0,25.08,119.34Z"/><path class="cls-6" d="M31.2,138.82a.87.87,0,1,0,.86.86A.86.86,0,0,0,31.2,138.82Z"/><path class="cls-6" d="M33.31,119.14a.72.72,0,1,0,.72.72A.72.72,0,0,0,33.31,119.14Z"/><path class="cls-6" d="M52.51,148.3a1.46,1.46,0,0,0-1.46,1.7H54a1.5,1.5,0,0,0,0-.22A1.48,1.48,0,0,0,52.51,148.3Z"/><path class="cls-6" d="M52.51,1.26A1.47,1.47,0,0,0,54,0H51.05A1.48,1.48,0,0,0,52.51,1.26Z"/><path class="cls-6" d="M31.33,133.39a1.93,1.93,0,1,0-1.93,1.92A1.92,1.92,0,0,0,31.33,133.39Z"/><path class="cls-6" d="M90.27,121a1.24,1.24,0,1,0,1.24,1.24A1.24,1.24,0,0,0,90.27,121Z"/><path class="cls-6" d="M113.19,111.88a.69.69,0,1,0,.69.69A.69.69,0,0,0,113.19,111.88Z"/><path class="cls-6" d="M116.57,137.87a.78.78,0,0,0,0,1.56.78.78,0,0,0,0-1.56Z"/><path class="cls-6" d="M138.24,135.27a.75.75,0,0,0-.76.75.76.76,0,0,0,1.52,0A.75.75,0,0,0,138.24,135.27Z"/><path class="cls-5" d="M24.23,101.89a.56.56,0,1,0,.56-.56A.56.56,0,0,0,24.23,101.89Z"/><circle class="cls-5" cx="7.79" cy="114.3" r="0.65"/><path class="cls-5" d="M13.16,129a.64.64,0,0,0-.64.64.64.64,0,1,0,.64-.64Z"/><path class="cls-5" d="M21.67,130.59a1.07,1.07,0,0,0,0,2.13,1.07,1.07,0,1,0,0-2.13Z"/><path class="cls-5" d="M64.26,148.57a1.27,1.27,0,0,0-1.2,1.19.93.93,0,0,0,0,.24h2.3a1.69,1.69,0,0,0,0-.24A1.19,1.19,0,0,0,64.26,148.57Z"/><path class="cls-5" d="M64.26,1A1.19,1.19,0,0,0,65.38.14a.7.7,0,0,0,0-.14h-2.3A1.18,1.18,0,0,0,64.26,1Z"/><circle class="cls-5" cx="82.77" cy="133.78" r="0.99"/><path class="cls-5" d="M99.07,102.69A1.93,1.93,0,0,0,99.78,99s0,0,0-.06a1.66,1.66,0,1,0-2.58,1.37,1.85,1.85,0,0,0-.07.48,1.91,1.91,0,0,0,1.93,1.93Z"/><path class="cls-5" d="M117.21,104a.71.71,0,1,0,.71.71A.71.71,0,0,0,117.21,104Z"/><path class="cls-5" d="M99.06,120.4a1.49,1.49,0,1,0,0,3,1.49,1.49,0,0,0,0-3Z"/><path class="cls-5" d="M87.29,112.31a1.13,1.13,0,1,0,1.13,1.13A1.13,1.13,0,0,0,87.29,112.31Z"/><path class="cls-5" d="M100.29,140.73a.91.91,0,1,0,.91.91A.91.91,0,0,0,100.29,140.73Z"/><path class="cls-5" d="M63.13,104.82a.61.61,0,1,0,1.22,0,.61.61,0,1,0-1.22,0Z"/><path class="cls-5" d="M37.12,82.66A1.16,1.16,0,1,0,36,81.5,1.16,1.16,0,0,0,37.12,82.66Z"/><path class="cls-5" d="M114.59,105.58a.31.31,0,0,0-.3.3.3.3,0,1,0,.6,0A.31.31,0,0,0,114.59,105.58Z"/><path class="cls-5" d="M130.13,18.2a1.39,1.39,0,1,0,.15,1.15,1.41,1.41,0,0,0,.07-.41A1.43,1.43,0,0,0,130.13,18.2Z"/><circle class="cls-5" cx="88.56" cy="15.86" r="0.58"/><path class="cls-5" d="M67.7,43a1.38,1.38,0,1,0-1.38,1.37A1.37,1.37,0,0,0,67.7,43Z"/><path class="cls-5" d="M60.72,40.51a1.14,1.14,0,1,0-1.14,1.14A1.14,1.14,0,0,0,60.72,40.51Z"/><circle class="cls-5" cx="73.24" cy="3.35" r="1.7"/><path class="cls-5" d="M12.77,5.69A1.3,1.3,0,1,0,11.47,7,1.3,1.3,0,0,0,12.77,5.69Z"/><circle class="cls-5" cx="12.72" cy="9.72" r="1.48"/><path class="cls-5" d="M6.4,12.54A1.57,1.57,0,1,0,8,14.1,1.56,1.56,0,0,0,6.4,12.54Z"/></pattern></defs><title>leaves</title><polygon class="cls-7" points="300 0 150 0 0 0 0 150 0 300 0 450 150 450 300 450 450 450 450 300 450 150 450 0 300 0"/></svg>