<svg id="Layer_1" data-name="Layer 1" xmlns="http://www.w3.org/2000/svg" viewBox="0 0 500 500"><defs><style>.cls-1{fill:#693d40;}</style></defs><title>Artboard 4</title><path class="cls-1" d="M250,0C111.93,0,0,111.93,0,250S111.93,500,250,500,500,388.07,500,250,388.07,0,250,0ZM183.07,367.25H130.35V209h52.72ZM156.71,187.38h-.32c-17.73,0-29.07-12.14-29.07-27.32,0-15.49,11.82-27.31,29.71-27.31,18.05,0,29.23,11.82,29.39,27.31C186.58,175.24,175.08,187.38,156.71,187.38Zm216,179.87H320.13V282.59c0-21.25-7.67-35.78-26.68-35.78-14.54,0-23.16,9.74-27,19.16a39.89,39.89,0,0,0-1.75,12.94v88.34H212.14c.64-143.45,0-158.3,0-158.3H264.7v22.5c6.93-10.84,19.44-26.18,47.44-26.18,34.67,0,60.54,22.69,60.54,71.25Z"/></svg>