<svg id="_ÎÓÈ_2" data-name="—ÎÓÈ_2" xmlns="http://www.w3.org/2000/svg" viewBox="0 0 1200 1200"><defs><style>.cls-1{fill:#fff;}.cls-2{fill:#683d40;}</style></defs><title>pattern3</title><rect class="cls-1" width="1200" height="1200"/><path class="cls-2" d="M88.42,99.12c2.21,2.34,5.74-1.2,3.53-3.53L10.05,9C7.84,6.62,4.3,10.16,6.51,12.5Q47.48,55.8,88.42,99.12Z"/><path class="cls-2" d="M91.14,191.85,7.29,97.21c-2.13-2.42-5.66,1.13-3.53,3.53q41.93,47.33,83.84,94.64C89.74,197.8,93.26,194.25,91.14,191.85Z"/><path class="cls-2" d="M12.24,54.89a809.47,809.47,0,0,0,68.93,90.93c2.12,2.43,5.65-1.12,3.53-3.53A800.13,800.13,0,0,1,16.56,52.36C14.81,49.68,10.47,52.18,12.24,54.89Z"/><path class="cls-2" d="M12.13,142.91c-2.15-2.4-5.68,1.14-3.54,3.54l79.64,89c2.15,2.4,5.67-1.14,3.53-3.54Q52,187.41,12.13,142.91Z"/><path class="cls-2" d="M86.88,278.18c2,2.49,5.56-1.07,3.54-3.54A866,866,0,0,0,9.23,188.43c-2.36-2.18-5.91,1.34-3.54,3.53A867.17,867.17,0,0,1,86.88,278.18Z"/><path class="cls-2" d="M88.09,325.55c2,2.48,5.57-1.07,3.54-3.53a800.33,800.33,0,0,0-78.78-82.58c-2.38-2.16-5.93,1.37-3.54,3.54A798.16,798.16,0,0,1,88.09,325.55Z"/><path class="cls-2" d="M87.34,363.32,11.6,290.07c-2.31-2.24-5.85,1.29-3.53,3.53L83.8,366.86C86.11,369.1,89.65,365.57,87.34,363.32Z"/><path class="cls-2" d="M89.45,407.55l-75-69.7c-2.36-2.19-5.9,1.34-3.54,3.54l75,69.69C88.27,413.27,91.82,409.74,89.45,407.55Z"/><path class="cls-2" d="M95.22,451.77a963.2,963.2,0,0,0-82.51-72.13c-2.51-1.95-6.07,1.56-3.54,3.54a963.33,963.33,0,0,1,82.52,72.13C94,457.56,97.53,454,95.22,451.77Z"/><path class="cls-2" d="M103.55,503.1,15.39,423.65C13,421.5,9.46,425,11.85,427.19L100,506.64C102.4,508.79,106,505.26,103.55,503.1Z"/><path class="cls-2" d="M86.26,529c2.69,1.78,5.2-2.55,2.52-4.32A813,813,0,0,1,14,468.64c-2.44-2.07-6,1.45-3.54,3.53A824.05,824.05,0,0,0,86.26,529Z"/><path class="cls-2" d="M15.23,503l73.6,58.42c2.49,2,6-1.54,3.53-3.54L18.77,499.48C16.27,497.5,12.71,501,15.23,503Z"/><path class="cls-2" d="M92.82,605.21,16.66,536.28c-2.38-2.16-5.93,1.37-3.53,3.53l76.15,68.94C91.66,610.9,95.21,607.38,92.82,605.21Z"/><path class="cls-2" d="M17.75,576.6l69.89,64.08c2.37,2.18,5.92-1.35,3.54-3.53l-69.9-64.08C18.91,570.89,15.37,574.42,17.75,576.6Z"/><path class="cls-2" d="M92.24,673.07l-77.8-68.93c-2.4-2.13-5.95,1.39-3.53,3.53l77.8,68.94C91.11,678.74,94.66,675.21,92.24,673.07Z"/><path class="cls-2" d="M7.08,635.56C4.47,633.67,2,638,4.56,639.87a900.52,900.52,0,0,1,83.67,68.54c2.36,2.18,5.9-1.34,3.53-3.53A906.88,906.88,0,0,0,7.08,635.56Z"/><path class="cls-2" d="M90.47,828.52c2.24,2.32,5.78-1.22,3.54-3.53A1006.82,1006.82,0,0,0,5,743.32c-2.48-2-6,1.5-3.54,3.54A1008.24,1008.24,0,0,1,90.47,828.52Z"/><path class="cls-2" d="M93.07,880.27Q51.48,837.7,9.89,795.11c-2.25-2.3-5.79,1.23-3.54,3.54l83.18,85.16C91.78,886.12,95.32,882.58,93.07,880.27Z"/><path class="cls-2" d="M89.09,926.57c2.32,2.24,5.86-1.3,3.53-3.53L6.52,840.13c-2.11-2-5.23.72-4,2.92L0,844.35V850q3.09-1.62,6.21-3.19Z"/><path class="cls-2" d="M88.62,965.58c2.45,2.06,6-1.46,3.54-3.54L6.08,889.53c-2.44-2.06-6,1.45-3.53,3.53Z"/><path class="cls-2" d="M8.19,937.1,97,1013.28c2.44,2.08,6-1.44,3.54-3.54l-88.8-76.17C9.29,931.48,5.74,935,8.19,937.1Z"/><path class="cls-2" d="M97.94,1043.77,11.57,975.82c-2.5-2-6.06,1.54-3.53,3.53l86.36,68C96.9,1049.28,100.47,1045.76,97.94,1043.77Z"/><path class="cls-2" d="M12,1018c-2.47-2-6,1.5-3.53,3.53l79,64.63c2.47,2,6-1.5,3.54-3.54Z"/><path class="cls-2" d="M95.41,1130.82,5.65,1052.7c-2.41-2.11-6,1.41-3.53,3.53l89.76,78.13C94.3,1136.46,97.85,1132.94,95.41,1130.82Z"/><path class="cls-2" d="M95.91,1166.2,9.18,1104.29c-2.62-1.87-5.12,2.46-2.52,4.32l86.73,61.9C96,1172.39,98.51,1168.05,95.91,1166.2Z"/><path class="cls-2" d="M8.91,1147.36,66.82,1200h7.43l-61.81-56.18C10.07,1141.66,6.52,1145.19,8.91,1147.36Z"/><path class="cls-2" d="M1.27,1182.71q9.12,8.7,18.34,17.29h7.32q-11.13-10.34-22.12-20.83C2.48,1177-1.06,1180.48,1.27,1182.71Z"/><path class="cls-2" d="M95.59,19.4,74.25,0H66.82L92.05,22.93C94.43,25.09,98,21.57,95.59,19.4Z"/><path class="cls-2" d="M89.88,56.21Q57.86,28.72,26.93,0H19.6Q52.36,30.56,86.35,59.75C88.78,61.83,92.33,58.31,89.88,56.21Z"/><path class="cls-2" d="M312.66,743.7l87.34-64v-6.16l-89.86,65.86C307.57,741.27,310.06,745.61,312.66,743.7Z"/><path class="cls-2" d="M303.46,793.6,400,720.05v-6.24l-99.07,75.47C298.41,791.21,300.89,795.55,303.46,793.6Z"/><path class="cls-2" d="M304.6,912.06A583.74,583.74,0,0,1,400,850v-5.61a590.53,590.53,0,0,0-98.93,64.18C298.56,910.54,302.11,914.06,304.6,912.06Z"/><path class="cls-2" d="M106.94,117A930.92,930.92,0,0,1,192.7,39.82c2.52-2-1-5.52-3.53-3.53a928.07,928.07,0,0,0-85.76,77.2C101.15,115.79,104.69,119.33,106.94,117Z"/><path class="cls-2" d="M183,78.09l-78.15,70.8c-2.39,2.17,1.16,5.69,3.54,3.54l78.15-70.8C189,79.46,185.43,75.94,183,78.09Z"/><path class="cls-2" d="M105,198.31A1026,1026,0,0,1,182.1,119.8c2.38-2.18-1.16-5.71-3.54-3.54a1029.66,1029.66,0,0,0-77.14,78.51C99.3,197.18,102.82,200.73,105,198.31Z"/><path class="cls-2" d="M100.49,242.84l82.12-88.24c2.19-2.35-1.33-5.9-3.53-3.53L97,239.3C94.76,241.66,98.29,245.2,100.49,242.84Z"/><path class="cls-2" d="M179.35,195.67l-79.21,78.14c-2.3,2.26,1.24,5.8,3.53,3.53l79.21-78.13C185.17,196.94,181.64,193.41,179.35,195.67Z"/><path class="cls-2" d="M108.86,322.19,191.33,239c2.27-2.29-1.27-5.83-3.54-3.54l-82.47,83.2C103.05,321,106.59,324.48,108.86,322.19Z"/><path class="cls-2" d="M102.05,370.38l95.55-90.47c2.34-2.22-1.2-5.75-3.53-3.54L98.51,366.84C96.17,369.06,99.71,372.59,102.05,370.38Z"/><path class="cls-2" d="M193.37,335.05,113.5,412.17c-2.32,2.24,1.21,5.77,3.53,3.54l79.88-77.13C199.23,336.34,195.69,332.81,193.37,335.05Z"/><path class="cls-2" d="M193.51,385.52l-78.89,77.09c-2.31,2.25,1.23,5.79,3.53,3.54l78.9-77.1C199.35,386.8,195.82,383.27,193.51,385.52Z"/><path class="cls-2" d="M105.14,518.41a1019.3,1019.3,0,0,0,86.77-80.5c2.23-2.32-1.3-5.87-3.53-3.54a1016.3,1016.3,0,0,1-86.78,80.5C99.12,516.92,102.67,520.44,105.14,518.41Z"/><path class="cls-2" d="M183.81,482.84q-35.92,31.09-73.61,60c-2.51,1.93,0,6.28,2.53,4.32q38.19-29.31,74.61-60.82C189.78,484.27,186.23,480.75,183.81,482.84Z"/><path class="cls-2" d="M106.42,570.66c-2.73,1.7-.22,6,2.52,4.32l90.51-56.38c2.73-1.7.22-6-2.52-4.32Z"/><path class="cls-2" d="M99.39,629.7a579,579,0,0,0,98.25-74.06c2.36-2.21-1.18-5.74-3.53-3.54a572.74,572.74,0,0,1-97.25,73.28C94.1,627,96.62,631.36,99.39,629.7Z"/><path class="cls-2" d="M195,589.77,111,664.34c-2.41,2.14,1.13,5.67,3.53,3.54l84.09-74.57C201,591.17,197.44,587.64,195,589.77Z"/><path class="cls-2" d="M196.42,625.44,107.36,706c-2.39,2.16,1.15,5.69,3.53,3.53L200,629C202.34,626.81,198.8,623.28,196.42,625.44Z"/><path class="cls-2" d="M112.73,751.46q39-35.4,78-70.78c2.39-2.17-1.16-5.69-3.54-3.53l-78,70.77C106.8,750.09,110.35,753.61,112.73,751.46Z"/><path class="cls-2" d="M105.83,793.1l-.78,2.14c-.9,2.5,2.47,4,4.18,2.43l85.21-77.19c2.39-2.17-1.15-5.7-3.53-3.54l-82.22,74.49A2.55,2.55,0,0,0,105.83,793.1Z"/><ellipse class="cls-2" cx="148.76" cy="795.9" rx="8621.98" ry="2.5" transform="translate(-491.43 300.18) rotate(-41.66)"/><path class="cls-2" d="M183.94,800.26l-79,74.91c-2.34,2.22,1.2,5.74,3.54,3.53l1.34-1.26v0l77.7-73.63C189.82,801.58,186.28,798.05,183.94,800.26Z"/><path class="cls-2" d="M198.32,826,112.2,905.81c-2.37,2.19,1.17,5.72,3.53,3.53l86.12-79.79C204.22,827.36,200.68,823.83,198.32,826Z"/><path class="cls-2" d="M196.85,872.52l-81.44,79.23c-2.31,2.25,1.23,5.78,3.54,3.54l81.43-79.23C202.69,873.81,199.16,870.28,196.85,872.52Z"/><path class="cls-2" d="M108,996l91.32-79.4c2.43-2.11-1.12-5.64-3.53-3.53l-91.32,79.4C102,994.54,105.56,998.07,108,996Z"/><path class="cls-2" d="M201.24,966.83l-89.79,68.5c-2.53,1.93,0,6.27,2.52,4.32l89.79-68.51C206.28,969.22,203.8,964.87,201.24,966.83Z"/><path class="cls-2" d="M196.36,1010.91l-99.18,71.88c-2.58,1.87-.08,6.21,2.53,4.32l99.18-71.88C201.47,1013.36,199,1009,196.36,1010.91Z"/><path class="cls-2" d="M200.19,1049.61l-85,73.63c-2.44,2.11,1.11,5.63,3.54,3.54l85-73.63C206.16,1051,202.61,1047.52,200.19,1049.61Z"/><path class="cls-2" d="M198.21,1091l-92.34,67.08c-2.57,1.87-.08,6.21,2.53,4.32l92.33-67.08C203.31,1093.48,200.82,1089.14,198.21,1091Z"/><path class="cls-2" d="M198.3,1125.8,104.69,1200h8l89.15-70.67C204.36,1127.33,200.8,1123.82,198.3,1125.8Z"/><path class="cls-2" d="M204.21,1158l-51,42h7.82l46.7-38.52C210.23,1159.43,206.68,1155.91,204.21,1158Z"/><path class="cls-2" d="M194.07,1192.79q-4.27,3.59-8.51,7.21h7.71c1.44-1.22,2.88-2.46,4.33-3.67C200.07,1194.25,196.52,1190.73,194.07,1192.79Z"/><path class="cls-2" d="M107.75,3.92,112.69,0h-8l-.48.38C101.69,2.38,105.25,5.9,107.75,3.92Z"/><path class="cls-2" d="M136.17,20.52,161.05,0h-7.82L132.64,17C130.15,19,133.71,22.55,136.17,20.52Z"/><path class="cls-2" d="M114.59,71.31q38.1-37,78.68-71.31h-7.71q-38.34,32.67-74.51,67.77C108.74,70,112.28,73.55,114.59,71.31Z"/><path class="cls-2" d="M214.48,879.47c-2.5-2-6.06,1.53-3.54,3.53l60.78,48.15c2.5,2,6.06-1.54,3.54-3.54Z"/><path class="cls-2" d="M210.62,1191.36l7,8.64H224l-9.84-12.18C212.13,1185.32,208.61,1188.88,210.62,1191.36Z"/><path class="cls-2" d="M293,128.57c2,2.54,5.48-1,3.54-3.54L210.11,13.35c-2-2.54-5.48,1-3.53,3.54Z"/><path class="cls-2" d="M282.39,155.05c2.19,2.36,5.72-1.18,3.54-3.54L209.52,69c-2.19-2.36-5.72,1.18-3.54,3.54Z"/><path class="cls-2" d="M292.19,205.31l-81.77-81.23c-2.28-2.27-5.82,1.26-3.53,3.53l81.76,81.24C290.94,211.12,294.47,207.58,292.19,205.31Z"/><path class="cls-2" d="M214.92,164.1c-2.17-2.39-5.7,1.15-3.54,3.53a589.33,589.33,0,0,0,77.94,71.77c2.55,2,5-2.38,2.52-4.32A581,581,0,0,1,214.92,164.1Z"/><path class="cls-2" d="M291,276.91c2.39,2.14,5.94-1.38,3.53-3.53l-83.39-74.57c-2.39-2.13-5.94,1.39-3.53,3.54Z"/><path class="cls-2" d="M292.47,315.51c2.31,2.24,5.85-1.29,3.53-3.54l-83.89-81.59c-2.31-2.24-5.85,1.29-3.54,3.54Z"/><path class="cls-2" d="M209.4,277.55,291.51,365c2.21,2.36,5.74-1.19,3.54-3.53L212.94,274C210.73,271.66,207.2,275.2,209.4,277.55Z"/><path class="cls-2" d="M285.37,394c2.43,2.08,6-1.44,3.54-3.54l-76.72-65.66c-2.43-2.08-6,1.44-3.54,3.54Z"/><path class="cls-2" d="M215.56,360.88c-2.45-2.05-6,1.47-3.54,3.54l73.45,61.46c2.45,2.05,6-1.46,3.54-3.53Z"/><path class="cls-2" d="M293.29,483.71c2.28,2.27,5.82-1.27,3.53-3.54l-84.52-84c-2.29-2.27-5.82,1.26-3.54,3.53Z"/><path class="cls-2" d="M211,448.57A541.38,541.38,0,0,1,313.9,534.62c2.19,2.35,5.72-1.19,3.53-3.54A546.44,546.44,0,0,0,213.5,444.25C210.78,442.51,208.27,446.83,211,448.57Z"/><path class="cls-2" d="M209.66,481.36l74.83,58.43c2.51,2,6.07-1.55,3.54-3.53l-74.84-58.43C210.69,475.87,207.12,479.38,209.66,481.36Z"/><path class="cls-2" d="M290.25,580.75c2.41,2.11,6-1.42,3.54-3.54l-78.68-68.87c-2.41-2.11-6,1.41-3.53,3.54Z"/><path class="cls-2" d="M291.56,620.4c2.39,2.15,5.94-1.38,3.53-3.53l-88.56-79.43c-2.39-2.14-5.94,1.38-3.54,3.54Z"/><path class="cls-2" d="M211.25,587.75l95.66,86.32c2.38,2.15,5.93-1.37,3.53-3.53l-95.65-86.33C212.4,582.06,208.86,585.58,211.25,587.75Z"/><path class="cls-2" d="M221.07,623.82c-2.4-2.12-5.95,1.4-3.53,3.54l66,58.5c2.4,2.12,5.95-1.4,3.54-3.54Z"/><path class="cls-2" d="M209.75,663.19l68.8,61.16c2.4,2.13,5.95-1.4,3.54-3.54l-68.81-61.16C210.89,657.52,207.34,661,209.75,663.19Z"/><path class="cls-2" d="M274.87,739.26c-6.44-5.54-12.93-11-19.39-16.53l-40.79-34.8c-2.44-2.07-6,1.45-3.54,3.54L250.43,725q9.82,8.38,19.65,16.76c5.72,4.89,11.31,9.8,15.05,16.44,1.58,2.8,5.9.28,4.32-2.52C285.78,749.13,280.48,744.1,274.87,739.26Z"/><path class="cls-2" d="M212.8,721.79c-2.64-1.86-5.14,2.48-2.53,4.32a434.62,434.62,0,0,1,75.37,67.8c2.13,2.42,5.65-1.13,3.54-3.53A440.48,440.48,0,0,0,212.8,721.79Z"/><path class="cls-2" d="M295.83,828.05l-85.36-69.68c-2.47-2-6,1.5-3.53,3.53l85.35,69.68C294.76,833.6,298.32,830.09,295.83,828.05Z"/><path class="cls-2" d="M212.39,790.08c-2.49-2-6.06,1.53-3.53,3.53q39.46,31.29,78.95,62.56c2.49,2,6.05-1.53,3.53-3.53Q251.87,821.35,212.39,790.08Z"/><path class="cls-2" d="M311.29,931.71,209.12,830.89c-2.3-2.27-5.84,1.27-3.54,3.53L307.75,935.24C310,937.5,313.58,934,311.29,931.71Z"/><path class="cls-2" d="M280.77,976.83,210.88,918.7c-2.46-2.05-6,1.47-3.54,3.53l69.89,58.14C279.69,982.41,283.25,978.89,280.77,976.83Z"/><path class="cls-2" d="M287.55,1028.5c2.07,2.47,5.59-1.08,3.54-3.53A429.63,429.63,0,0,0,212,951.77c-2.62-1.88-5.12,2.46-2.53,4.32A424.52,424.52,0,0,1,287.55,1028.5Z"/><path class="cls-2" d="M298.27,1069.23l-84.06-81.42c-2.31-2.24-5.85,1.29-3.54,3.53l84.06,81.43C297.05,1075,300.59,1071.48,298.27,1069.23Z"/><path class="cls-2" d="M296.12,1108.9l-77.06-69.5c-2.38-2.15-5.93,1.38-3.53,3.54l77,69.49C295,1114.58,298.51,1111.06,296.12,1108.9Z"/><path class="cls-2" d="M214.4,1074.15l88.73,78.24c2.4,2.12,5.95-1.4,3.53-3.54l-88.73-78.24C215.53,1068.49,212,1072,214.4,1074.15Z"/><path class="cls-2" d="M216.72,1103.82c-2.35-2.19-5.9,1.33-3.54,3.54q37.37,34.88,74.72,69.76c2.35,2.19,5.9-1.33,3.54-3.54Z"/><path class="cls-2" d="M217.25,1141.25,277.81,1200H285l-64.2-62.29C218.48,1135.47,214.94,1139,217.25,1141.25Z"/><path class="cls-2" d="M215.11,1172.39,242.59,1200h7.06l-31-31.15C216.38,1166.57,212.84,1170.1,215.11,1172.39Z"/><path class="cls-2" d="M291.34,6.16,285,0h-7.18l10,9.7C290.11,11.94,293.65,8.41,291.34,6.16Z"/><path class="cls-2" d="M279.75,30.25q-15-15.13-30.1-30.25h-7.06l33.63,33.78C278.49,36.07,282,32.53,279.75,30.25Z"/><path class="cls-2" d="M255,38.42,224,0H217.6q17,21,33.91,42C253.53,44.45,257.05,40.9,255,38.42Z"/><path class="cls-2" d="M296.75,104.75,398.81,5.32c2.31-2.25-1.23-5.78-3.54-3.53L293.21,101.21C290.9,103.46,294.44,107,296.75,104.75Z"/><path class="cls-2" d="M308.69,122.67q42.87-41.39,85.76-82.75c2.32-2.24-1.22-5.77-3.54-3.54Q348,77.76,305.15,119.13C302.83,121.37,306.37,124.9,308.69,122.67Z"/><path class="cls-2" d="M302.65,156.52l80-71.43c2.41-2.14-1.14-5.67-3.53-3.53l-80,71.42C296.71,155.13,300.26,158.66,302.65,156.52Z"/><path class="cls-2" d="M391.42,121.34a698.07,698.07,0,0,0-87.07,82.5c-2.13,2.4,1.4,5.95,3.54,3.54A696.65,696.65,0,0,1,395,124.88C397.47,122.87,393.92,119.36,391.42,121.34Z"/><path class="cls-2" d="M299.48,250.49l89.8-84.74c2.34-2.21-1.2-5.75-3.54-3.54L295.94,247C293.6,249.17,297.14,252.7,299.48,250.49Z"/><path class="cls-2" d="M387.06,202.58l-81.19,79.31c-2.3,2.25,1.23,5.78,3.54,3.53l81.19-79.3C392.91,203.87,389.37,200.33,387.06,202.58Z"/><path class="cls-2" d="M375.81,257.83l-85.76,87.22c-2.26,2.3,1.28,5.84,3.54,3.54q42.87-43.62,85.76-87.23C381.61,259.07,378.07,255.53,375.81,257.83Z"/><path class="cls-2" d="M301.94,378.44c-1.93,2.57,2.41,5.07,4.31,2.52A540.07,540.07,0,0,1,400,283.87v-6.34A544.54,544.54,0,0,0,301.94,378.44Z"/><path class="cls-2" d="M396.74,320.18,299.63,422.63c-2.22,2.34,1.31,5.88,3.53,3.54L400,324v-3.95A2.25,2.25,0,0,0,396.74,320.18Z"/><path class="cls-2" d="M308.09,455.06,400,377.82v-6.5l-95.44,80.2C302.09,453.6,305.64,457.12,308.09,455.06Z"/><path class="cls-2" d="M304.25,506.19,400,420.58v-6.7l-99.29,88.77C298.31,504.8,301.86,508.33,304.25,506.19Z"/><path class="cls-2" d="M331.09,520.05,400,464.38V458l-72.44,58.53C325.06,518.54,328.61,522.06,331.09,520.05Z"/><path class="cls-2" d="M305.58,571.89,400,505.7v-6.08l-96.95,68C300.44,569.41,302.93,573.75,305.58,571.89Z"/><path class="cls-2" d="M312.43,614.21,400,548.77v-6.2l-90.1,67.32C307.35,611.8,309.84,616.14,312.43,614.21Z"/><path class="cls-2" d="M307,652.22l2.72-1.56a2.39,2.39,0,0,0,1.05-1.15L400,585.13h0V579l-95.48,68.93C302,649.75,304.2,653.86,307,652.22Z"/><path class="cls-2" d="M325,673.44l75-52.11v-6.07l-77.56,53.87C319.81,671,322.31,675.29,325,673.44Z"/><path class="cls-2" d="M299.94,719.69,400,651.44v-6l-102.58,70C294.78,717.18,297.28,721.51,299.94,719.69Z"/><path class="cls-2" d="M304.9,836.37c-2.38,2.17,1.16,5.7,3.54,3.53L400,756.51v-6.69a2.55,2.55,0,0,0-.38.29Z"/><path class="cls-2" d="M304.79,862.65l3-2a2.58,2.58,0,0,0,.87-1L400,788.84v-6.28l-98.24,76.16C299.53,860.45,302.45,864.23,304.79,862.65Z"/><path class="cls-2" d="M322.64,879.69,400,825.16v-6.09l-79.89,56.31C317.51,877.22,320,881.55,322.64,879.69Z"/><path class="cls-2" d="M328,939l72-51.72v-6.13l-74.51,53.53C322.9,936.55,325.39,940.89,328,939Z"/><path class="cls-2" d="M397.31,920.47q-49.5,27.54-97,58.5c-2.68,1.75-.18,6.08,2.53,4.32q47.43-30.94,97-58.51l.17-.11v-4A2.32,2.32,0,0,0,397.31,920.47Z"/><path class="cls-2" d="M302.13,1028.2q45-38.22,93.39-72.1c2.62-1.83.12-6.17-2.52-4.32q-48.87,34.23-94.4,72.88C296.14,1026.75,299.69,1030.27,302.13,1028.2Z"/><path class="cls-2" d="M393.24,985.15l-94,68.05c-2.58,1.87-.08,6.21,2.53,4.32l94-68C398.34,987.6,395.85,983.26,393.24,985.15Z"/><path class="cls-2" d="M397.24,1025.67l-94.45,70.74c-2.55,1.91-.06,6.25,2.52,4.32L399.76,1030c.09-.07.16-.15.24-.22v-3.92A2,2,0,0,0,397.24,1025.67Z"/><path class="cls-2" d="M397.39,1063.26l-86.05,61.42c-2.6,1.85-.11,6.19,2.52,4.32l86.06-61.43.08-.07v-4.21A2,2,0,0,0,397.39,1063.26Z"/><path class="cls-2" d="M304.58,1170.84A795.48,795.48,0,0,0,400,1107.78v-6.28a787.53,787.53,0,0,1-97.94,65C299.25,1168.1,301.77,1172.42,304.58,1170.84Z"/><path class="cls-2" d="M311.93,1195.81q44-27.16,88.07-54.31v-5.87l-90.6,55.86C306.67,1193.17,309.18,1197.5,311.93,1195.81Z"/><path class="cls-2" d="M400,1161.92,348.12,1200h8.41L400,1168.09Z"/><path class="cls-2" d="M400,1186.38a2.07,2.07,0,0,0-1.65.44L380.62,1200H389l11.05-8.21Z"/><path class="cls-2" d="M335.8,15.21,356.53,0h-8.41L333.28,10.9C330.71,12.78,333.2,17.12,335.8,15.21Z"/><path class="cls-2" d="M304.24,63,389,0h-8.33l-78.9,58.64C299.16,60.54,301.65,64.88,304.24,63Z"/><path class="cls-2" d="M4.52,274c-1.52,1.18-3,2.38-4.52,3.57v6.34q4-3.22,8.06-6.37C10.6,275.53,7,272,4.52,274Z"/><path class="cls-2" d="M0,320.06V324l.27-.29A2.46,2.46,0,0,0,0,320.06Z"/><path class="cls-2" d="M12.18,361.08,0,371.32v6.5l15.72-13.21C18.18,362.54,14.63,359,12.18,361.08Z"/><path class="cls-2" d="M5,409.44l-5,4.44v6.7L8.51,413C10.91,410.83,7.36,407.3,5,409.44Z"/><path class="cls-2" d="M2.51,456,0,458v6.39l6.05-4.89C8.55,457.47,5,454,2.51,456Z"/><path class="cls-2" d="M4.82,496.24,0,499.62v6.08l7.34-5.14C10,498.72,7.46,494.39,4.82,496.24Z"/><path class="cls-2" d="M6.35,537.83,0,542.57v6.2l8.88-6.63C11.42,540.24,8.93,535.9,6.35,537.83Z"/><path class="cls-2" d="M3.58,584.47,5.31,581c1-2-1.23-5-3.42-3.42L0,579v6.15A2.26,2.26,0,0,0,3.58,584.47Z"/><path class="cls-2" d="M7.63,610,0,615.26v6.07l10.15-7.05C12.78,612.46,10.28,608.12,7.63,610Z"/><path class="cls-2" d="M.64,645,0,645.4v6l3.16-2.16C5.8,647.48,3.31,643.14.64,645Z"/><path class="cls-2" d="M85.3,744.36c2.42,2.1,6-1.43,3.53-3.54L8.91,671.73a2.45,2.45,0,0,0-1.81-.63A2.05,2.05,0,0,0,4,670.56l-4,3v6.16l5.68-4.16Z"/><path class="cls-2" d="M5.12,716.76a716.53,716.53,0,0,1,83.4,71.72c2.27,2.29,5.81-1.25,3.53-3.53A723.17,723.17,0,0,0,8.82,713.33l3.71-2.82c2.52-1.93,0-6.27-2.53-4.32L0,713.81v6.24l4.75-3.62A2.35,2.35,0,0,0,5.12,716.76Z"/><path class="cls-2" d="M0,749.82v6.69l3.15-2.87C5.41,751.58,2.35,748.32,0,749.82Z"/><path class="cls-2" d="M.93,781.84l-.93.72v6.28l4.46-3.46C7,783.41,3.44,779.89.93,781.84Z"/><path class="cls-2" d="M.6,818.64l-.6.43v6.09L3.12,823C5.73,821.12,3.24,816.78.6,818.64Z"/><path class="cls-2" d="M.55,880.77l-.55.39v6.13l3.07-2.2C5.66,883.23,3.17,878.89.55,880.77Z"/><path class="cls-2" d="M0,920.67v4A2.43,2.43,0,0,0,0,920.67Z"/><path class="cls-2" d="M0,1025.85v3.92A2.77,2.77,0,0,0,0,1025.85Z"/><path class="cls-2" d="M0,1063.29v4.21A2.71,2.71,0,0,0,0,1063.29Z"/><path class="cls-2" d="M1.94,1100,0,1101.5v6.28c1.83-1.41,3.66-2.83,5.47-4.25C8,1101.55,4.44,1098,1.94,1100Z"/><path class="cls-2" d="M.44,1135.36l-.44.27v5.87l3-1.83C5.7,1138,3.19,1133.66.44,1135.36Z"/><path class="cls-2" d="M.84,1161.3l-.84.62v6.17l3.37-2.47C5.93,1163.73,3.44,1159.39.84,1161.3Z"/><path class="cls-2" d="M0,1186.38v5.41l.87-.65A2.72,2.72,0,0,0,0,1186.38Z"/><path class="cls-2" d="M488.42,99.12c2.21,2.34,5.74-1.2,3.53-3.53L410.05,9c-2.21-2.34-5.75,1.2-3.54,3.54Q447.48,55.8,488.42,99.12Z"/><path class="cls-2" d="M491.14,191.85,407.29,97.21c-2.13-2.42-5.66,1.13-3.53,3.53q41.92,47.33,83.84,94.64C489.74,197.8,493.26,194.25,491.14,191.85Z"/><path class="cls-2" d="M412.24,54.89a809.47,809.47,0,0,0,68.93,90.93c2.12,2.43,5.65-1.12,3.53-3.53a800.13,800.13,0,0,1-68.14-89.93C414.81,49.68,410.47,52.18,412.24,54.89Z"/><path class="cls-2" d="M412.13,142.91c-2.15-2.4-5.68,1.14-3.54,3.54l79.64,89c2.15,2.4,5.67-1.14,3.53-3.54Q452,187.41,412.13,142.91Z"/><path class="cls-2" d="M486.88,278.18c2,2.49,5.56-1.07,3.54-3.54a866,866,0,0,0-81.19-86.21c-2.36-2.18-5.91,1.34-3.54,3.53A867.17,867.17,0,0,1,486.88,278.18Z"/><path class="cls-2" d="M488.09,325.55c2.05,2.48,5.57-1.07,3.54-3.53a800.33,800.33,0,0,0-78.78-82.58c-2.38-2.16-5.93,1.37-3.54,3.54A798.16,798.16,0,0,1,488.09,325.55Z"/><path class="cls-2" d="M487.34,363.32,411.6,290.07c-2.31-2.24-5.85,1.29-3.53,3.53l75.73,73.26C486.11,369.1,489.65,365.57,487.34,363.32Z"/><path class="cls-2" d="M489.45,407.55l-75-69.7c-2.36-2.19-5.9,1.34-3.54,3.54l75,69.69C488.27,413.27,491.82,409.74,489.45,407.55Z"/><path class="cls-2" d="M495.22,451.77a963.2,963.2,0,0,0-82.51-72.13c-2.51-1.95-6.07,1.56-3.54,3.54a963.33,963.33,0,0,1,82.52,72.13C494,457.56,497.53,454,495.22,451.77Z"/><path class="cls-2" d="M503.55,503.1l-88.16-79.45c-2.39-2.15-5.93,1.38-3.54,3.54L500,506.64C502.4,508.79,506,505.26,503.55,503.1Z"/><path class="cls-2" d="M486.26,529c2.69,1.78,5.2-2.55,2.52-4.32A813,813,0,0,1,414,468.64c-2.44-2.07-6,1.45-3.54,3.53A824.05,824.05,0,0,0,486.26,529Z"/><path class="cls-2" d="M415.23,503l73.6,58.42c2.49,2,6.05-1.54,3.53-3.54l-73.59-58.42C416.27,497.5,412.71,501,415.23,503Z"/><path class="cls-2" d="M492.82,605.21l-76.16-68.93c-2.38-2.16-5.93,1.37-3.53,3.53l76.15,68.94C491.66,610.9,495.21,607.38,492.82,605.21Z"/><path class="cls-2" d="M417.75,576.6l69.89,64.08c2.37,2.18,5.92-1.35,3.54-3.53l-69.9-64.08C418.91,570.89,415.37,574.42,417.75,576.6Z"/><path class="cls-2" d="M492.24,673.07l-77.8-68.93c-2.4-2.13-5.95,1.39-3.53,3.53l77.8,68.94C491.11,678.74,494.66,675.21,492.24,673.07Z"/><path class="cls-2" d="M407.08,635.56c-2.61-1.89-5.11,2.44-2.52,4.31a900.52,900.52,0,0,1,83.67,68.54c2.36,2.18,5.9-1.34,3.53-3.53A906.88,906.88,0,0,0,407.08,635.56Z"/><path class="cls-2" d="M490.47,828.52c2.24,2.32,5.78-1.22,3.54-3.53a1006.82,1006.82,0,0,0-89-81.67c-2.48-2-6,1.5-3.54,3.54A1008.24,1008.24,0,0,1,490.47,828.52Z"/><path class="cls-2" d="M493.07,880.27q-41.6-42.57-83.18-85.16c-2.25-2.3-5.79,1.23-3.54,3.54l83.18,85.16C491.78,886.12,495.32,882.58,493.07,880.27Z"/><path class="cls-2" d="M489.09,926.57c2.32,2.24,5.86-1.3,3.53-3.53l-86.1-82.91c-2.11-2-5.23.72-4,2.92l-2.52,1.3V850q3.09-1.62,6.21-3.19Z"/><path class="cls-2" d="M488.62,965.58c2.45,2.06,6-1.46,3.54-3.54l-86.08-72.51c-2.44-2.06-6,1.45-3.53,3.53Z"/><path class="cls-2" d="M408.19,937.1,497,1013.28c2.44,2.08,6-1.44,3.54-3.54l-88.8-76.17C409.29,931.48,405.74,935,408.19,937.1Z"/><path class="cls-2" d="M497.94,1043.77l-86.37-67.95c-2.5-2-6.06,1.54-3.53,3.53l86.36,68C496.9,1049.28,500.47,1045.76,497.94,1043.77Z"/><path class="cls-2" d="M412,1018c-2.47-2-6,1.5-3.53,3.53l79,64.63c2.47,2,6-1.5,3.54-3.54Z"/><path class="cls-2" d="M495.41,1130.82l-89.76-78.12c-2.41-2.11-6,1.41-3.53,3.53l89.76,78.13C494.3,1136.46,497.85,1132.94,495.41,1130.82Z"/><path class="cls-2" d="M495.91,1166.2l-86.73-61.91c-2.62-1.87-5.12,2.46-2.52,4.32l86.73,61.9C496,1172.39,498.51,1168.05,495.91,1166.2Z"/><path class="cls-2" d="M408.91,1147.36,466.82,1200h7.43l-61.81-56.18C410.07,1141.66,406.52,1145.19,408.91,1147.36Z"/><path class="cls-2" d="M401.27,1182.71q9.12,8.7,18.34,17.29h7.32q-11.13-10.34-22.12-20.83C402.48,1177,398.94,1180.48,401.27,1182.71Z"/><path class="cls-2" d="M495.59,19.4,474.25,0h-7.43l25.23,22.93C494.43,25.09,498,21.57,495.59,19.4Z"/><path class="cls-2" d="M489.88,56.21Q457.85,28.72,426.93,0H419.6q32.76,30.56,66.75,59.75C488.78,61.83,492.33,58.31,489.88,56.21Z"/><path class="cls-2" d="M712.66,743.7l87.34-64v-6.16l-89.86,65.86C707.57,741.27,710.06,745.61,712.66,743.7Z"/><path class="cls-2" d="M703.46,793.6,800,720.05v-6.24l-99.07,75.47C698.41,791.21,700.89,795.55,703.46,793.6Z"/><path class="cls-2" d="M704.6,912.06A583.74,583.74,0,0,1,800,850v-5.61a590.53,590.53,0,0,0-98.93,64.18C698.56,910.54,702.11,914.06,704.6,912.06Z"/><path class="cls-2" d="M506.94,117A930.92,930.92,0,0,1,592.7,39.82c2.52-2-1-5.52-3.53-3.53a928.07,928.07,0,0,0-85.76,77.2C501.15,115.79,504.69,119.33,506.94,117Z"/><path class="cls-2" d="M583,78.09l-78.15,70.8c-2.39,2.17,1.16,5.69,3.54,3.54l78.15-70.8C589,79.46,585.43,75.94,583,78.09Z"/><path class="cls-2" d="M505,198.31A1026,1026,0,0,1,582.1,119.8c2.38-2.18-1.16-5.71-3.54-3.54a1029.66,1029.66,0,0,0-77.14,78.51C499.3,197.18,502.82,200.73,505,198.31Z"/><path class="cls-2" d="M500.49,242.84l82.12-88.24c2.19-2.35-1.33-5.9-3.53-3.53L497,239.3C494.76,241.66,498.29,245.2,500.49,242.84Z"/><path class="cls-2" d="M579.35,195.67l-79.21,78.14c-2.3,2.26,1.24,5.8,3.53,3.53l79.21-78.13C585.17,196.94,581.64,193.41,579.35,195.67Z"/><path class="cls-2" d="M508.86,322.19,591.33,239c2.27-2.29-1.27-5.83-3.54-3.54l-82.47,83.2C503.05,321,506.59,324.48,508.86,322.19Z"/><path class="cls-2" d="M502.05,370.38l95.55-90.47c2.34-2.22-1.2-5.75-3.53-3.54l-95.56,90.47C496.17,369.06,499.71,372.59,502.05,370.38Z"/><path class="cls-2" d="M593.37,335.05,513.5,412.17c-2.32,2.24,1.21,5.77,3.53,3.54l79.88-77.13C599.23,336.34,595.69,332.81,593.37,335.05Z"/><path class="cls-2" d="M593.51,385.52l-78.89,77.09c-2.31,2.25,1.23,5.79,3.53,3.54l78.9-77.1C599.35,386.8,595.82,383.27,593.51,385.52Z"/><path class="cls-2" d="M505.14,518.41a1019.3,1019.3,0,0,0,86.77-80.5c2.23-2.32-1.3-5.87-3.53-3.54a1016.3,1016.3,0,0,1-86.78,80.5C499.12,516.92,502.67,520.44,505.14,518.41Z"/><path class="cls-2" d="M583.81,482.84q-35.92,31.09-73.61,60c-2.51,1.93,0,6.28,2.53,4.32q38.19-29.31,74.61-60.82C589.78,484.27,586.23,480.75,583.81,482.84Z"/><path class="cls-2" d="M506.42,570.66c-2.73,1.7-.22,6,2.52,4.32l90.51-56.38c2.73-1.7.22-6-2.52-4.32Z"/><path class="cls-2" d="M499.39,629.7a579,579,0,0,0,98.25-74.06c2.36-2.21-1.18-5.74-3.53-3.54a572.74,572.74,0,0,1-97.25,73.28C494.1,627,496.62,631.36,499.39,629.7Z"/><path class="cls-2" d="M595,589.77,511,664.34c-2.41,2.14,1.13,5.67,3.53,3.54l84.09-74.57C601,591.17,597.44,587.64,595,589.77Z"/><path class="cls-2" d="M596.42,625.44,507.36,706c-2.39,2.16,1.15,5.69,3.53,3.53L600,629C602.34,626.81,598.8,623.28,596.42,625.44Z"/><path class="cls-2" d="M512.73,751.46q39-35.4,78-70.78c2.39-2.17-1.16-5.69-3.54-3.53l-78,70.77C506.8,750.09,510.35,753.61,512.73,751.46Z"/><path class="cls-2" d="M505.83,793.1l-.78,2.14c-.9,2.5,2.47,4,4.18,2.43l85.21-77.19c2.39-2.17-1.15-5.7-3.53-3.54l-82.22,74.49A2.55,2.55,0,0,0,505.83,793.1Z"/><ellipse class="cls-2" cx="548.76" cy="795.9" rx="8551.32" ry="2.5" transform="translate(-390.27 566.07) rotate(-41.66)"/><path class="cls-2" d="M583.94,800.26l-79.05,74.91c-2.34,2.22,1.2,5.74,3.54,3.53l1.34-1.26v0l77.7-73.63C589.82,801.58,586.28,798.05,583.94,800.26Z"/><path class="cls-2" d="M598.32,826,512.2,905.81c-2.37,2.19,1.17,5.72,3.53,3.53l86.12-79.79C604.22,827.36,600.68,823.83,598.32,826Z"/><path class="cls-2" d="M596.85,872.52l-81.44,79.23c-2.31,2.25,1.23,5.78,3.54,3.54l81.43-79.23C602.69,873.81,599.16,870.28,596.85,872.52Z"/><path class="cls-2" d="M508,996l91.32-79.4c2.43-2.11-1.12-5.64-3.53-3.53l-91.32,79.4C502,994.54,505.56,998.07,508,996Z"/><path class="cls-2" d="M601.24,966.83l-89.79,68.5c-2.53,1.93,0,6.27,2.52,4.32l89.79-68.51C606.28,969.22,603.8,964.87,601.24,966.83Z"/><path class="cls-2" d="M596.36,1010.91l-99.18,71.88c-2.58,1.87-.08,6.21,2.53,4.32l99.18-71.88C601.47,1013.36,599,1009,596.36,1010.91Z"/><path class="cls-2" d="M600.19,1049.61l-85,73.63c-2.44,2.11,1.11,5.63,3.54,3.54l85-73.63C606.16,1051,602.61,1047.52,600.19,1049.61Z"/><path class="cls-2" d="M598.21,1091l-92.34,67.08c-2.57,1.87-.08,6.21,2.53,4.32l92.33-67.08C603.31,1093.48,600.82,1089.14,598.21,1091Z"/><path class="cls-2" d="M598.3,1125.8,504.69,1200h8l89.15-70.67C604.36,1127.33,600.8,1123.82,598.3,1125.8Z"/><path class="cls-2" d="M604.21,1158l-51,42h7.82l46.7-38.52C610.23,1159.43,606.68,1155.91,604.21,1158Z"/><path class="cls-2" d="M594.07,1192.79q-4.27,3.59-8.51,7.21h7.71c1.44-1.22,2.88-2.46,4.33-3.67C600.07,1194.25,596.52,1190.73,594.07,1192.79Z"/><path class="cls-2" d="M507.75,3.92,512.69,0h-8l-.48.38C501.69,2.38,505.25,5.9,507.75,3.92Z"/><path class="cls-2" d="M536.17,20.52,561.05,0h-7.82L532.64,17C530.15,19,533.71,22.55,536.17,20.52Z"/><path class="cls-2" d="M514.59,71.31q38.1-37,78.68-71.31h-7.71q-38.34,32.67-74.51,67.77C508.74,70,512.28,73.55,514.59,71.31Z"/><path class="cls-2" d="M614.48,879.47c-2.5-2-6.06,1.53-3.54,3.53l60.78,48.15c2.5,2,6.06-1.54,3.54-3.54Z"/><path class="cls-2" d="M610.62,1191.36l7,8.64H624l-9.84-12.18C612.13,1185.32,608.61,1188.88,610.62,1191.36Z"/><path class="cls-2" d="M693,128.57c2,2.54,5.48-1,3.54-3.54L610.11,13.35c-2-2.54-5.48,1-3.53,3.54Z"/><path class="cls-2" d="M682.39,155.05c2.19,2.36,5.72-1.18,3.54-3.54L609.52,69c-2.19-2.36-5.72,1.18-3.54,3.54Z"/><path class="cls-2" d="M692.19,205.31l-81.77-81.23c-2.28-2.27-5.82,1.26-3.53,3.53l81.76,81.24C690.94,211.12,694.47,207.58,692.19,205.31Z"/><path class="cls-2" d="M614.92,164.1c-2.17-2.39-5.7,1.15-3.54,3.53a589.33,589.33,0,0,0,77.94,71.77c2.55,2,5-2.38,2.52-4.32A581,581,0,0,1,614.92,164.1Z"/><path class="cls-2" d="M691,276.91c2.39,2.14,5.94-1.38,3.53-3.53l-83.39-74.57c-2.39-2.13-5.94,1.39-3.53,3.54Z"/><path class="cls-2" d="M692.47,315.51c2.31,2.24,5.85-1.29,3.53-3.54l-83.89-81.59c-2.31-2.24-5.85,1.29-3.54,3.54Z"/><path class="cls-2" d="M609.4,277.55,691.51,365c2.21,2.36,5.74-1.19,3.54-3.53L612.94,274C610.73,271.66,607.2,275.2,609.4,277.55Z"/><path class="cls-2" d="M685.37,394c2.43,2.08,6-1.44,3.54-3.54q-38.37-32.82-76.72-65.66c-2.43-2.08-6,1.44-3.54,3.54Z"/><path class="cls-2" d="M615.56,360.88c-2.45-2.05-6,1.47-3.54,3.54l73.45,61.46c2.45,2.05,6-1.46,3.54-3.53Z"/><path class="cls-2" d="M693.29,483.71c2.28,2.27,5.82-1.27,3.53-3.54l-84.52-84c-2.29-2.27-5.82,1.26-3.54,3.53Z"/><path class="cls-2" d="M611,448.57A541.38,541.38,0,0,1,713.9,534.62c2.19,2.35,5.72-1.19,3.53-3.54A546.44,546.44,0,0,0,613.5,444.25C610.78,442.51,608.27,446.83,611,448.57Z"/><path class="cls-2" d="M609.66,481.36l74.83,58.43c2.51,2,6.07-1.55,3.54-3.53l-74.84-58.43C610.69,475.87,607.12,479.38,609.66,481.36Z"/><path class="cls-2" d="M690.25,580.75c2.41,2.11,6-1.42,3.54-3.54l-78.68-68.87c-2.41-2.11-6,1.41-3.53,3.54Z"/><path class="cls-2" d="M691.56,620.4c2.39,2.15,5.94-1.38,3.53-3.53l-88.56-79.43c-2.39-2.14-5.94,1.38-3.54,3.54Z"/><path class="cls-2" d="M611.25,587.75l95.66,86.32c2.38,2.15,5.93-1.37,3.53-3.53l-95.65-86.33C612.4,582.06,608.86,585.58,611.25,587.75Z"/><path class="cls-2" d="M621.07,623.82c-2.4-2.12-6,1.4-3.53,3.54l66,58.5c2.4,2.12,6-1.4,3.54-3.54Z"/><path class="cls-2" d="M609.75,663.19l68.8,61.16c2.4,2.13,6-1.4,3.54-3.54l-68.81-61.16C610.89,657.52,607.34,661,609.75,663.19Z"/><path class="cls-2" d="M674.87,739.26c-6.44-5.54-12.93-11-19.39-16.53l-40.79-34.8c-2.44-2.07-6,1.45-3.54,3.54L650.43,725q9.83,8.38,19.65,16.76c5.72,4.89,11.31,9.8,15,16.44,1.58,2.8,5.9.28,4.32-2.52C685.78,749.13,680.48,744.1,674.87,739.26Z"/><path class="cls-2" d="M612.8,721.79c-2.64-1.86-5.14,2.48-2.53,4.32a434.62,434.62,0,0,1,75.37,67.8c2.13,2.42,5.65-1.13,3.53-3.53A440,440,0,0,0,612.8,721.79Z"/><path class="cls-2" d="M695.83,828.05l-85.36-69.68c-2.47-2-6,1.5-3.53,3.53l85.35,69.68C694.76,833.6,698.32,830.09,695.83,828.05Z"/><path class="cls-2" d="M612.39,790.08c-2.49-2-6.06,1.53-3.53,3.53q39.46,31.29,78.95,62.56c2.49,2,6.05-1.53,3.53-3.53Q651.88,821.35,612.39,790.08Z"/><path class="cls-2" d="M711.29,931.71,609.12,830.89c-2.3-2.27-5.84,1.27-3.54,3.53L707.75,935.24C710,937.5,713.58,934,711.29,931.71Z"/><path class="cls-2" d="M680.77,976.83,610.88,918.7c-2.46-2.05-6,1.47-3.54,3.53l69.89,58.14C679.69,982.41,683.25,978.89,680.77,976.83Z"/><path class="cls-2" d="M687.55,1028.5c2.07,2.47,5.59-1.08,3.54-3.53A429.63,429.63,0,0,0,612,951.77c-2.62-1.88-5.12,2.46-2.53,4.32A424.52,424.52,0,0,1,687.55,1028.5Z"/><path class="cls-2" d="M698.27,1069.23l-84.06-81.42c-2.31-2.24-5.85,1.29-3.54,3.53l84.06,81.43C697.05,1075,700.59,1071.48,698.27,1069.23Z"/><path class="cls-2" d="M696.12,1108.9l-77.06-69.5c-2.38-2.15-5.93,1.38-3.53,3.54l77.05,69.49C695,1114.58,698.51,1111.06,696.12,1108.9Z"/><path class="cls-2" d="M614.4,1074.15l88.73,78.24c2.4,2.12,6-1.4,3.53-3.54l-88.73-78.24C615.53,1068.49,612,1072,614.4,1074.15Z"/><path class="cls-2" d="M616.72,1103.82c-2.35-2.19-5.89,1.33-3.54,3.54q37.37,34.88,74.72,69.76c2.35,2.19,5.9-1.33,3.54-3.54Z"/><path class="cls-2" d="M617.25,1141.25,677.81,1200H685l-64.2-62.29C618.48,1135.47,614.94,1139,617.25,1141.25Z"/><path class="cls-2" d="M615.11,1172.39,642.59,1200h7.06l-31-31.15C616.38,1166.57,612.84,1170.1,615.11,1172.39Z"/><path class="cls-2" d="M691.34,6.16,685,0h-7.18l10,9.7C690.11,11.94,693.65,8.41,691.34,6.16Z"/><path class="cls-2" d="M679.75,30.25q-15-15.13-30.1-30.25h-7.06l33.63,33.78C678.49,36.07,682,32.53,679.75,30.25Z"/><path class="cls-2" d="M655,38.42,624,0H617.6q16.95,21,33.91,42C653.53,44.45,657.05,40.9,655,38.42Z"/><path class="cls-2" d="M696.75,104.75,798.81,5.32c2.31-2.25-1.23-5.78-3.54-3.53L693.21,101.21C690.9,103.46,694.44,107,696.75,104.75Z"/><path class="cls-2" d="M708.69,122.67q42.87-41.39,85.76-82.75c2.32-2.24-1.22-5.77-3.54-3.54Q748,77.76,705.15,119.13C702.83,121.37,706.37,124.9,708.69,122.67Z"/><path class="cls-2" d="M702.65,156.52l80-71.43c2.41-2.14-1.14-5.67-3.53-3.53l-80,71.42C696.71,155.13,700.26,158.66,702.65,156.52Z"/><path class="cls-2" d="M791.42,121.34a698.07,698.07,0,0,0-87.07,82.5c-2.13,2.4,1.4,5.95,3.54,3.54A696.65,696.65,0,0,1,795,124.88C797.47,122.87,793.92,119.36,791.42,121.34Z"/><path class="cls-2" d="M699.48,250.49l89.8-84.74c2.34-2.21-1.2-5.75-3.54-3.54L695.94,247C693.6,249.17,697.14,252.7,699.48,250.49Z"/><path class="cls-2" d="M787.06,202.58l-81.19,79.31c-2.3,2.25,1.23,5.78,3.54,3.53l81.19-79.3C792.91,203.87,789.37,200.33,787.06,202.58Z"/><path class="cls-2" d="M775.81,257.83l-85.76,87.22c-2.26,2.3,1.28,5.84,3.54,3.54q42.87-43.62,85.76-87.23C781.61,259.07,778.07,255.53,775.81,257.83Z"/><path class="cls-2" d="M701.94,378.44c-1.93,2.57,2.41,5.07,4.31,2.52A540.07,540.07,0,0,1,800,283.87v-6.34A544.54,544.54,0,0,0,701.94,378.44Z"/><path class="cls-2" d="M796.74,320.18,699.63,422.63c-2.22,2.34,1.31,5.88,3.53,3.54L800,324v-3.95A2.25,2.25,0,0,0,796.74,320.18Z"/><path class="cls-2" d="M708.09,455.06,800,377.82v-6.5l-95.44,80.2C702.09,453.6,705.64,457.12,708.09,455.06Z"/><path class="cls-2" d="M704.25,506.19,800,420.58v-6.7l-99.29,88.77C698.31,504.8,701.86,508.33,704.25,506.19Z"/><path class="cls-2" d="M731.09,520.05,800,464.38V458l-72.44,58.53C725.06,518.54,728.61,522.06,731.09,520.05Z"/><path class="cls-2" d="M705.58,571.89,800,505.7v-6.08l-97,68C700.44,569.41,702.93,573.75,705.58,571.89Z"/><path class="cls-2" d="M712.43,614.21,800,548.77v-6.2l-90.1,67.32C707.35,611.8,709.84,616.14,712.43,614.21Z"/><path class="cls-2" d="M707,652.22l2.72-1.56a2.39,2.39,0,0,0,1-1.15L800,585.13h0V579l-95.48,68.93C702,649.75,704.2,653.86,707,652.22Z"/><path class="cls-2" d="M725,673.44l75-52.11v-6.07l-77.56,53.87C719.81,671,722.31,675.29,725,673.44Z"/><path class="cls-2" d="M699.94,719.69,800,651.44v-6l-102.58,70C694.78,717.18,697.28,721.51,699.94,719.69Z"/><path class="cls-2" d="M704.9,836.37c-2.38,2.17,1.16,5.7,3.54,3.53L800,756.51v-6.69a2.55,2.55,0,0,0-.38.29Z"/><path class="cls-2" d="M704.79,862.65l3-2a2.58,2.58,0,0,0,.87-1L800,788.84v-6.28l-98.24,76.16C699.53,860.45,702.45,864.23,704.79,862.65Z"/><path class="cls-2" d="M722.64,879.69,800,825.16v-6.09l-79.89,56.31C717.5,877.22,720,881.55,722.64,879.69Z"/><path class="cls-2" d="M728,939l72-51.72v-6.13l-74.51,53.53C722.9,936.55,725.39,940.89,728,939Z"/><path class="cls-2" d="M797.31,920.47q-49.5,27.54-97,58.5c-2.68,1.75-.18,6.08,2.53,4.32q47.43-30.94,97-58.51l.17-.11v-4A2.32,2.32,0,0,0,797.31,920.47Z"/><path class="cls-2" d="M702.13,1028.2q45-38.22,93.39-72.1c2.62-1.83.12-6.17-2.52-4.32q-48.87,34.23-94.4,72.88C696.14,1026.75,699.69,1030.27,702.13,1028.2Z"/><path class="cls-2" d="M793.24,985.15l-94,68.05c-2.58,1.87-.08,6.21,2.53,4.32l94-68C798.34,987.6,795.85,983.26,793.24,985.15Z"/><path class="cls-2" d="M797.24,1025.67l-94.45,70.74c-2.54,1.91-.06,6.25,2.52,4.32L799.76,1030c.09-.07.16-.15.24-.22v-3.92A2,2,0,0,0,797.24,1025.67Z"/><path class="cls-2" d="M797.39,1063.26l-86,61.42c-2.6,1.85-.11,6.19,2.52,4.32l86.06-61.43.08-.07v-4.21A2,2,0,0,0,797.39,1063.26Z"/><path class="cls-2" d="M704.58,1170.84A795.48,795.48,0,0,0,800,1107.78v-6.28a787.53,787.53,0,0,1-97.94,65C699.25,1168.1,701.77,1172.42,704.58,1170.84Z"/><path class="cls-2" d="M711.93,1195.81q44-27.16,88.07-54.31v-5.87l-90.6,55.86C706.67,1193.17,709.18,1197.5,711.93,1195.81Z"/><path class="cls-2" d="M800,1161.92,748.12,1200h8.41L800,1168.09Z"/><path class="cls-2" d="M800,1186.38a2.07,2.07,0,0,0-1.65.44L780.62,1200H789l11-8.21Z"/><path class="cls-2" d="M735.8,15.21,756.53,0h-8.41L733.28,10.9C730.71,12.78,733.2,17.12,735.8,15.21Z"/><path class="cls-2" d="M704.24,63,789,0h-8.33l-78.9,58.64C699.16,60.54,701.65,64.88,704.24,63Z"/><path class="cls-2" d="M404.52,274c-1.52,1.18-3,2.38-4.52,3.57v6.34q4-3.22,8.06-6.37C410.6,275.53,407,272,404.52,274Z"/><path class="cls-2" d="M400,320.06V324l.27-.29A2.46,2.46,0,0,0,400,320.06Z"/><path class="cls-2" d="M412.18,361.08,400,371.32v6.5l15.72-13.21C418.18,362.54,414.63,359,412.18,361.08Z"/><path class="cls-2" d="M405,409.44l-5,4.44v6.7l8.51-7.61C410.91,410.83,407.36,407.3,405,409.44Z"/><path class="cls-2" d="M402.51,456,400,458v6.39l6.05-4.89C408.55,457.47,405,454,402.51,456Z"/><path class="cls-2" d="M404.82,496.24,400,499.62v6.08l7.34-5.14C410,498.72,407.46,494.39,404.82,496.24Z"/><path class="cls-2" d="M406.35,537.83,400,542.57v6.2l8.88-6.63C411.42,540.24,408.93,535.9,406.35,537.83Z"/><path class="cls-2" d="M403.58,584.47l1.73-3.43c1-2-1.23-5-3.42-3.42L400,579v6.15A2.26,2.26,0,0,0,403.58,584.47Z"/><path class="cls-2" d="M407.63,610,400,615.26v6.07l10.15-7.05C412.78,612.46,410.28,608.12,407.63,610Z"/><path class="cls-2" d="M400.64,645l-.64.44v6l3.16-2.16C405.8,647.48,403.31,643.14,400.64,645Z"/><path class="cls-2" d="M485.3,744.36c2.42,2.1,6-1.43,3.53-3.54l-79.92-69.09a2.45,2.45,0,0,0-1.81-.63,2.05,2.05,0,0,0-3.07-.54l-4,3v6.16l5.68-4.16Z"/><path class="cls-2" d="M405.12,716.76a716.53,716.53,0,0,1,83.4,71.72c2.27,2.29,5.81-1.25,3.53-3.53a723.17,723.17,0,0,0-83.23-71.62l3.71-2.82c2.52-1.93,0-6.27-2.53-4.32l-10,7.62v6.24l4.75-3.62A2.35,2.35,0,0,0,405.12,716.76Z"/><path class="cls-2" d="M400,749.82v6.69l3.15-2.87C405.41,751.58,402.35,748.32,400,749.82Z"/><path class="cls-2" d="M400.93,781.84l-.93.72v6.28l4.46-3.46C407,783.41,403.44,779.89,400.93,781.84Z"/><path class="cls-2" d="M400.6,818.64l-.6.43v6.09l3.12-2.2C405.73,821.12,403.24,816.78,400.6,818.64Z"/><path class="cls-2" d="M400.55,880.77l-.55.39v6.13l3.07-2.2C405.66,883.23,403.17,878.89,400.55,880.77Z"/><path class="cls-2" d="M400,920.67v4A2.43,2.43,0,0,0,400,920.67Z"/><path class="cls-2" d="M400,1025.85v3.92A2.77,2.77,0,0,0,400,1025.85Z"/><path class="cls-2" d="M400,1063.29v4.21A2.71,2.71,0,0,0,400,1063.29Z"/><path class="cls-2" d="M401.94,1100,400,1101.5v6.28c1.83-1.41,3.66-2.83,5.47-4.25C408,1101.55,404.44,1098,401.94,1100Z"/><path class="cls-2" d="M400.44,1135.36l-.44.27v5.87l3-1.83C405.7,1138,403.19,1133.66,400.44,1135.36Z"/><path class="cls-2" d="M400.84,1161.3l-.84.62v6.17l3.37-2.47C405.93,1163.73,403.44,1159.39,400.84,1161.3Z"/><path class="cls-2" d="M400,1186.38v5.41l.87-.65A2.72,2.72,0,0,0,400,1186.38Z"/><path class="cls-2" d="M888.42,99.12c2.21,2.34,5.74-1.2,3.53-3.53L810.05,9c-2.21-2.34-5.75,1.2-3.54,3.54Q847.48,55.8,888.42,99.12Z"/><path class="cls-2" d="M891.14,191.85,807.29,97.21c-2.13-2.42-5.66,1.13-3.53,3.53q41.93,47.33,83.84,94.64C889.74,197.8,893.26,194.25,891.14,191.85Z"/><path class="cls-2" d="M812.24,54.89a809.47,809.47,0,0,0,68.93,90.93c2.12,2.43,5.65-1.12,3.53-3.53a800.13,800.13,0,0,1-68.14-89.93C814.81,49.68,810.47,52.18,812.24,54.89Z"/><path class="cls-2" d="M812.13,142.91c-2.15-2.4-5.68,1.14-3.54,3.54l79.64,89c2.15,2.4,5.67-1.14,3.53-3.54Q852,187.41,812.13,142.91Z"/><path class="cls-2" d="M886.88,278.18c2,2.49,5.56-1.07,3.54-3.54a866,866,0,0,0-81.19-86.21c-2.36-2.18-5.91,1.34-3.54,3.53A867.17,867.17,0,0,1,886.88,278.18Z"/><path class="cls-2" d="M888.09,325.55c2,2.48,5.57-1.07,3.54-3.53a800.33,800.33,0,0,0-78.78-82.58c-2.38-2.16-5.93,1.37-3.54,3.54A798.16,798.16,0,0,1,888.09,325.55Z"/><path class="cls-2" d="M887.34,363.32,811.6,290.07c-2.31-2.24-5.85,1.29-3.53,3.53l75.73,73.26C886.11,369.1,889.65,365.57,887.34,363.32Z"/><path class="cls-2" d="M889.45,407.55l-75-69.7c-2.36-2.19-5.9,1.34-3.54,3.54l75,69.69C888.27,413.27,891.82,409.74,889.45,407.55Z"/><path class="cls-2" d="M895.22,451.77a963.2,963.2,0,0,0-82.51-72.13c-2.51-1.95-6.07,1.56-3.54,3.54a963.33,963.33,0,0,1,82.52,72.13C894,457.56,897.53,454,895.22,451.77Z"/><path class="cls-2" d="M903.55,503.1l-88.16-79.45c-2.39-2.15-5.93,1.38-3.54,3.54L900,506.64C902.4,508.79,906,505.26,903.55,503.1Z"/><path class="cls-2" d="M886.26,529c2.69,1.78,5.2-2.55,2.52-4.32A813,813,0,0,1,814,468.64c-2.44-2.07-6,1.45-3.54,3.53A824.05,824.05,0,0,0,886.26,529Z"/><path class="cls-2" d="M815.23,503l73.6,58.42c2.49,2,6-1.54,3.53-3.54l-73.59-58.42C816.27,497.5,812.71,501,815.23,503Z"/><path class="cls-2" d="M892.82,605.21l-76.16-68.93c-2.38-2.16-5.93,1.37-3.53,3.53l76.15,68.94C891.66,610.9,895.21,607.38,892.82,605.21Z"/><path class="cls-2" d="M817.75,576.6l69.89,64.08c2.37,2.18,5.92-1.35,3.54-3.53l-69.9-64.08C818.91,570.89,815.37,574.42,817.75,576.6Z"/><path class="cls-2" d="M892.24,673.07l-77.8-68.93c-2.4-2.13-6,1.39-3.53,3.53l77.8,68.94C891.11,678.74,894.66,675.21,892.24,673.07Z"/><path class="cls-2" d="M807.08,635.56c-2.61-1.89-5.11,2.44-2.52,4.31a900.52,900.52,0,0,1,83.67,68.54c2.36,2.18,5.9-1.34,3.53-3.53A906.88,906.88,0,0,0,807.08,635.56Z"/><path class="cls-2" d="M890.47,828.52c2.24,2.32,5.78-1.22,3.54-3.53a1006.82,1006.82,0,0,0-89-81.67c-2.48-2-6,1.5-3.54,3.54A1008.24,1008.24,0,0,1,890.47,828.52Z"/><path class="cls-2" d="M893.07,880.27q-41.6-42.57-83.18-85.16c-2.25-2.3-5.79,1.23-3.54,3.54l83.18,85.16C891.78,886.12,895.32,882.58,893.07,880.27Z"/><path class="cls-2" d="M889.09,926.57c2.32,2.24,5.86-1.3,3.53-3.53l-86.1-82.91c-2.11-2-5.23.72-4,2.92l-2.52,1.3V850q3.09-1.62,6.21-3.19Z"/><path class="cls-2" d="M888.62,965.58c2.45,2.06,6-1.46,3.54-3.54l-86.08-72.51c-2.44-2.06-6,1.45-3.53,3.53Z"/><path class="cls-2" d="M808.19,937.1,897,1013.28c2.44,2.08,6-1.44,3.54-3.54l-88.8-76.17C809.29,931.48,805.74,935,808.19,937.1Z"/><path class="cls-2" d="M897.94,1043.77l-86.37-67.95c-2.5-2-6.06,1.54-3.53,3.53l86.36,68C896.9,1049.28,900.47,1045.76,897.94,1043.77Z"/><path class="cls-2" d="M812,1018c-2.47-2-6,1.5-3.53,3.53l79,64.63c2.47,2,6-1.5,3.54-3.54Z"/><path class="cls-2" d="M895.42,1130.82l-89.77-78.12c-2.41-2.11-6,1.41-3.53,3.53l89.76,78.13C894.3,1136.46,897.85,1132.94,895.42,1130.82Z"/><path class="cls-2" d="M895.91,1166.2l-86.73-61.91c-2.62-1.87-5.12,2.46-2.52,4.32l86.73,61.9C896,1172.39,898.51,1168.05,895.91,1166.2Z"/><path class="cls-2" d="M808.91,1147.36,866.82,1200h7.43l-61.81-56.18C810.07,1141.66,806.52,1145.19,808.91,1147.36Z"/><path class="cls-2" d="M801.27,1182.71q9.12,8.7,18.34,17.29h7.32q-11.13-10.34-22.12-20.83C802.48,1177,798.94,1180.48,801.27,1182.71Z"/><path class="cls-2" d="M895.59,19.4,874.25,0h-7.43l25.23,22.93C894.43,25.09,898,21.57,895.59,19.4Z"/><path class="cls-2" d="M889.88,56.21q-32-27.49-63-56.21H819.6q32.76,30.56,66.75,59.75C888.78,61.83,892.33,58.31,889.88,56.21Z"/><path class="cls-2" d="M1112.66,743.7l87.34-64v-6.16l-89.86,65.86C1107.57,741.27,1110.06,745.61,1112.66,743.7Z"/><path class="cls-2" d="M1103.46,793.6,1200,720.05v-6.24l-99.07,75.47C1098.41,791.21,1100.89,795.55,1103.46,793.6Z"/><path class="cls-2" d="M1104.6,912.06A583.74,583.74,0,0,1,1200,850v-5.61a590.53,590.53,0,0,0-98.93,64.18C1098.56,910.54,1102.11,914.06,1104.6,912.06Z"/><path class="cls-2" d="M906.94,117A930.92,930.92,0,0,1,992.7,39.82c2.52-2-1-5.52-3.53-3.53a928.07,928.07,0,0,0-85.76,77.2C901.15,115.79,904.69,119.33,906.94,117Z"/><path class="cls-2" d="M983,78.09l-78.15,70.8c-2.39,2.17,1.16,5.69,3.54,3.54l78.15-70.8C989,79.46,985.42,75.94,983,78.09Z"/><path class="cls-2" d="M905,198.31A1026,1026,0,0,1,982.1,119.8c2.38-2.18-1.16-5.71-3.54-3.54a1029.66,1029.66,0,0,0-77.14,78.51C899.3,197.18,902.82,200.73,905,198.31Z"/><path class="cls-2" d="M900.49,242.84l82.12-88.24c2.19-2.35-1.33-5.9-3.53-3.53L897,239.3C894.76,241.66,898.29,245.2,900.49,242.84Z"/><path class="cls-2" d="M979.34,195.67l-79.2,78.14c-2.3,2.26,1.24,5.8,3.53,3.53l79.21-78.13C985.17,196.94,981.64,193.41,979.34,195.67Z"/><path class="cls-2" d="M908.86,322.19,991.33,239c2.27-2.29-1.27-5.83-3.54-3.54l-82.47,83.2C903.05,321,906.59,324.48,908.86,322.19Z"/><path class="cls-2" d="M902.05,370.38l95.55-90.47c2.34-2.22-1.2-5.75-3.53-3.54l-95.56,90.47C896.17,369.06,899.71,372.59,902.05,370.38Z"/><path class="cls-2" d="M993.37,335.05,913.5,412.17c-2.32,2.24,1.21,5.77,3.53,3.54l79.88-77.13C999.23,336.34,995.69,332.81,993.37,335.05Z"/><path class="cls-2" d="M993.51,385.52l-78.89,77.09c-2.31,2.25,1.23,5.79,3.53,3.54l78.9-77.1C999.35,386.8,995.82,383.27,993.51,385.52Z"/><path class="cls-2" d="M905.14,518.41a1019.3,1019.3,0,0,0,86.77-80.5c2.23-2.32-1.3-5.87-3.53-3.54a1016.3,1016.3,0,0,1-86.78,80.5C899.12,516.92,902.67,520.44,905.14,518.41Z"/><path class="cls-2" d="M983.81,482.84q-35.92,31.09-73.61,60c-2.51,1.93,0,6.28,2.53,4.32q38.19-29.31,74.61-60.82C989.78,484.27,986.23,480.75,983.81,482.84Z"/><path class="cls-2" d="M906.42,570.66c-2.73,1.7-.22,6,2.52,4.32l90.51-56.38c2.73-1.7.22-6-2.52-4.32Z"/><path class="cls-2" d="M899.39,629.7a579,579,0,0,0,98.25-74.06c2.36-2.21-1.18-5.74-3.53-3.54a572.74,572.74,0,0,1-97.25,73.28C894.1,627,896.62,631.36,899.39,629.7Z"/><path class="cls-2" d="M995,589.77,911,664.34c-2.41,2.14,1.13,5.67,3.53,3.54l84.09-74.57C1001,591.17,997.44,587.64,995,589.77Z"/><path class="cls-2" d="M996.42,625.44,907.36,706c-2.39,2.16,1.15,5.69,3.53,3.53L1000,629C1002.34,626.81,998.8,623.28,996.42,625.44Z"/><path class="cls-2" d="M912.73,751.46q39-35.4,78-70.78c2.39-2.17-1.16-5.69-3.54-3.53l-78,70.77C906.8,750.09,910.35,753.61,912.73,751.46Z"/><path class="cls-2" d="M905.83,793.1l-.78,2.14c-.9,2.5,2.47,4,4.18,2.43l85.21-77.19c2.39-2.17-1.15-5.7-3.53-3.54l-82.22,74.49A2.55,2.55,0,0,0,905.83,793.1Z"/><ellipse class="cls-2" cx="948.76" cy="795.9" rx="8482.37" ry="2.5" transform="translate(-289.1 831.97) rotate(-41.66)"/><path class="cls-2" d="M983.94,800.26l-79.05,74.91c-2.34,2.22,1.2,5.74,3.54,3.53l1.34-1.26v0l77.7-73.63C989.82,801.58,986.28,798.05,983.94,800.26Z"/><path class="cls-2" d="M998.32,826,912.2,905.81c-2.37,2.19,1.17,5.72,3.53,3.53l86.12-79.79C1004.22,827.36,1000.68,823.83,998.32,826Z"/><path class="cls-2" d="M996.85,872.52l-81.44,79.23c-2.31,2.25,1.23,5.78,3.54,3.54l81.43-79.23C1002.69,873.81,999.16,870.28,996.85,872.52Z"/><path class="cls-2" d="M908,996l91.32-79.4c2.43-2.11-1.12-5.64-3.54-3.53l-91.31,79.4C902,994.54,905.56,998.07,908,996Z"/><path class="cls-2" d="M1001.24,966.83l-89.79,68.5c-2.53,1.93,0,6.27,2.52,4.32l89.79-68.51C1006.28,969.22,1003.8,964.87,1001.24,966.83Z"/><path class="cls-2" d="M996.36,1010.91l-99.18,71.88c-2.58,1.87-.08,6.21,2.53,4.32l99.18-71.88C1001.47,1013.36,999,1009,996.36,1010.91Z"/><path class="cls-2" d="M1000.19,1049.61l-85,73.63c-2.44,2.11,1.11,5.63,3.54,3.54l85-73.63C1006.16,1051,1002.61,1047.52,1000.19,1049.61Z"/><path class="cls-2" d="M998.21,1091l-92.34,67.08c-2.57,1.87-.08,6.21,2.53,4.32l92.33-67.08C1003.31,1093.48,1000.82,1089.14,998.21,1091Z"/><path class="cls-2" d="M998.3,1125.8,904.69,1200h8l89.15-70.67C1004.36,1127.33,1000.8,1123.82,998.3,1125.8Z"/><path class="cls-2" d="M1004.21,1158l-51,42h7.82l46.7-38.52C1010.23,1159.43,1006.68,1155.91,1004.21,1158Z"/><path class="cls-2" d="M994.07,1192.79q-4.27,3.59-8.51,7.21h7.71c1.44-1.22,2.88-2.46,4.33-3.67C1000.07,1194.25,996.52,1190.73,994.07,1192.79Z"/><path class="cls-2" d="M907.75,3.92,912.69,0h-8l-.48.38C901.69,2.38,905.25,5.9,907.75,3.92Z"/><path class="cls-2" d="M936.17,20.52,961.05,0h-7.82L932.64,17C930.15,19,933.71,22.55,936.17,20.52Z"/><path class="cls-2" d="M914.59,71.31q38.1-37,78.68-71.31h-7.71q-38.34,32.67-74.51,67.77C908.74,70,912.28,73.55,914.59,71.31Z"/><path class="cls-2" d="M1014.48,879.47c-2.5-2-6.06,1.53-3.54,3.53l60.78,48.15c2.5,2,6.06-1.54,3.54-3.54Z"/><path class="cls-2" d="M1010.62,1191.36l7,8.64H1024l-9.84-12.18C1012.13,1185.32,1008.61,1188.88,1010.62,1191.36Z"/><path class="cls-2" d="M1093,128.57c2,2.54,5.48-1,3.54-3.54L1010.11,13.35c-2-2.54-5.48,1-3.53,3.54Z"/><path class="cls-2" d="M1082.39,155.05c2.19,2.36,5.72-1.18,3.54-3.54L1009.52,69c-2.19-2.36-5.72,1.18-3.54,3.54Z"/><path class="cls-2" d="M1092.19,205.31l-81.77-81.23c-2.28-2.27-5.82,1.26-3.53,3.53l81.76,81.24C1090.94,211.12,1094.47,207.58,1092.19,205.31Z"/><path class="cls-2" d="M1014.92,164.1c-2.17-2.39-5.7,1.15-3.54,3.53a589.33,589.33,0,0,0,77.94,71.77c2.55,2,5-2.38,2.52-4.32A581,581,0,0,1,1014.92,164.1Z"/><path class="cls-2" d="M1091,276.91c2.39,2.14,5.94-1.38,3.53-3.53l-83.39-74.57c-2.39-2.13-5.94,1.39-3.53,3.54Z"/><path class="cls-2" d="M1092.47,315.51c2.31,2.24,5.85-1.29,3.53-3.54l-83.89-81.59c-2.31-2.24-5.85,1.29-3.54,3.54Z"/><path class="cls-2" d="M1009.4,277.55,1091.51,365c2.21,2.36,5.74-1.19,3.54-3.53L1012.94,274C1010.73,271.66,1007.2,275.2,1009.4,277.55Z"/><path class="cls-2" d="M1085.37,394c2.43,2.08,6-1.44,3.54-3.54q-38.37-32.82-76.72-65.66c-2.43-2.08-6,1.44-3.54,3.54Z"/><path class="cls-2" d="M1015.56,360.88c-2.45-2.05-6,1.47-3.54,3.54l73.45,61.46c2.45,2.05,6-1.46,3.54-3.53Z"/><path class="cls-2" d="M1093.29,483.71c2.28,2.27,5.82-1.27,3.53-3.54l-84.52-84c-2.29-2.27-5.82,1.26-3.54,3.53Z"/><path class="cls-2" d="M1011,448.57a541.38,541.38,0,0,1,102.93,86.05c2.19,2.35,5.72-1.19,3.53-3.54a546.44,546.44,0,0,0-103.93-86.83C1010.78,442.51,1008.27,446.83,1011,448.57Z"/><path class="cls-2" d="M1009.66,481.36l74.83,58.43c2.51,2,6.07-1.55,3.54-3.53l-74.84-58.43C1010.69,475.87,1007.12,479.38,1009.66,481.36Z"/><path class="cls-2" d="M1090.25,580.75c2.41,2.11,6-1.42,3.54-3.54l-78.68-68.87c-2.41-2.11-6,1.41-3.53,3.54Z"/><path class="cls-2" d="M1091.56,620.4c2.39,2.15,5.94-1.38,3.53-3.53l-88.56-79.43c-2.39-2.14-5.94,1.38-3.54,3.54Z"/><path class="cls-2" d="M1011.25,587.75l95.66,86.32c2.38,2.15,5.93-1.37,3.53-3.53l-95.65-86.33C1012.4,582.06,1008.86,585.58,1011.25,587.75Z"/><path class="cls-2" d="M1021.07,623.82c-2.4-2.12-6,1.4-3.53,3.54l66,58.5c2.4,2.12,6-1.4,3.54-3.54Z"/><path class="cls-2" d="M1009.75,663.19l68.8,61.16c2.4,2.13,6-1.4,3.54-3.54l-68.81-61.16C1010.89,657.52,1007.34,661,1009.75,663.19Z"/><path class="cls-2" d="M1074.87,739.26c-6.44-5.54-12.93-11-19.39-16.53l-40.79-34.8c-2.44-2.07-6,1.45-3.54,3.54l39.28,33.5q9.83,8.38,19.65,16.76c5.72,4.89,11.31,9.8,15.05,16.44,1.58,2.8,5.9.28,4.32-2.52C1085.78,749.13,1080.48,744.1,1074.87,739.26Z"/><path class="cls-2" d="M1012.8,721.79c-2.64-1.86-5.14,2.48-2.53,4.32a434.62,434.62,0,0,1,75.37,67.8c2.13,2.42,5.65-1.13,3.53-3.53A440,440,0,0,0,1012.8,721.79Z"/><path class="cls-2" d="M1095.83,828.05l-85.36-69.68c-2.47-2-6,1.5-3.53,3.53l85.35,69.68C1094.76,833.6,1098.32,830.09,1095.83,828.05Z"/><path class="cls-2" d="M1012.39,790.08c-2.49-2-6.06,1.53-3.53,3.53q39.47,31.29,78.95,62.56c2.49,2,6-1.53,3.53-3.53Q1051.88,821.35,1012.39,790.08Z"/><path class="cls-2" d="M1111.29,931.71,1009.12,830.89c-2.3-2.27-5.84,1.27-3.54,3.53l102.17,100.82C1110,937.5,1113.58,934,1111.29,931.71Z"/><path class="cls-2" d="M1080.77,976.83l-69.89-58.13c-2.46-2.05-6,1.47-3.54,3.53l69.89,58.14C1079.69,982.41,1083.25,978.89,1080.77,976.83Z"/><path class="cls-2" d="M1087.55,1028.5c2.07,2.47,5.59-1.08,3.54-3.53a429.63,429.63,0,0,0-79.13-73.2c-2.62-1.88-5.12,2.46-2.53,4.32A424.52,424.52,0,0,1,1087.55,1028.5Z"/><path class="cls-2" d="M1098.27,1069.23l-84.06-81.42c-2.31-2.24-5.85,1.29-3.54,3.53l84.06,81.43C1097.05,1075,1100.59,1071.48,1098.27,1069.23Z"/><path class="cls-2" d="M1096.12,1108.9l-77.06-69.5c-2.38-2.15-5.93,1.38-3.53,3.54l77,69.49C1095,1114.58,1098.51,1111.06,1096.12,1108.9Z"/><path class="cls-2" d="M1014.4,1074.15l88.73,78.24c2.4,2.12,5.95-1.4,3.53-3.54l-88.73-78.24C1015.53,1068.49,1012,1072,1014.4,1074.15Z"/><path class="cls-2" d="M1016.72,1103.82c-2.35-2.19-5.89,1.33-3.54,3.54q37.36,34.88,74.72,69.76c2.35,2.19,5.9-1.33,3.54-3.54Z"/><path class="cls-2" d="M1017.25,1141.25l60.56,58.75H1085l-64.2-62.29C1018.48,1135.47,1014.94,1139,1017.25,1141.25Z"/><path class="cls-2" d="M1015.11,1172.39l27.48,27.61h7.06l-31-31.15C1016.38,1166.57,1012.84,1170.1,1015.11,1172.39Z"/><path class="cls-2" d="M1091.34,6.16,1085,0h-7.18l10,9.7C1090.11,11.94,1093.65,8.41,1091.34,6.16Z"/><path class="cls-2" d="M1079.75,30.25q-15-15.13-30.1-30.25h-7.06l33.63,33.78C1078.49,36.07,1082,32.53,1079.75,30.25Z"/><path class="cls-2" d="M1055,38.42,1024,0h-6.39q17,21,33.91,42C1053.53,44.45,1057.05,40.9,1055,38.42Z"/><path class="cls-2" d="M1096.75,104.75,1198.81,5.32c2.31-2.25-1.23-5.78-3.54-3.53l-102.06,99.42C1090.9,103.46,1094.44,107,1096.75,104.75Z"/><path class="cls-2" d="M1108.69,122.67q42.87-41.39,85.76-82.75c2.32-2.24-1.22-5.77-3.54-3.54q-42.87,41.38-85.76,82.75C1102.83,121.37,1106.37,124.9,1108.69,122.67Z"/><path class="cls-2" d="M1102.65,156.52l80-71.43c2.41-2.14-1.14-5.67-3.53-3.53l-80,71.42C1096.71,155.13,1100.26,158.66,1102.65,156.52Z"/><path class="cls-2" d="M1191.42,121.34a698.07,698.07,0,0,0-87.07,82.5c-2.13,2.4,1.4,5.95,3.54,3.54a696.65,696.65,0,0,1,87.07-82.5C1197.47,122.87,1193.92,119.36,1191.42,121.34Z"/><path class="cls-2" d="M1099.48,250.49l89.8-84.74c2.34-2.21-1.2-5.75-3.54-3.54L1095.94,247C1093.6,249.17,1097.14,252.7,1099.48,250.49Z"/><path class="cls-2" d="M1187.06,202.58l-81.19,79.31c-2.3,2.25,1.23,5.78,3.54,3.53l81.19-79.3C1192.91,203.87,1189.37,200.33,1187.06,202.58Z"/><path class="cls-2" d="M1175.81,257.83l-85.76,87.22c-2.26,2.3,1.28,5.84,3.54,3.54q42.87-43.62,85.76-87.23C1181.61,259.07,1178.07,255.53,1175.81,257.83Z"/><path class="cls-2" d="M1101.94,378.44c-1.93,2.57,2.41,5.07,4.31,2.52A540.07,540.07,0,0,1,1200,283.87v-6.34A544.54,544.54,0,0,0,1101.94,378.44Z"/><path class="cls-2" d="M1196.74,320.18l-97.11,102.45c-2.22,2.34,1.31,5.88,3.53,3.54L1200,324v-3.95A2.25,2.25,0,0,0,1196.74,320.18Z"/><path class="cls-2" d="M1108.09,455.06,1200,377.82v-6.5l-95.44,80.2C1102.09,453.6,1105.64,457.12,1108.09,455.06Z"/><path class="cls-2" d="M1104.25,506.19,1200,420.58v-6.7l-99.29,88.77C1098.31,504.8,1101.86,508.33,1104.25,506.19Z"/><path class="cls-2" d="M1131.09,520.05,1200,464.38V458l-72.44,58.53C1125.06,518.54,1128.61,522.06,1131.09,520.05Z"/><path class="cls-2" d="M1105.58,571.89,1200,505.7v-6.08l-97,68C1100.44,569.41,1102.93,573.75,1105.58,571.89Z"/><path class="cls-2" d="M1112.43,614.21,1200,548.77v-6.2l-90.1,67.32C1107.35,611.8,1109.84,616.14,1112.43,614.21Z"/><path class="cls-2" d="M1107,652.22l2.72-1.56a2.39,2.39,0,0,0,1-1.15L1200,585.13h0V579l-95.48,68.93C1102,649.75,1104.2,653.86,1107,652.22Z"/><path class="cls-2" d="M1125,673.44l75-52.11v-6.07l-77.56,53.87C1119.81,671,1122.31,675.29,1125,673.44Z"/><path class="cls-2" d="M1099.94,719.69,1200,651.44v-6l-102.58,70C1094.78,717.18,1097.28,721.51,1099.94,719.69Z"/><path class="cls-2" d="M1104.9,836.37c-2.38,2.17,1.16,5.7,3.54,3.53L1200,756.51v-6.69a2.55,2.55,0,0,0-.38.29Z"/><path class="cls-2" d="M1104.79,862.65l3-2a2.58,2.58,0,0,0,.87-1L1200,788.84v-6.28l-98.24,76.16C1099.53,860.45,1102.45,864.23,1104.79,862.65Z"/><path class="cls-2" d="M1122.64,879.69,1200,825.16v-6.09l-79.89,56.31C1117.51,877.22,1120,881.55,1122.64,879.69Z"/><path class="cls-2" d="M1128,939l72-51.72v-6.13l-74.51,53.53C1122.9,936.55,1125.39,940.89,1128,939Z"/><path class="cls-2" d="M1197.31,920.47q-49.5,27.54-97,58.5c-2.68,1.75-.18,6.08,2.53,4.32q47.43-30.94,97-58.51l.17-.11v-4A2.32,2.32,0,0,0,1197.31,920.47Z"/><path class="cls-2" d="M1102.13,1028.2q45-38.22,93.39-72.1c2.62-1.83.12-6.17-2.52-4.32q-48.87,34.23-94.4,72.88C1096.14,1026.75,1099.69,1030.27,1102.13,1028.2Z"/><path class="cls-2" d="M1193.24,985.15l-94,68.05c-2.58,1.87-.08,6.21,2.53,4.32l94-68C1198.34,987.6,1195.85,983.26,1193.24,985.15Z"/><path class="cls-2" d="M1197.24,1025.67l-94.45,70.74c-2.54,1.91-.06,6.25,2.52,4.32l94.45-70.74c.09-.07.16-.15.24-.22v-3.92A2,2,0,0,0,1197.24,1025.67Z"/><path class="cls-2" d="M1197.39,1063.26l-86.05,61.42c-2.6,1.85-.11,6.19,2.52,4.32l86.06-61.43.08-.07v-4.21A2,2,0,0,0,1197.39,1063.26Z"/><path class="cls-2" d="M1104.58,1170.84a795.48,795.48,0,0,0,95.42-63.06v-6.28a787.53,787.53,0,0,1-97.94,65C1099.25,1168.1,1101.77,1172.42,1104.58,1170.84Z"/><path class="cls-2" d="M1111.93,1195.81q44-27.16,88.07-54.31v-5.87l-90.6,55.86C1106.67,1193.17,1109.18,1197.5,1111.93,1195.81Z"/><path class="cls-2" d="M1200,1161.92,1148.12,1200h8.41l43.47-31.91Z"/><path class="cls-2" d="M1200,1186.38a2.07,2.07,0,0,0-1.65.44L1180.62,1200H1189l11-8.21Z"/><path class="cls-2" d="M1135.8,15.21,1156.53,0h-8.41l-14.84,10.9C1130.71,12.78,1133.2,17.12,1135.8,15.21Z"/><path class="cls-2" d="M1104.24,63,1189,0h-8.33l-78.9,58.64C1099.16,60.54,1101.65,64.88,1104.24,63Z"/><path class="cls-2" d="M804.52,274c-1.52,1.18-3,2.38-4.52,3.57v6.34q4-3.22,8.06-6.37C810.6,275.53,807,272,804.52,274Z"/><path class="cls-2" d="M800,320.06V324l.27-.29A2.46,2.46,0,0,0,800,320.06Z"/><path class="cls-2" d="M812.18,361.08,800,371.32v6.5l15.72-13.21C818.18,362.54,814.63,359,812.18,361.08Z"/><path class="cls-2" d="M805,409.44l-5,4.44v6.7l8.51-7.61C810.91,410.83,807.36,407.3,805,409.44Z"/><path class="cls-2" d="M802.51,456,800,458v6.39l6-4.89C808.55,457.47,805,454,802.51,456Z"/><path class="cls-2" d="M804.82,496.24,800,499.62v6.08l7.34-5.14C810,498.72,807.46,494.39,804.82,496.24Z"/><path class="cls-2" d="M806.35,537.83,800,542.57v6.2l8.88-6.63C811.42,540.24,808.93,535.9,806.35,537.83Z"/><path class="cls-2" d="M803.58,584.47l1.73-3.43c1-2-1.23-5-3.42-3.42L800,579v6.15A2.26,2.26,0,0,0,803.58,584.47Z"/><path class="cls-2" d="M807.63,610,800,615.26v6.07l10.15-7.05C812.78,612.46,810.28,608.12,807.63,610Z"/><path class="cls-2" d="M800.64,645l-.64.44v6l3.16-2.16C805.8,647.48,803.31,643.14,800.64,645Z"/><path class="cls-2" d="M885.3,744.36c2.42,2.1,6-1.43,3.53-3.54l-79.92-69.09a2.45,2.45,0,0,0-1.81-.63,2.05,2.05,0,0,0-3.07-.54l-4,3v6.16l5.68-4.16Z"/><path class="cls-2" d="M805.12,716.76a716.53,716.53,0,0,1,83.4,71.72c2.27,2.29,5.81-1.25,3.53-3.53a723.17,723.17,0,0,0-83.23-71.62l3.71-2.82c2.52-1.93,0-6.27-2.53-4.32l-10,7.62v6.24l4.75-3.62A2.35,2.35,0,0,0,805.12,716.76Z"/><path class="cls-2" d="M800,749.82v6.69l3.15-2.87C805.41,751.58,802.35,748.32,800,749.82Z"/><path class="cls-2" d="M800.93,781.84l-.93.72v6.28l4.46-3.46C807,783.41,803.44,779.89,800.93,781.84Z"/><path class="cls-2" d="M800.6,818.64l-.6.43v6.09l3.12-2.2C805.73,821.12,803.24,816.78,800.6,818.64Z"/><path class="cls-2" d="M800.55,880.77l-.55.39v6.13l3.07-2.2C805.66,883.23,803.17,878.89,800.55,880.77Z"/><path class="cls-2" d="M800,920.67v4A2.43,2.43,0,0,0,800,920.67Z"/><path class="cls-2" d="M800,1025.85v3.92A2.77,2.77,0,0,0,800,1025.85Z"/><path class="cls-2" d="M800,1063.29v4.21A2.71,2.71,0,0,0,800,1063.29Z"/><path class="cls-2" d="M801.94,1100,800,1101.5v6.28c1.83-1.41,3.66-2.83,5.47-4.25C808,1101.55,804.44,1098,801.94,1100Z"/><path class="cls-2" d="M800.44,1135.36l-.44.27v5.87l3-1.83C805.7,1138,803.19,1133.66,800.44,1135.36Z"/><path class="cls-2" d="M800.84,1161.3l-.84.62v6.17l3.37-2.47C805.93,1163.73,803.44,1159.39,800.84,1161.3Z"/><path class="cls-2" d="M800,1186.38v5.41l.87-.65A2.72,2.72,0,0,0,800,1186.38Z"/></svg>