<svg id="Layer_1" data-name="Layer 1" xmlns="http://www.w3.org/2000/svg" viewBox="0 0 295 299.6"><defs><style>.cls-1{fill:#fff;}.cls-2{fill:#683d40;fill-rule:evenodd;}</style></defs><title>pattern2</title><rect class="cls-1" width="295" height="299.6"/><path class="cls-2" d="M287.72,182.1a3.17,3.17,0,0,0-2.15-2.56,3.45,3.45,0,0,0,2.15,3.52Z"/><path class="cls-2" d="M229.3,179.63c.25,1.61-.51,2.58-1.8,3.43C227.22,181.05,227.37,180.76,229.3,179.63Z"/><path class="cls-2" d="M214,183c-2-1.15-2-1.15-2.16-3.48C213.35,180.19,213.86,181.28,214,183Z"/><path class="cls-2" d="M155.45,179.39a3.46,3.46,0,0,1-2,3.77C153.19,181.25,154,180.34,155.45,179.39Z"/><path class="cls-2" d="M140.14,182.89c-2-.88-2.13-1.17-2-3.32A3.42,3.42,0,0,1,140.14,182.89Z"/><path class="cls-2" d="M79.44,183a3.86,3.86,0,0,1,1.9-3.47C81.67,181.53,81.53,181.81,79.44,183Z"/><path class="cls-2" d="M64.18,179.5a3.61,3.61,0,0,1,2.13,3.24C64.48,182.24,64.3,182,64.18,179.5Z"/><path class="cls-2" d="M5.56,183.19c.16-1.87.63-3,2.19-3.64C8,181.2,7.38,182.26,5.56,183.19Z"/><path class="cls-2" d="M5.57,267.79a3.47,3.47,0,0,1,2.06-3C7.74,267,7.35,267.61,5.57,267.79Z"/><path class="cls-2" d="M287.72,248.82c-1.58.7-2.15,1.77-2.13,3.69a3.7,3.7,0,0,0,2.13-2.87Z"/><path class="cls-2" d="M229.23,252.29a3.24,3.24,0,0,1-2.09-3.18C229,249.71,229.16,250,229.23,252.29Z"/><path class="cls-2" d="M214,248.86c-.16,1.71-.67,2.79-2,3.45C211.79,250.3,211.93,250.05,214,248.86Z"/><path class="cls-2" d="M153.28,248.57c1.7,1.1,2.35,2.11,2.22,3.81C153.89,251.67,153.38,250.56,153.28,248.57Z"/><path class="cls-2" d="M139.88,249.06a2.85,2.85,0,0,1-1.95,3.29A3,3,0,0,1,139.88,249.06Z"/><path class="cls-2" d="M81.53,252.3a3.29,3.29,0,0,1-2.08-3.22C81.32,249.75,81.49,250,81.53,252.3Z"/><path class="cls-2" d="M66.34,248.59c-.16,2-.63,3.1-2.26,3.76C64,250.64,64.64,249.63,66.34,248.59Z"/><path class="cls-2" d="M5.85,248.75c1.43.93,2.09,1.91,2,3.38C6,251.34,5.81,251.06,5.85,248.75Z"/><path class="cls-2" d="M29.38,34.2c-1.7-1.05-2.41-2-2.12-3.72C28.8,31.17,29.31,32.28,29.38,34.2Z"/><path class="cls-2" d="M42.54,34.19a3.86,3.86,0,0,1,2.11-3.8C44.92,32.16,44.22,33.16,42.54,34.19Z"/><path class="cls-2" d="M101.17,30.53a3.28,3.28,0,0,1,2,3.25C101.3,33,101.14,32.74,101.17,30.53Z"/><path class="cls-2" d="M116.63,33.79a2.87,2.87,0,0,1,1.87-3.31C118.83,32.19,118,33.11,116.63,33.79Z"/><path class="cls-2" d="M177.07,34.18c-1.73-1-2.36-2-2.19-3.73C176.48,31.17,177,32.28,177.07,34.18Z"/><path class="cls-2" d="M190.23,34.19a3.85,3.85,0,0,1,2.11-3.8C192.61,32.16,191.91,33.16,190.23,34.19Z"/><path class="cls-2" d="M248.81,30.43a3.6,3.6,0,0,1,2.09,3.28C249.07,33.12,248.89,32.85,248.81,30.43Z"/><path class="cls-2" d="M266.19,30.54A3.09,3.09,0,0,1,264.46,34C264.09,32.07,264.22,31.81,266.19,30.54Z"/><path class="cls-2" d="M5.68,35.78c1.67,1,2.24,2,2.12,3.6C6.14,38.74,5.69,37.62,5.68,35.78Z"/><path class="cls-2" d="M66.33,36.32a3.47,3.47,0,0,1-2,3.06C64.16,37.12,64.57,36.52,66.33,36.32Z"/><path class="cls-2" d="M81.62,39.44a3.72,3.72,0,0,1-2.25-3.14C81.13,36.55,81.38,36.88,81.62,39.44Z"/><path class="cls-2" d="M140.18,35.88c-.14,1.71-.64,2.78-1.91,3.47C137.9,37.49,138,37.21,140.18,35.88Z"/><path class="cls-2" d="M153.46,36.2c1.58.44,2.1,1.52,2,3.2C153.85,38.82,153.52,37.61,153.46,36.2Z"/><path class="cls-2" d="M214,36c-.18,1.69-.68,2.77-2,3.44C211.8,37.37,212,37.06,214,36Z"/><path class="cls-2" d="M229.29,39.48a3.63,3.63,0,0,1-2.17-3.2C228.87,36.61,229.1,36.93,229.29,39.48Z"/><path class="cls-2" d="M287.72,36.1c-1.86.89-2,1.24-1.88,3.3a3.38,3.38,0,0,0,1.88-2.4Z"/><path class="cls-2" d="M266.25,243.22c.08,1.94-.51,3-2.14,3.73A3.79,3.79,0,0,1,266.25,243.22Z"/><path class="cls-2" d="M190.16,246.91c.17-1.69.66-2.78,2-3.46C192.43,245.39,192.3,245.65,190.16,246.91Z"/><path class="cls-2" d="M118.37,243.43c.13,2.14,0,2.41-2,3.33A3.48,3.48,0,0,1,118.37,243.43Z"/><path class="cls-2" d="M42.52,246.76a3.72,3.72,0,0,1,2-3.39C44.67,245.56,44.5,245.84,42.52,246.76Z"/><path class="cls-2" d="M229.36,221.94c0,1.93-.52,3-2.11,3.69C227.08,223.89,227.81,222.91,229.36,221.94Z"/><path class="cls-2" d="M153.39,225.52a3.67,3.67,0,0,1,1.82-3.48C155.52,224.12,155.38,224.37,153.39,225.52Z"/><path class="cls-2" d="M29.4,99.79c-.12,1.71-.62,2.78-1.9,3.46C27.12,101.39,27.25,101.13,29.4,99.79Z"/><path class="cls-2" d="M44.54,103.29a3.4,3.4,0,0,1-2-3.32C44.51,100.88,44.67,101.16,44.54,103.29Z"/><path class="cls-2" d="M101,103.29a3.27,3.27,0,0,1,1.85-3.41C103.16,101.77,103,102.07,101,103.29Z"/><path class="cls-2" d="M118.45,103.27a3.26,3.26,0,0,1-2.08-3.2C118.25,100.72,118.42,101,118.45,103.27Z"/><path class="cls-2" d="M174.84,103.29c.31-2.24.31-2.24,1.87-3.3C177,101.77,176.85,102.07,174.84,103.29Z"/><path class="cls-2" d="M190.44,99.88a3,3,0,0,1,2,3.23C190.59,102.32,190.45,102.09,190.44,99.88Z"/><path class="cls-2" d="M248.72,103.33a3.32,3.32,0,0,1,2-3.58A3.14,3.14,0,0,1,248.72,103.33Z"/><path class="cls-2" d="M266.14,103.27a3.26,3.26,0,0,1-2.08-3.2C265.94,100.72,266.11,101,266.14,103.27Z"/><path class="cls-2" d="M5.59,55.53c.1-2,.7-3,2.2-3.88C8,53.47,7.28,54.47,5.59,55.53Z"/><path class="cls-2" d="M79.49,55.13a3.69,3.69,0,0,1,2-3.42C81.6,53.93,81.43,54.22,79.49,55.13Z"/><path class="cls-2" d="M153.34,55.13a3.66,3.66,0,0,1,2-3.42C155.44,53.93,155.28,54.21,153.34,55.13Z"/><path class="cls-2" d="M229.32,51.42a3.6,3.6,0,0,1-2,3.95C227,53.57,227.88,52.66,229.32,51.42Z"/><path class="cls-2" d="M264.05,161.61a3.74,3.74,0,0,1,2-3.4C266.21,160.37,266.05,160.65,264.05,161.61Z"/><path class="cls-2" d="M192.41,158.05c.07,1.94-.51,3-2.14,3.73C190.18,160.06,190.85,159.05,192.41,158.05Z"/><path class="cls-2" d="M116.31,162c.17-1.92.63-3.06,2.19-3.7C118.75,159.94,118.05,160.93,116.31,162Z"/><path class="cls-2" d="M42.51,161.59a3.51,3.51,0,0,1,2-3.33C44.66,160.4,44.5,160.68,42.51,161.59Z"/><path class="cls-2" d="M227.26,140.33a3.25,3.25,0,0,1,1.8-3.37C229.36,139,229.21,139.23,227.26,140.33Z"/><path class="cls-2" d="M81.65,221.79c.11,2.06-.51,3.08-2,3.88C79.34,223.89,80.19,223,81.65,221.79Z"/><path class="cls-2" d="M7.81,221.92a3.45,3.45,0,0,1-2,3.75C5.5,223.89,6.29,223,7.81,221.92Z"/><path class="cls-2" d="M287.72,206.5c-1.79.71-2,1.06-2,3.22a3.13,3.13,0,0,0,2-2.42Z"/><path class="cls-2" d="M227.11,206.38c2,.91,2.18,1.23,2,3.34A3.56,3.56,0,0,1,227.11,206.38Z"/><path class="cls-2" d="M214,206.26c-.17,1.68-.65,2.77-2,3.44C211.78,207.75,211.94,207.45,214,206.26Z"/><path class="cls-2" d="M155.35,209.71a3.36,3.36,0,0,1-2.07-3.25C155.19,207.19,155.39,207.51,155.35,209.71Z"/><path class="cls-2" d="M140.19,206.09c-.17,1.88-.63,3-2.2,3.65C137.81,208.09,138.39,207,140.19,206.09Z"/><path class="cls-2" d="M81.62,209.79a3.59,3.59,0,0,1-2.2-3.15C81.13,206.88,81.38,207.21,81.62,209.79Z"/><path class="cls-2" d="M64.13,209.76a3.26,3.26,0,0,1,2-3.57A3.12,3.12,0,0,1,64.13,209.76Z"/><path class="cls-2" d="M5.67,206.11c1.68,1,2.25,2,2.13,3.6C6.14,209.07,5.69,208,5.67,206.11Z"/><path class="cls-2" d="M155.49,136.74a3.48,3.48,0,0,1-2,3.77C153.16,138.72,154,137.8,155.49,136.74Z"/><path class="cls-2" d="M79.42,140.7c.12-2,.71-3,2.22-3.88C81.79,138.64,81.12,139.65,79.42,140.7Z"/><path class="cls-2" d="M5.64,140.3a3.43,3.43,0,0,1,2-3.34C7.75,139.09,7.59,139.37,5.64,140.3Z"/><path class="cls-2" d="M29.27,119.31c-1.57-1-2.23-2-2.09-3.63C28.84,116.35,29.36,117.45,29.27,119.31Z"/><path class="cls-2" d="M42.48,119.45c.16-2,.63-3.16,2.23-3.8C44.92,117.39,44.13,118.34,42.48,119.45Z"/><path class="cls-2" d="M287.72,163.72c-2,1.32-2.15,1.58-1.76,3.39a3.38,3.38,0,0,0,1.76-2.5Z"/><path class="cls-2" d="M227.36,163.7a3.13,3.13,0,0,1,2,3.25C227.53,166.19,227.36,165.93,227.36,163.7Z"/><path class="cls-2" d="M214,163.64a3.71,3.71,0,0,1-1.87,3.47C211.72,165.27,211.83,165,214,163.64Z"/><path class="cls-2" d="M155.35,167.14c-1.49-.61-1.89-1.79-2.14-3.29C155.2,164.64,155.37,164.91,155.35,167.14Z"/><path class="cls-2" d="M140.16,163.64a3.75,3.75,0,0,1-1.89,3.48C137.88,165.26,138,165,140.16,163.64Z"/><path class="cls-2" d="M81.68,167.34c-1.58-1-2.29-2-2.11-3.7C81.14,164.37,81.72,165.42,81.68,167.34Z"/><path class="cls-2" d="M64.06,167.15a3.5,3.5,0,0,1,1.84-3.45C66.26,165.61,66.11,165.89,64.06,167.15Z"/><path class="cls-2" d="M5.58,163.48c1.69,1,2.34,2,2.24,3.7C6.2,166.53,5.72,165.42,5.58,163.48Z"/><path class="cls-2" d="M264,204.34c.11-1.71.62-2.77,1.9-3.46C266.3,202.76,266.18,203,264,204.34Z"/><path class="cls-2" d="M248.85,200.86a3.29,3.29,0,0,1,2.05,3.25C249,203.34,248.83,203.08,248.85,200.86Z"/><path class="cls-2" d="M190.26,204.21a3.61,3.61,0,0,1,1.93-3.44C192.38,202.91,192.24,203.17,190.26,204.21Z"/><path class="cls-2" d="M175,200.76a3.63,3.63,0,0,1,2,3.38C175.1,203.27,175,203,175,200.76Z"/><path class="cls-2" d="M118.59,200.85a3.39,3.39,0,0,1-1.84,3.44C116.43,202.35,116.57,202.08,118.59,200.85Z"/><path class="cls-2" d="M103,204.29a3.09,3.09,0,0,1-2-3.25C102.85,201.82,103,202.05,103,204.29Z"/><path class="cls-2" d="M44.67,200.87a3.12,3.12,0,0,1-1.75,3.42C42.57,202.38,42.71,202.12,44.67,200.87Z"/><path class="cls-2" d="M29.44,204.21c-2-1-2.2-1.23-2.07-3.35C28.84,201.49,29.23,202.67,29.44,204.21Z"/><path class="cls-2" d="M101.12,115.6a3.58,3.58,0,0,1,2.09,3.27C101.38,118.29,101.2,118,101.12,115.6Z"/><path class="cls-2" d="M118.55,115.47a3.5,3.5,0,0,1-2,3.77C116.24,117.46,117,116.51,118.55,115.47Z"/><path class="cls-2" d="M177.06,119c-2-1-2.13-1.21-2-3.33A3.39,3.39,0,0,1,177.06,119Z"/><path class="cls-2" d="M190.3,119.08a3.35,3.35,0,0,1,1.84-3.41C192.42,117.68,192.29,117.92,190.3,119.08Z"/><path class="cls-2" d="M42.55,76.16c.46-2,.46-2,2-3C44.68,75.34,44.26,76,42.55,76.16Z"/><path class="cls-2" d="M248.84,115.7c1.52.58,1.88,1.78,2.16,3.25C249,118.23,248.86,118,248.84,115.7Z"/><path class="cls-2" d="M118.5,73.16a3,3,0,0,1-1.76,3.37C116.43,74.62,116.59,74.32,118.5,73.16Z"/><path class="cls-2" d="M266.08,115.59c.1,2.24-.05,2.49-2,3.4A3.62,3.62,0,0,1,266.08,115.59Z"/><path class="cls-2" d="M192.43,73.1a3.37,3.37,0,0,1-1.85,3.43C190.27,74.62,190.43,74.33,192.43,73.1Z"/><path class="cls-2" d="M266.27,73.1a3.35,3.35,0,0,1-1.84,3.43C264.11,74.63,264.27,74.33,266.27,73.1Z"/><path class="cls-2" d="M5.82,78.55a3.1,3.1,0,0,1,2,3.21C6,81.06,5.86,80.82,5.82,78.55Z"/><path class="cls-2" d="M66.34,78.26c-.16,2-.63,3.1-2.25,3.76C64,80.31,64.64,79.3,66.34,78.26Z"/><path class="cls-2" d="M79.41,78.34A3.7,3.7,0,0,1,81.72,82C80.05,81.37,79.58,80.26,79.41,78.34Z"/><path class="cls-2" d="M140.07,78.63a3.62,3.62,0,0,1-1.89,3.45C138,79.93,138.12,79.66,140.07,78.63Z"/><path class="cls-2" d="M155.31,82.08a3.71,3.71,0,0,1-2-3.41C155.26,79.56,155.42,79.83,155.31,82.08Z"/><path class="cls-2" d="M214,78.48a3.69,3.69,0,0,1-1.87,3.46C211.72,80.1,211.83,79.87,214,78.48Z"/><path class="cls-2" d="M229.37,82.17c-1.58-1-2.29-2-2.11-3.69C228.82,79.2,229.4,80.25,229.37,82.17Z"/><path class="cls-2" d="M287.72,78.65c-1.91,1-2.06,1.29-1.86,3.43a3.85,3.85,0,0,0,1.86-2.6Z"/><path class="cls-2" d="M5.6,121.28c1.92.77,2.11,1.09,2.05,3.27A3.4,3.4,0,0,1,5.6,121.28Z"/><path class="cls-2" d="M264,184.84a3.47,3.47,0,0,1,2.26,3.66C264.64,187.85,264.18,186.71,264,184.84Z"/><path class="cls-2" d="M250.93,185c-.12,1.71-.62,2.79-1.9,3.47C248.65,186.56,248.78,186.3,250.93,185Z"/><path class="cls-2" d="M190.18,184.83c1.78.94,2.38,2,2.19,3.65C190.79,187.84,190.33,186.71,190.18,184.83Z"/><path class="cls-2" d="M174.87,188.5a3.34,3.34,0,0,1,2-3.58A3.15,3.15,0,0,1,174.87,188.5Z"/><path class="cls-2" d="M116.46,184.85c1.64,1,2.24,2,2.11,3.61C116.91,187.8,116.41,186.69,116.46,184.85Z"/><path class="cls-2" d="M103.24,185c-.12,1.71-.62,2.79-1.89,3.47C101,186.56,101.1,186.3,103.24,185Z"/><path class="cls-2" d="M42.49,184.83c1.78.94,2.38,2,2.2,3.65C43.11,187.84,42.65,186.71,42.49,184.83Z"/><path class="cls-2" d="M29.38,185a3.82,3.82,0,0,1-1.91,3.49C27.15,186.49,27.29,186.23,29.38,185Z"/><path class="cls-2" d="M66.35,121.08c-.17,1.7-.66,2.78-2,3.46C64.09,122.59,64.24,122.3,66.35,121.08Z"/><path class="cls-2" d="M79.4,120.93c1.8.95,2.4,2,2.19,3.64C80,123.94,79.57,122.81,79.4,120.93Z"/><path class="cls-2" d="M140.18,121.49a3.53,3.53,0,0,1-2.05,3.06C138,122.29,138.41,121.68,140.18,121.49Z"/><path class="cls-2" d="M155.3,124.56a3.47,3.47,0,0,1-2-3.32C155.24,122.1,155.43,122.43,155.3,124.56Z"/><path class="cls-2" d="M214,121.05c-.14,1.71-.64,2.78-1.9,3.47C211.74,122.66,211.88,122.38,214,121.05Z"/><path class="cls-2" d="M227.13,121.3c1.91.73,2.1,1,2.06,3.24A3.35,3.35,0,0,1,227.13,121.3Z"/><path class="cls-2" d="M285.66,124.59a3.24,3.24,0,0,1,2-3.56A3.14,3.14,0,0,1,285.66,124.59Z"/><path class="cls-2" d="M5.57,97.87c.15-1.69.64-2.77,1.94-3.43C7.83,96.37,7.69,96.64,5.57,97.87Z"/><path class="cls-2" d="M64.16,94.33a3.82,3.82,0,0,1,2.21,3.22C64.51,97.12,64.32,96.86,64.16,94.33Z"/><path class="cls-2" d="M81.68,94.4c0,1.73-.53,2.77-1.86,3.4C79.51,95.92,79.67,95.62,81.68,94.4Z"/><path class="cls-2" d="M139.93,97.62c-1.78-1.11-1.78-1.11-1.92-3.21A2.9,2.9,0,0,1,139.93,97.62Z"/><path class="cls-2" d="M153.27,97.76a3.57,3.57,0,0,1,2-3.36C155.44,96.53,155.28,96.81,153.27,97.76Z"/><path class="cls-2" d="M211.85,94.37c1.71,1.23,1.71,1.23,2.06,3.15C212.19,97.12,212,96.86,211.85,94.37Z"/><path class="cls-2" d="M229.36,94.21c0,1.88-.48,3-2.13,3.7C227.09,96.18,227.78,95.19,229.36,94.21Z"/><path class="cls-2" d="M287.72,96.76a3.05,3.05,0,0,0-2-2.33c0,2.18.19,2.52,2,3.16Z"/><path class="cls-2" d="M7.63,9.23c.11,2.17,0,2.44-2,3.34A3.47,3.47,0,0,1,7.63,9.23Z"/><path class="cls-2" d="M66.36,12.83a3.37,3.37,0,0,1-2.27-3.61C65.71,9.83,66.16,11,66.36,12.83Z"/><path class="cls-2" d="M81.67,9.05c0,1.87-.48,3-2.13,3.69C79.4,11,80.09,10,81.67,9.05Z"/><path class="cls-2" d="M137.91,9.09a3.67,3.67,0,0,1,2.21,3.62C138.38,12.08,137.93,10.94,137.91,9.09Z"/><path class="cls-2" d="M153.28,12.55a3.43,3.43,0,0,1,2.05-3.31C155.41,11.43,155.25,11.7,153.28,12.55Z"/><path class="cls-2" d="M213.79,12.63c-1.58-.54-2-1.68-2-3.18C213.58,10.17,213.71,10.37,213.79,12.63Z"/><path class="cls-2" d="M227.1,12.73c.14-1.71.65-2.79,1.93-3.46C229.37,11.19,229.23,11.46,227.1,12.73Z"/><path class="cls-2" d="M287.72,11.76a3.17,3.17,0,0,0-2.09-2.54c-.11,1.59.43,2.59,2.09,3.59Z"/><path class="cls-2" d="M27.25,18.1A3,3,0,0,1,29,14.73C29.37,16.52,29.22,16.82,27.25,18.1Z"/><path class="cls-2" d="M44.75,18.25a3.87,3.87,0,0,1-2.27-3.65C44.27,15.32,44.77,16.42,44.75,18.25Z"/><path class="cls-2" d="M101,18.31c0-1.88.49-3,2.13-3.69C103.26,16.34,102.59,17.35,101,18.31Z"/><path class="cls-2" d="M118.61,18.26a3.69,3.69,0,0,1-2.24-3.61C118.13,15.29,118.58,16.41,118.61,18.26Z"/><path class="cls-2" d="M177.06,14.76a3.5,3.5,0,0,1-2,3.37C174.9,16,175.06,15.76,177.06,14.76Z"/><path class="cls-2" d="M192.33,18.2A3.58,3.58,0,0,1,190.21,15C192,15.46,192.21,15.72,192.33,18.2Z"/><path class="cls-2" d="M248.74,18.07a3.07,3.07,0,0,1,1.82-3.37C250.82,16.66,250.67,17,248.74,18.07Z"/><path class="cls-2" d="M266.1,18.12a3.36,3.36,0,0,1-2-3.29C266,15.67,266.18,16,266.1,18.12Z"/><path class="cls-2" d="M64.21,264.77c1.51.56,2,1.71,2.1,3.17C64.43,267.34,64.26,267.08,64.21,264.77Z"/><path class="cls-2" d="M79.52,268.17c.31-2.17.31-2.17,1.83-3.32C81.69,266.66,81.56,266.93,79.52,268.17Z"/><path class="cls-2" d="M140.15,268.06c-2-.88-2.14-1.17-2-3.31A3.41,3.41,0,0,1,140.15,268.06Z"/><path class="cls-2" d="M153.29,268.11a3.55,3.55,0,0,1,2-3.38C155.46,266.83,155.3,267.11,153.29,268.11Z"/><path class="cls-2" d="M213.82,267.93c-1.63-.47-2.11-1.58-2.07-3.22C213.45,265.32,213.78,266.54,213.82,267.93Z"/><path class="cls-2" d="M227.16,267.79c.48-2,.48-2,2-3C229.27,267,228.87,267.61,227.16,267.79Z"/><path class="cls-2" d="M287.72,267.27a3.1,3.1,0,0,0-2.1-2.55,3.3,3.3,0,0,0,2.1,3.51Z"/><path class="cls-2" d="M29.41,270.15c-.14,1.71-.65,2.79-1.95,3.45C27.16,271.65,27.29,271.39,29.41,270.15Z"/><path class="cls-2" d="M42.73,270.22a3,3,0,0,1,2,3.19C42.94,272.7,42.81,272.5,42.73,270.22Z"/><path class="cls-2" d="M101,273.88c0-1.95.48-3.05,2.15-3.76C103.25,271.83,102.56,272.84,101,273.88Z"/><path class="cls-2" d="M116.35,270.07c2.11,1.42,2.11,1.42,2.08,3.54C117,273,116.48,271.88,116.35,270.07Z"/><path class="cls-2" d="M174.88,273.66a3.32,3.32,0,0,1,2-3.58A3.12,3.12,0,0,1,174.88,273.66Z"/><path class="cls-2" d="M190.16,270a3.52,3.52,0,0,1,2.31,3.65C190.81,273,190.35,271.9,190.16,270Z"/><path class="cls-2" d="M250.91,270.26a3.51,3.51,0,0,1-2,3.37C248.75,271.53,248.9,271.26,250.91,270.26Z"/><path class="cls-2" d="M264.06,270.29c2,.93,2.14,1.21,2,3.33A3.43,3.43,0,0,1,264.06,270.29Z"/><path class="cls-2" d="M27.28,285.94a3.57,3.57,0,0,1,2.09,3.27C27.54,288.62,27.36,288.35,27.28,285.94Z"/><path class="cls-2" d="M44.7,285.81c.2,1.91-.56,2.87-2,3.81C42.41,287.79,43.18,286.84,44.7,285.81Z"/><path class="cls-2" d="M103.25,289.53c-2.06-1.33-2.06-1.33-2.11-3.5C102.65,286.63,103.1,287.76,103.25,289.53Z"/><path class="cls-2" d="M118.42,286.1c.06,2,.06,2-1.68,3.23C116.41,287.55,116.55,287.29,118.42,286.1Z"/><path class="cls-2" d="M176.83,289.47a3.14,3.14,0,0,1-2-3.28C176.7,287,176.85,287.25,176.83,289.47Z"/><path class="cls-2" d="M190.32,289.42a3.28,3.28,0,0,1,1.8-3.41C192.44,288,192.31,288.2,190.32,289.42Z"/><path class="cls-2" d="M248.84,286a3.26,3.26,0,0,1,2.07,3.21C249,288.56,248.86,288.29,248.84,286Z"/><path class="cls-2" d="M264.13,289.42a3.61,3.61,0,0,1,1.85-3.48C266.26,288,266.13,288.25,264.13,289.42Z"/><path class="cls-2" d="M5.6,291.61c1.92.77,2.11,1.09,2.05,3.27A3.39,3.39,0,0,1,5.6,291.61Z"/><path class="cls-2" d="M64.09,295.09c0-1.87.47-3,2.11-3.71C66.36,293.11,65.65,294.09,64.09,295.09Z"/><path class="cls-2" d="M81.52,294.86c-1.52-.56-1.87-1.76-2.17-3.24C81.33,292.32,81.52,292.64,81.52,294.86Z"/><path class="cls-2" d="M140.1,291.46c-.36,2.19-.36,2.19-1.87,3.32C137.92,292.94,138.07,292.64,140.1,291.46Z"/><path class="cls-2" d="M153.29,291.63c1.9.73,2.1,1.05,2.06,3.25A3.36,3.36,0,0,1,153.29,291.63Z"/><path class="cls-2" d="M211.78,295.05a3.53,3.53,0,0,1,2.18-3.77A3.79,3.79,0,0,1,211.78,295.05Z"/><path class="cls-2" d="M229.23,295a3.69,3.69,0,0,1-2.1-3.28C229,292.26,229.17,292.57,229.23,295Z"/><path class="cls-2" d="M287.72,291.52c-1.93,1.11-2.09,1.45-1.8,3.34a3.32,3.32,0,0,0,1.8-2.46Z"/><path class="cls-2" d="M244,130.7c-1.37,1.16-2.56,1-4,.13A3.14,3.14,0,0,1,244,130.7Z"/><path class="cls-2" d="M275,130.65a3,3,0,0,1-4,.2C272.31,129.7,273.49,129.94,275,130.65Z"/><path class="cls-2" d="M64.11,136.86a3.63,3.63,0,0,1,2.15,3.56C64.56,139.79,64.07,138.71,64.11,136.86Z"/><path class="cls-2" d="M140.07,140.45A3,3,0,0,1,138,137C139.6,137.67,140.11,138.74,140.07,140.45Z"/><path class="cls-2" d="M213.91,140.45a3,3,0,0,1-2.09-3.42C213.44,137.67,214,138.74,213.91,140.45Z"/><path class="cls-2" d="M287.72,139.59a2.94,2.94,0,0,0-2.07-2.56,3,3,0,0,0,2.07,3.38Z"/><path class="cls-2" d="M27.2,146c-.07-1.8.41-2.89,2-3.47C29.08,144.52,29.08,144.52,27.2,146Z"/><path class="cls-2" d="M44.49,145.84a3.35,3.35,0,0,1-2-3.12C44.42,143.29,44.68,143.71,44.49,145.84Z"/><path class="cls-2" d="M102.92,142.65a2.88,2.88,0,0,1-1.76,3.26C100.75,144.15,101.65,143.3,102.92,142.65Z"/><path class="cls-2" d="M116.64,142.67c1.42.63,2.15,1.56,1.84,3.17A2.74,2.74,0,0,1,116.64,142.67Z"/><path class="cls-2" d="M175,145.92c-.33-1.76.42-2.69,1.88-3.58A3.12,3.12,0,0,1,175,145.92Z"/><path class="cls-2" d="M192.49,146c-2-1.49-2-1.49-2.07-3.51C192,143.07,192.41,144.21,192.49,146Z"/><path class="cls-2" d="M250.84,142.23c-.34,2.47-.34,2.47-2,3.57C248.48,144.16,249.27,143.25,250.84,142.23Z"/><path class="cls-2" d="M264.12,142.26c1.63.94,2.26,1.94,2.12,3.58C264.48,144.72,264.48,144.72,264.12,142.26Z"/><path class="cls-2" d="M27.22,158.19a3.64,3.64,0,0,1,2.18,3C27.84,161.32,27.46,160.84,27.22,158.19Z"/><path class="cls-2" d="M101,158.05c2,1.67,2,1.67,1.93,3.59C101.43,161,101,159.87,101,158.05Z"/><path class="cls-2" d="M177,161.82c-1.63-.91-2.33-1.88-2.05-3.49C176.63,159.39,176.63,159.39,177,161.82Z"/><path class="cls-2" d="M248.68,158.11a3.77,3.77,0,0,1,2.23,3.52C249.1,161.07,248.7,159.93,248.68,158.11Z"/><path class="cls-2" d="M18.39,173.37c1.52-1,2.7-1.12,4,0C20.62,174.25,20.62,174.25,18.39,173.37Z"/><path class="cls-2" d="M53.55,173.4a3.67,3.67,0,0,1-3.94.17C51.11,172.28,51.11,172.28,53.55,173.4Z"/><path class="cls-2" d="M92.16,173.42c1.59-1,2.78-1.17,4.15,0C95,174.3,93.8,174.22,92.16,173.42Z"/><path class="cls-2" d="M123.16,173.43a3,3,0,0,1,4.12,0A3.66,3.66,0,0,1,123.16,173.43Z"/><path class="cls-2" d="M166,173.42c1.6-1,2.78-1.17,4.15,0C168.8,174.3,167.64,174.22,166,173.42Z"/><path class="cls-2" d="M197,173.38c1.61-1,2.78-1.09,4.17.08A3.77,3.77,0,0,1,197,173.38Z"/><path class="cls-2" d="M244.24,173.34a3.83,3.83,0,0,1-4.25.11C241.39,172.24,242.56,172.45,244.24,173.34Z"/><path class="cls-2" d="M274.88,173.48a3.78,3.78,0,0,1-3.75.19C272.57,172.25,273,172.23,274.88,173.48Z"/><path class="cls-2" d="M18.4,215.87c2.33-.83,2.33-.83,4,.13C21.09,217,19.89,216.94,18.4,215.87Z"/><path class="cls-2" d="M49.65,215.9c1.63-.86,1.63-.86,3.49-.12C51.78,217,51.32,217,49.65,215.9Z"/><path class="cls-2" d="M92,216c1.72-.94,2.88-1,4.3-.13C95,217.07,93.78,216.79,92,216Z"/><path class="cls-2" d="M123.16,215.84c1.62-.78,2.79-.86,4.1.09A3,3,0,0,1,123.16,215.84Z"/><path class="cls-2" d="M166.17,215.94a3.09,3.09,0,0,1,4,0A3,3,0,0,1,166.17,215.94Z"/><path class="cls-2" d="M201.1,216a3,3,0,0,1-4-.06A3.1,3.1,0,0,1,201.1,216Z"/><path class="cls-2" d="M239.9,216c2.14-.95,2.14-.95,4-.08C242.66,217,241.47,216.84,239.9,216Z"/><path class="cls-2" d="M270.78,216a3.66,3.66,0,0,1,4.18-.12C273.6,217,272.42,216.86,270.78,216Z"/><path class="cls-2" d="M66.19,225.77c-1.51-.92-2.19-1.86-2.09-3.35C65.88,223.1,65.9,223.13,66.19,225.77Z"/><path class="cls-2" d="M137.83,222c2,1.41,2,1.41,2.15,3.48C138.37,225,138,223.85,137.83,222Z"/><path class="cls-2" d="M213.94,225.81c-1.57-1-2.36-1.91-2-3.55C213.58,223.32,213.58,223.32,213.94,225.81Z"/><path class="cls-2" d="M287.72,224.68a3,3,0,0,0-2.09-2.51,3.32,3.32,0,0,0,2.09,3.49Z"/><path class="cls-2" d="M27.23,231.17c-.2-1.89.54-2.82,2.09-3.76A3.72,3.72,0,0,1,27.23,231.17Z"/><path class="cls-2" d="M42.6,227.61A3,3,0,0,1,44.69,231,3.12,3.12,0,0,1,42.6,227.61Z"/><path class="cls-2" d="M102.92,227.82a2.86,2.86,0,0,1-1.77,3.25C100.76,229.31,101.66,228.46,102.92,227.82Z"/><path class="cls-2" d="M116.64,227.84a2.75,2.75,0,0,1,1.91,3.15A2.67,2.67,0,0,1,116.64,227.84Z"/><path class="cls-2" d="M176.93,227.41a3.52,3.52,0,0,1-2,3.75C174.65,229.29,175.47,228.39,176.93,227.41Z"/><path class="cls-2" d="M190.19,227.35c1.68,1,2.33,2,2.22,3.64C190.77,230.42,190.35,229.31,190.19,227.35Z"/><path class="cls-2" d="M248.73,231.09a3.31,3.31,0,0,1,1.76-3.47C250.84,229.48,250.78,229.6,248.73,231.09Z"/><path class="cls-2" d="M266.06,231a3.26,3.26,0,0,1-2-3.08C265.9,228.4,266.17,228.82,266.06,231Z"/><path class="cls-2" d="M29.31,247c-1.63-.91-2.33-1.87-2-3.49C28.94,244.56,28.94,244.56,29.31,247Z"/><path class="cls-2" d="M103.16,246.83a3,3,0,0,1-2.13-3.4A3.17,3.17,0,0,1,103.16,246.83Z"/><path class="cls-2" d="M177,247c-1.64-.91-2.33-1.87-2-3.49C176.63,244.56,176.63,244.56,177,247Z"/><path class="cls-2" d="M251,247c-1.74-1-2.44-1.93-2.14-3.63C250.28,244.05,250.76,245.13,251,247Z"/><path class="cls-2" d="M18.32,258.58c1.59-1,2.77-1.16,4.15,0C21.11,259.47,20,259.38,18.32,258.58Z"/><path class="cls-2" d="M53.31,258.7a3.5,3.5,0,0,1-3.7,0C51.15,257.42,51.54,257.41,53.31,258.7Z"/><path class="cls-2" d="M92.27,258.66a3,3,0,0,1,4-.21C95,259.61,93.78,259.34,92.27,258.66Z"/><path class="cls-2" d="M127.37,258.53c-2.24.88-2.24.88-4,0C124.65,257.42,125.83,257.57,127.37,258.53Z"/><path class="cls-2" d="M170.36,258.52c-2.33.89-2.33.89-4.07,0C167.57,257.41,168.76,257.6,170.36,258.52Z"/><path class="cls-2" d="M201.28,258.57a4,4,0,0,1-4.23.07C198.5,257.42,199.68,257.57,201.28,258.57Z"/><path class="cls-2" d="M239.87,258.61c1.56-1.07,2.74-1.17,4.13,0C242.67,259.48,241.51,259.38,239.87,258.61Z"/><path class="cls-2" d="M274.84,258.7a3.5,3.5,0,0,1-3.7,0C272.68,257.42,273.07,257.41,274.84,258.7Z"/><path class="cls-2" d="M22.59,3.1a4,4,0,0,1-4.2,0A3,3,0,0,1,22.59,3.1Z"/><path class="cls-2" d="M49.43,3.05a2.94,2.94,0,0,1,4,0A3.2,3.2,0,0,1,49.43,3.05Z"/><path class="cls-2" d="M96.42,3.12a3.64,3.64,0,0,1-4.11-.06A3,3,0,0,1,96.42,3.12Z"/><path class="cls-2" d="M123.26,3.11c1.4-1.19,2.58-1,4-.13A3.2,3.2,0,0,1,123.26,3.11Z"/><path class="cls-2" d="M170.32,3.05a3.77,3.77,0,0,1-4.17.07C167.55,2,168.72,2.05,170.32,3.05Z"/><path class="cls-2" d="M201.23,3c-2.17.94-2.17.94-4,.06C198.47,1.91,199.65,2.11,201.23,3Z"/><path class="cls-2" d="M239.92,3.07c1.51-1,2.69-1.13,4-.09C242.2,3.92,242.2,3.92,239.92,3.07Z"/><path class="cls-2" d="M275.23,3.06c-1.78.82-3,.93-4.26,0C272.36,1.88,273.54,2.13,275.23,3.06Z"/><path class="cls-2" d="M22.46,45.6a3,3,0,0,1-4,0A3.1,3.1,0,0,1,22.46,45.6Z"/><path class="cls-2" d="M49.27,45.59a4.18,4.18,0,0,1,4.27-.15C52.05,46.68,50.87,46.55,49.27,45.59Z"/><path class="cls-2" d="M92.42,45.5a3.33,3.33,0,0,1,3.69-.13C94.71,46.69,94.29,46.7,92.42,45.5Z"/><path class="cls-2" d="M127.27,45.56a3,3,0,0,1-4,.08C124.64,44.57,125.83,44.7,127.27,45.56Z"/><path class="cls-2" d="M170.24,45.57c-1.48,1-2.68,1.07-4,.07C168,44.71,168,44.71,170.24,45.57Z"/><path class="cls-2" d="M201.17,45.59a3.19,3.19,0,0,1-4.06.09C199,44.71,199,44.71,201.17,45.59Z"/><path class="cls-2" d="M244.33,45.47c-2.36,1.09-2.36,1.09-4.22.16C241.37,44.49,242.56,44.86,244.33,45.47Z"/><path class="cls-2" d="M270.78,45.61a3.68,3.68,0,0,1,4.18-.1C273.6,46.69,272.42,46.53,270.78,45.61Z"/><path class="cls-2" d="M64.15,51.77A3.46,3.46,0,0,1,66.29,55C64.46,54.39,64.39,54.29,64.15,51.77Z"/><path class="cls-2" d="M137.87,51.64a3.69,3.69,0,0,1,2.23,3.62C138.38,54.64,138,53.52,137.87,51.64Z"/><path class="cls-2" d="M211.8,51.68a3.65,3.65,0,0,1,2.14,3.58C212.24,54.62,211.76,53.54,211.8,51.68Z"/><path class="cls-2" d="M287.58,55a2.77,2.77,0,0,1-1.93-3.14A2.67,2.67,0,0,1,287.58,55Z"/><path class="cls-2" d="M29.25,57.24a3.06,3.06,0,0,1-2,3.46A3,3,0,0,1,29.25,57.24Z"/><path class="cls-2" d="M42.44,57.21a3.24,3.24,0,0,1,2.33,3.49C43,60.09,42.72,58.89,42.44,57.21Z"/><path class="cls-2" d="M102.92,57.49a2.87,2.87,0,0,1-1.76,3.25C100.75,59,101.65,58.13,102.92,57.49Z"/><path class="cls-2" d="M118.53,60.69a3.13,3.13,0,0,1-2.08-3.42A3,3,0,0,1,118.53,60.69Z"/><path class="cls-2" d="M177,57c-.35,2.58-.35,2.58-2,3.69C174.61,59,175.49,58.11,177,57Z"/><path class="cls-2" d="M192.37,60.69a3.13,3.13,0,0,1-2.08-3.41A3,3,0,0,1,192.37,60.69Z"/><path class="cls-2" d="M250.94,57c-.16,2-.64,3-2.1,3.72C248.48,59,249.27,58.08,250.94,57Z"/><path class="cls-2" d="M264.1,57.28a3,3,0,0,1,2.14,3.41C264.62,60.05,264.14,59,264.1,57.28Z"/><path class="cls-2" d="M27.22,73.08a3.12,3.12,0,0,1,2.05,3.42A2.94,2.94,0,0,1,27.22,73.08Z"/><path class="cls-2" d="M101,73c1.88,1.4,1.88,1.4,2,3.43C101.41,75.9,101,74.77,101,73Z"/><path class="cls-2" d="M176.88,76.22c-1.8-1-1.8-1-1.93-3.09C176.53,73.69,176.85,74.87,176.88,76.22Z"/><path class="cls-2" d="M250.8,76.65c-1.57-.87-2.18-1.85-2.1-3.32C250.47,74,250.47,74,250.8,76.65Z"/><path class="cls-2" d="M18.36,88.39c1.5-1.33,2.68-1.1,4.16-.32C21.12,89.3,19.94,88.93,18.36,88.39Z"/><path class="cls-2" d="M49.7,88.26c1.15-1.07,2.31-1.05,3.69-.17C52.06,89.3,50.88,88.94,49.7,88.26Z"/><path class="cls-2" d="M92.21,88.18c1.57-.92,2.74-1.1,4,0C94.43,89.08,94.43,89.08,92.21,88.18Z"/><path class="cls-2" d="M127.38,88.23a3.9,3.9,0,0,1-4,.22C125,87.11,125,87.11,127.38,88.23Z"/><path class="cls-2" d="M166,88.28c1.56-1.07,2.75-1.17,4.14,0C168.83,89.15,167.66,89.05,166,88.28Z"/><path class="cls-2" d="M197.05,88.24c1.47-1.08,2.66-1.09,3.94-.09C199.25,89.08,199.25,89.08,197.05,88.24Z"/><path class="cls-2" d="M239.88,88.38c1.51-1.31,2.69-1.1,4.16-.31C242.65,89.29,241.47,88.93,239.88,88.38Z"/><path class="cls-2" d="M271,88.25a2.91,2.91,0,0,1,4-.07A3.19,3.19,0,0,1,271,88.25Z"/><path class="cls-2" d="M18.49,130.79a3.1,3.1,0,0,1,4,0A3,3,0,0,1,18.49,130.79Z"/><path class="cls-2" d="M53.56,130.56c-1.51,1.36-2.7,1.08-4.17.36C50.77,129.63,52,130.06,53.56,130.56Z"/><path class="cls-2" d="M92.42,130.67a3.33,3.33,0,0,1,3.69-.14C94.71,131.85,94.29,131.87,92.42,130.67Z"/><path class="cls-2" d="M123.14,130.71a3.6,3.6,0,0,1,4.13,0C125.87,131.81,124.68,131.77,123.14,130.71Z"/><path class="cls-2" d="M170.26,130.69c-1.5,1.18-2.69,1-4.2.12A3.59,3.59,0,0,1,170.26,130.69Z"/><path class="cls-2" d="M197.12,130.74a3.1,3.1,0,0,1,4,0A3,3,0,0,1,197.12,130.74Z"/><path class="cls-2" d="M16.49,194.62a3.22,3.22,0,0,1-4,.07A3.23,3.23,0,0,1,16.49,194.62Z"/><path class="cls-2" d="M55.74,194.42a3,3,0,0,1,3.42,0C57.63,195.77,57.15,195.77,55.74,194.42Z"/><path class="cls-2" d="M90.27,194.64a3,3,0,0,1-3.6.28C87.74,193.63,87.89,193.61,90.27,194.64Z"/><path class="cls-2" d="M133.31,194.64a3.32,3.32,0,0,1-4.07.05A3.28,3.28,0,0,1,133.31,194.64Z"/><path class="cls-2" d="M163.86,194.82a2.79,2.79,0,0,1-3.38.06C161.78,193.56,162.34,193.55,163.86,194.82Z"/><path class="cls-2" d="M203.1,194.62c1.51-.87,2.63-.93,4,0A3.09,3.09,0,0,1,203.1,194.62Z"/><path class="cls-2" d="M238.07,194.57a3.13,3.13,0,0,1-4,.14C235.31,193.65,236.44,193.78,238.07,194.57Z"/><path class="cls-2" d="M277.12,194.56a3,3,0,0,1,3.61-.09C279.13,195.72,279.13,195.72,277.12,194.56Z"/><path class="cls-2" d="M16.58,279.74c-1.59,1-2.71,1-4.06.1C13.86,278.81,15,279,16.58,279.74Z"/><path class="cls-2" d="M55.74,279.58a3,3,0,0,1,3.42,0C57.63,280.94,57.15,280.93,55.74,279.58Z"/><path class="cls-2" d="M90.34,279.77a3.21,3.21,0,0,1-4,.1C87.68,278.85,88.81,278.91,90.34,279.77Z"/><path class="cls-2" d="M133.32,279.79a3.1,3.1,0,0,1-4,0A3.25,3.25,0,0,1,133.32,279.79Z"/><path class="cls-2" d="M164.2,279.76a3.1,3.1,0,0,1-4,.09C161.5,278.83,162.63,278.93,164.2,279.76Z"/><path class="cls-2" d="M207,279.91a2.89,2.89,0,0,1-3.57.08C204.93,278.77,205,278.77,207,279.91Z"/><path class="cls-2" d="M237.88,279.88a2.91,2.91,0,0,1-3.59.14C235.66,278.78,235.75,278.77,237.88,279.88Z"/><path class="cls-2" d="M280.78,279.93a2.84,2.84,0,0,1-3.55,0C278.86,278.77,278.92,278.76,280.78,279.93Z"/><path class="cls-2" d="M133.12,109.58a2.89,2.89,0,0,1-3.57.08C131.08,108.44,131.18,108.44,133.12,109.58Z"/><path class="cls-2" d="M86.38,109.41a3.24,3.24,0,0,1,3.66-.16C88.56,110.54,88.52,110.54,86.38,109.41Z"/><path class="cls-2" d="M59.35,109.55a2.88,2.88,0,0,1-3.58.13C57.08,108.46,57.25,108.45,59.35,109.55Z"/><path class="cls-2" d="M12.53,109.46c1.89-.81,1.89-.81,3.58-.18C14.86,110.52,14.75,110.53,12.53,109.46Z"/><path class="cls-2" d="M280.77,109.59a3,3,0,0,1-3.59.08C278.87,108.43,278.93,108.43,280.77,109.59Z"/><path class="cls-2" d="M234,109.56c2-1,2-1,3.82,0A3.08,3.08,0,0,1,234,109.56Z"/><path class="cls-2" d="M207,109.55a2.89,2.89,0,0,1-3.59.13C204.77,108.46,204.94,108.45,207,109.55Z"/><path class="cls-2" d="M164.06,109.56c-1.92.78-1.92.78-3.59.11C161.81,108.45,161.91,108.44,164.06,109.56Z"/><path class="cls-2" d="M281.17,66.92c-1.76.85-2.92,1-4.16,0C278.34,65.82,279.54,66,281.17,66.92Z"/><path class="cls-2" d="M238,66.88a3.06,3.06,0,0,1-3.94,0A3,3,0,0,1,238,66.88Z"/><path class="cls-2" d="M207.15,66.89c-2.1.9-2.1.9-4,0C204.48,65.88,205.66,66,207.15,66.89Z"/><path class="cls-2" d="M160.22,66.94a3.05,3.05,0,0,1,3.94-.09A3.06,3.06,0,0,1,160.22,66.94Z"/><path class="cls-2" d="M133.21,66.86c-1.32,1.06-2.52.93-3.93.09A3,3,0,0,1,133.21,66.86Z"/><path class="cls-2" d="M90.6,66.86c-1.75.92-2.91,1-4.21.08C87.71,65.79,88.91,66.1,90.6,66.86Z"/><path class="cls-2" d="M55.37,66.89a3.19,3.19,0,0,1,3.83-.17C57.79,67.86,57.66,67.87,55.37,66.89Z"/><path class="cls-2" d="M16.47,67c-1.41.84-2.61,1-3.93-.09A3,3,0,0,1,16.47,67Z"/><path class="cls-2" d="M12.47,152.05a3.16,3.16,0,0,1,3.81-.16C14.82,153,14.68,153,12.47,152.05Z"/><path class="cls-2" d="M55.33,152.12c2.13-1,2.13-1,4-.08C58.06,153.1,56.88,152.91,55.33,152.12Z"/><path class="cls-2" d="M86.39,152.05a3,3,0,0,1,3.92,0A3,3,0,0,1,86.39,152.05Z"/><path class="cls-2" d="M133.35,152.11c-1.57.87-2.74.91-4,0C130.64,151.06,131.84,151.13,133.35,152.11Z"/><path class="cls-2" d="M164.15,152a3.05,3.05,0,0,1-3.93.07A3,3,0,0,1,164.15,152Z"/><path class="cls-2" d="M203,152.07c1.59-.93,2.75-1,4.07,0C205.73,153.1,204.54,152.92,203,152.07Z"/><path class="cls-2" d="M12.54,237.21a3,3,0,0,1,3.93,0A3.05,3.05,0,0,1,12.54,237.21Z"/><path class="cls-2" d="M59.45,237.25a3.3,3.3,0,0,1-3.85.16C57.12,236.24,57.2,236.24,59.45,237.25Z"/><path class="cls-2" d="M90.31,237.24a3.05,3.05,0,0,1-3.93,0A3,3,0,0,1,90.31,237.24Z"/><path class="cls-2" d="M133.3,237.19c-1.47,1.08-2.66.88-4.12.11A3.26,3.26,0,0,1,133.3,237.19Z"/><path class="cls-2" d="M164.22,237.1c-1.42,1.23-2.62.91-4.11.29C161.56,236.11,162.76,236.43,164.22,237.1Z"/><path class="cls-2" d="M203,237.26c1.55-.93,2.73-1.07,4.06,0C205.73,238.21,204.57,238.11,203,237.26Z"/><path class="cls-2" d="M238.15,237.22a3.44,3.44,0,0,1-4.09.08C235.39,236.19,236.57,236.36,238.15,237.22Z"/><path class="cls-2" d="M276.87,237.32a3.23,3.23,0,0,1,4.1-.15C279.53,238.29,278.34,238.05,276.87,237.32Z"/><path class="cls-2" d="M238.12,152.09a3.83,3.83,0,0,1-4.16.09C235.4,151,236.59,151.16,238.12,152.09Z"/><path class="cls-2" d="M280.91,152.08a3.07,3.07,0,0,1-3.94,0A3,3,0,0,1,280.91,152.08Z"/><path class="cls-2" d="M277,24.34a3.29,3.29,0,0,1,4-.06A3.19,3.19,0,0,1,277,24.34Z"/><path class="cls-2" d="M237.88,24.37a2.88,2.88,0,0,1-3.58.15C235.65,23.28,235.74,23.28,237.88,24.37Z"/><path class="cls-2" d="M203.1,24.29c1.52-.87,2.64-.94,4,0A3.09,3.09,0,0,1,203.1,24.29Z"/><path class="cls-2" d="M160.14,24.36a3.19,3.19,0,0,1,4-.07A3.17,3.17,0,0,1,160.14,24.36Z"/><path class="cls-2" d="M133.19,24.39a2.89,2.89,0,0,1-3.58.12C130.93,23.29,131.1,23.28,133.19,24.39Z"/><path class="cls-2" d="M90.15,24.4a2.89,2.89,0,0,1-3.58.1C88.1,23.27,88.14,23.27,90.15,24.4Z"/><path class="cls-2" d="M59.28,24.41a2.89,2.89,0,0,1-3.57.08C57.24,23.27,57.34,23.27,59.28,24.41Z"/><path class="cls-2" d="M12.44,24.33a3.24,3.24,0,0,1,4,0A3.15,3.15,0,0,1,12.44,24.33Z"/></svg>