<svg id="Layer_1" data-name="Layer 1" xmlns="http://www.w3.org/2000/svg" xmlns:xlink="http://www.w3.org/1999/xlink" viewBox="0 0 288 288"><defs><style>.cls-1{fill:#fcfcfc;}.cls-2{clip-path:url(#clip-path);}.cls-3{fill:#314057;fill-rule:evenodd;}</style><clipPath id="clip-path"><rect class="cls-1" width="288" height="288"/></clipPath></defs><title>Artboard 278</title><rect class="cls-1" width="288" height="288"/><g class="cls-2"><path class="cls-3" d="M285.78,177.43a3.13,3.13,0,0,0-2.15-2.56,3.45,3.45,0,0,0,2.15,3.52Z"/><path class="cls-3" d="M227.36,175c.26,1.61-.51,2.58-1.79,3.43C225.28,176.38,225.44,176.09,227.36,175Z"/><path class="cls-3" d="M212.09,178.35c-2-1.15-2-1.15-2.16-3.48C211.41,175.52,211.92,176.61,212.09,178.35Z"/><path class="cls-3" d="M153.51,174.72c.23,1.87-.49,2.85-2,3.77C151.25,176.58,152.1,175.67,153.51,174.72Z"/><path class="cls-3" d="M138.21,178.22c-2-.88-2.14-1.17-2-3.32A3.44,3.44,0,0,1,138.21,178.22Z"/><path class="cls-3" d="M77.5,178.35a3.87,3.87,0,0,1,1.91-3.47C79.74,176.86,79.6,177.14,77.5,178.35Z"/><path class="cls-3" d="M62.25,174.83a3.6,3.6,0,0,1,2.12,3.24C62.54,177.57,62.37,177.31,62.25,174.83Z"/><path class="cls-3" d="M3.63,178.51c.15-1.86.63-3,2.19-3.63C6,176.53,5.44,177.59,3.63,178.51Z"/><path class="cls-3" d="M3.64,263.12a3.44,3.44,0,0,1,2.06-3C5.8,262.36,5.41,262.94,3.64,263.12Z"/><path class="cls-3" d="M285.78,244.15c-1.58.7-2.14,1.77-2.13,3.69a3.66,3.66,0,0,0,2.13-2.87Z"/><path class="cls-3" d="M227.3,247.62a3.25,3.25,0,0,1-2.1-3.18C227,245,227.23,245.32,227.3,247.62Z"/><path class="cls-3" d="M212.09,244.19c-.17,1.71-.68,2.79-2,3.45C209.85,245.63,210,245.38,212.09,244.19Z"/><path class="cls-3" d="M151.34,243.9c1.7,1.1,2.36,2.11,2.23,3.81C152,247,151.45,245.89,151.34,243.9Z"/><path class="cls-3" d="M138,244.38a2.87,2.87,0,0,1-2,3.3A3,3,0,0,1,138,244.38Z"/><path class="cls-3" d="M79.59,247.63a3.3,3.3,0,0,1-2.07-3.22C79.38,245.08,79.56,245.36,79.59,247.63Z"/><path class="cls-3" d="M64.41,243.92c-.16,2-.64,3.1-2.26,3.76C62,246,62.7,245,64.41,243.92Z"/><path class="cls-3" d="M3.91,244.08c1.44.93,2.09,1.91,2,3.38C4.05,246.67,3.88,246.39,3.91,244.08Z"/><path class="cls-3" d="M27.45,29.53c-1.7-1.05-2.41-2-2.12-3.72C26.86,26.5,27.37,27.61,27.45,29.53Z"/><path class="cls-3" d="M40.61,29.51a3.85,3.85,0,0,1,2.1-3.79C43,27.49,42.29,28.49,40.61,29.51Z"/><path class="cls-3" d="M99.23,25.86a3.28,3.28,0,0,1,2,3.25C99.37,28.34,99.21,28.07,99.23,25.86Z"/><path class="cls-3" d="M114.7,29.12a2.88,2.88,0,0,1,1.86-3.31C116.9,27.52,116,28.44,114.7,29.12Z"/><path class="cls-3" d="M175.14,29.51c-1.73-1-2.36-2.05-2.2-3.73C174.55,26.5,175.06,27.61,175.14,29.51Z"/><path class="cls-3" d="M188.29,29.51a3.86,3.86,0,0,1,2.11-3.79C190.67,27.49,190,28.49,188.29,29.51Z"/><path class="cls-3" d="M246.87,25.76A3.6,3.6,0,0,1,249,29C247.13,28.45,247,28.18,246.87,25.76Z"/><path class="cls-3" d="M264.26,25.87a3.09,3.09,0,0,1-1.73,3.41C262.15,27.4,262.29,27.14,264.26,25.87Z"/><path class="cls-3" d="M3.74,31.11c1.67,1,2.24,2,2.13,3.6C4.21,34.07,3.75,33,3.74,31.11Z"/><path class="cls-3" d="M64.4,31.65a3.5,3.5,0,0,1-2.05,3.06C62.22,32.45,62.63,31.84,64.4,31.65Z"/><path class="cls-3" d="M79.68,34.77a3.72,3.72,0,0,1-2.24-3.14C79.2,31.88,79.45,32.21,79.68,34.77Z"/><path class="cls-3" d="M138.25,31.21c-.15,1.71-.64,2.78-1.91,3.47C136,32.82,136.1,32.54,138.25,31.21Z"/><path class="cls-3" d="M151.53,31.53c1.58.44,2.09,1.52,2,3.2C151.91,34.15,151.58,32.94,151.53,31.53Z"/><path class="cls-3" d="M212.11,31.28c-.19,1.69-.69,2.77-2,3.44C209.87,32.7,210,32.39,212.11,31.28Z"/><path class="cls-3" d="M227.35,34.81a3.65,3.65,0,0,1-2.17-3.2C226.93,31.94,227.16,32.26,227.35,34.81Z"/><path class="cls-3" d="M285.78,31.43c-1.85.89-2,1.24-1.88,3.3a3.33,3.33,0,0,0,1.88-2.4Z"/><path class="cls-3" d="M264.31,238.55c.08,1.94-.5,3-2.13,3.73C262.09,240.56,262.76,239.55,264.31,238.55Z"/><path class="cls-3" d="M188.23,242.24c.17-1.69.65-2.78,1.94-3.46C190.5,240.72,190.36,241,188.23,242.24Z"/><path class="cls-3" d="M116.44,238.76c.13,2.14,0,2.41-2,3.33A3.48,3.48,0,0,1,116.44,238.76Z"/><path class="cls-3" d="M40.58,242.09a3.75,3.75,0,0,1,2-3.39C42.73,240.89,42.57,241.17,40.58,242.09Z"/><path class="cls-3" d="M227.42,217.27c.05,1.93-.51,3-2.1,3.69C225.15,219.22,225.88,218.24,227.42,217.27Z"/><path class="cls-3" d="M151.45,220.85a3.68,3.68,0,0,1,1.82-3.48C153.58,219.45,153.45,219.7,151.45,220.85Z"/><path class="cls-3" d="M27.47,95.12c-.13,1.71-.63,2.78-1.9,3.46C25.19,96.72,25.32,96.46,27.47,95.12Z"/><path class="cls-3" d="M42.6,98.62a3.41,3.41,0,0,1-2-3.32C42.57,96.21,42.74,96.49,42.6,98.62Z"/><path class="cls-3" d="M99.06,98.62a3.27,3.27,0,0,1,1.85-3.41C101.23,97.1,101.07,97.4,99.06,98.62Z"/><path class="cls-3" d="M116.52,98.6a3.29,3.29,0,0,1-2.09-3.2C116.32,96.05,116.49,96.32,116.52,98.6Z"/><path class="cls-3" d="M172.91,98.62c.3-2.24.3-2.24,1.86-3.3C175.07,97.1,174.91,97.4,172.91,98.62Z"/><path class="cls-3" d="M188.5,95.21a3,3,0,0,1,2,3.23C188.66,97.65,188.52,97.42,188.5,95.21Z"/><path class="cls-3" d="M246.78,98.66a3.34,3.34,0,0,1,2-3.58A3.12,3.12,0,0,1,246.78,98.66Z"/><path class="cls-3" d="M264.2,98.6a3.28,3.28,0,0,1-2.08-3.2C264,96.05,264.18,96.32,264.2,98.6Z"/><path class="cls-3" d="M3.65,50.86c.11-2,.71-3,2.2-3.88C6,48.8,5.35,49.8,3.65,50.86Z"/><path class="cls-3" d="M77.56,50.46a3.67,3.67,0,0,1,2-3.42C79.66,49.26,79.49,49.54,77.56,50.46Z"/><path class="cls-3" d="M151.4,50.46a3.66,3.66,0,0,1,2-3.42C153.5,49.26,153.34,49.54,151.4,50.46Z"/><path class="cls-3" d="M227.39,46.75a3.61,3.61,0,0,1-2,4C225.09,48.9,225.94,48,227.39,46.75Z"/><path class="cls-3" d="M262.11,156.94a3.73,3.73,0,0,1,2-3.4C264.27,155.7,264.11,156,262.11,156.94Z"/><path class="cls-3" d="M190.47,153.38c.07,1.94-.5,3-2.13,3.73C188.25,155.39,188.91,154.38,190.47,153.38Z"/><path class="cls-3" d="M114.38,157.28c.17-1.92.63-3.06,2.18-3.7C116.82,155.27,116.11,156.26,114.38,157.28Z"/><path class="cls-3" d="M40.58,156.92a3.49,3.49,0,0,1,2-3.33C42.73,155.73,42.56,156,40.58,156.92Z"/><path class="cls-3" d="M225.32,135.66a3.26,3.26,0,0,1,1.81-3.37C227.42,134.29,227.28,134.56,225.32,135.66Z"/><path class="cls-3" d="M79.71,217.12c.11,2-.51,3.08-2,3.88C77.41,219.22,78.25,218.31,79.71,217.12Z"/><path class="cls-3" d="M5.88,217.25a3.47,3.47,0,0,1-2,3.75C3.57,219.22,4.36,218.28,5.88,217.25Z"/><path class="cls-3" d="M285.78,201.83c-1.78.71-2,1.06-1.95,3.21a3.08,3.08,0,0,0,1.95-2.41Z"/><path class="cls-3" d="M225.17,201.71c2,.91,2.18,1.23,2,3.34A3.57,3.57,0,0,1,225.17,201.71Z"/><path class="cls-3" d="M212.1,201.59c-.17,1.68-.65,2.77-2,3.44C209.84,203.08,210,202.78,212.1,201.59Z"/><path class="cls-3" d="M153.41,205a3.36,3.36,0,0,1-2.06-3.25C153.26,202.52,153.45,202.84,153.41,205Z"/><path class="cls-3" d="M138.26,201.42c-.17,1.88-.64,3-2.21,3.65C135.87,203.42,136.46,202.36,138.26,201.42Z"/><path class="cls-3" d="M79.69,205.12a3.57,3.57,0,0,1-2.2-3.15C79.19,202.21,79.45,202.54,79.69,205.12Z"/><path class="cls-3" d="M62.2,205.09a3.25,3.25,0,0,1,2-3.57A3.13,3.13,0,0,1,62.2,205.09Z"/><path class="cls-3" d="M3.74,201.44c1.68,1,2.24,2,2.13,3.6C4.2,204.4,3.75,203.28,3.74,201.44Z"/><path class="cls-3" d="M153.56,132.07a3.5,3.5,0,0,1-2,3.77C151.22,134.05,152.06,133.13,153.56,132.07Z"/><path class="cls-3" d="M77.49,136c.12-2,.71-3.05,2.22-3.88C79.86,134,79.19,135,77.49,136Z"/><path class="cls-3" d="M3.7,135.63a3.43,3.43,0,0,1,2-3.34C5.82,134.42,5.66,134.7,3.7,135.63Z"/><path class="cls-3" d="M27.34,114.64c-1.58-1-2.24-2-2.09-3.63C26.9,111.68,27.42,112.78,27.34,114.64Z"/><path class="cls-3" d="M40.54,114.78c.17-2,.64-3.16,2.23-3.8C43,112.71,42.2,113.67,40.54,114.78Z"/><path class="cls-3" d="M285.78,159.05c-2,1.32-2.15,1.58-1.75,3.39a3.37,3.37,0,0,0,1.75-2.5Z"/><path class="cls-3" d="M225.43,159a3.13,3.13,0,0,1,2,3.25C225.59,161.52,225.43,161.26,225.43,159Z"/><path class="cls-3" d="M212.06,159a3.72,3.72,0,0,1-1.88,3.47C209.78,160.59,209.9,160.37,212.06,159Z"/><path class="cls-3" d="M153.42,162.47c-1.5-.61-1.89-1.79-2.14-3.29C153.27,160,153.43,160.24,153.42,162.47Z"/><path class="cls-3" d="M138.22,159a3.75,3.75,0,0,1-1.89,3.48C135.94,160.59,136.06,160.36,138.22,159Z"/><path class="cls-3" d="M79.74,162.67c-1.58-1-2.28-2-2.11-3.7C79.2,159.7,79.78,160.75,79.74,162.67Z"/><path class="cls-3" d="M62.13,162.48A3.5,3.5,0,0,1,64,159C64.32,160.94,64.17,161.22,62.13,162.48Z"/><path class="cls-3" d="M3.65,158.81c1.69,1,2.34,2,2.23,3.7C4.27,161.86,3.79,160.75,3.65,158.81Z"/><path class="cls-3" d="M262.11,199.67c.11-1.71.62-2.77,1.89-3.46C264.37,198.09,264.25,198.32,262.11,199.67Z"/><path class="cls-3" d="M246.92,196.19a3.29,3.29,0,0,1,2.05,3.25C247.05,198.67,246.89,198.41,246.92,196.19Z"/><path class="cls-3" d="M188.33,199.54a3.64,3.64,0,0,1,1.92-3.45C190.45,198.24,190.31,198.5,188.33,199.54Z"/><path class="cls-3" d="M173.1,196.09a3.63,3.63,0,0,1,2,3.38C173.17,198.6,173,198.34,173.1,196.09Z"/><path class="cls-3" d="M116.65,196.18a3.4,3.4,0,0,1-1.83,3.44C114.49,197.68,114.63,197.41,116.65,196.18Z"/><path class="cls-3" d="M101.07,199.62a3.09,3.09,0,0,1-2-3.25C100.91,197.15,101.06,197.38,101.07,199.62Z"/><path class="cls-3" d="M42.73,196.2A3.11,3.11,0,0,1,41,199.62C40.63,197.71,40.77,197.45,42.73,196.2Z"/><path class="cls-3" d="M27.51,199.54c-2.05-1-2.2-1.23-2.08-3.35C26.9,196.82,27.29,198,27.51,199.54Z"/><path class="cls-3" d="M99.19,110.93a3.58,3.58,0,0,1,2.09,3.27C99.44,113.62,99.27,113.35,99.19,110.93Z"/><path class="cls-3" d="M116.61,110.8a3.49,3.49,0,0,1-2,3.77C114.31,112.79,115.1,111.84,116.61,110.8Z"/><path class="cls-3" d="M175.13,114.35c-2-.95-2.13-1.21-2-3.33A3.39,3.39,0,0,1,175.13,114.35Z"/><path class="cls-3" d="M188.37,114.41a3.32,3.32,0,0,1,1.84-3.41C190.49,113,190.36,113.25,188.37,114.41Z"/><path class="cls-3" d="M40.62,71.49c.46-2,.46-2,2-2.95C42.74,70.67,42.33,71.29,40.62,71.49Z"/><path class="cls-3" d="M246.9,111c1.53.58,1.88,1.78,2.17,3.25C247.09,113.56,246.92,113.29,246.9,111Z"/><path class="cls-3" d="M116.56,68.49a3,3,0,0,1-1.76,3.37C114.49,70,114.65,69.65,116.56,68.49Z"/><path class="cls-3" d="M264.15,110.92c.1,2.24,0,2.49-2,3.4A3.61,3.61,0,0,1,264.15,110.92Z"/><path class="cls-3" d="M190.49,68.43a3.36,3.36,0,0,1-1.84,3.43C188.33,70,188.49,69.66,190.49,68.43Z"/><path class="cls-3" d="M264.33,68.43a3.36,3.36,0,0,1-1.84,3.43C262.18,70,262.33,69.66,264.33,68.43Z"/><path class="cls-3" d="M3.88,73.88a3.1,3.1,0,0,1,2,3.21C4.08,76.39,3.92,76.15,3.88,73.88Z"/><path class="cls-3" d="M64.4,73.59c-.15,2-.63,3.1-2.25,3.76C62,75.64,62.7,74.63,64.4,73.59Z"/><path class="cls-3" d="M77.48,73.67a3.67,3.67,0,0,1,2.3,3.69C78.11,76.7,77.64,75.59,77.48,73.67Z"/><path class="cls-3" d="M138.13,74a3.62,3.62,0,0,1-1.89,3.45C136,75.26,136.18,75,138.13,74Z"/><path class="cls-3" d="M153.38,77.41a3.72,3.72,0,0,1-2-3.41C153.32,74.89,153.48,75.16,153.38,77.41Z"/><path class="cls-3" d="M212.06,73.81a3.7,3.7,0,0,1-1.88,3.46C209.78,75.43,209.9,75.2,212.06,73.81Z"/><path class="cls-3" d="M227.43,77.5c-1.58-1-2.29-2-2.11-3.69C226.89,74.53,227.47,75.58,227.43,77.5Z"/><path class="cls-3" d="M285.78,74c-1.91,1-2.06,1.29-1.85,3.43a3.81,3.81,0,0,0,1.85-2.6Z"/><path class="cls-3" d="M3.66,116.61c1.92.77,2.12,1.09,2.05,3.27A3.41,3.41,0,0,1,3.66,116.61Z"/><path class="cls-3" d="M262.08,180.17a3.47,3.47,0,0,1,2.26,3.66C262.7,183.17,262.24,182,262.08,180.17Z"/><path class="cls-3" d="M249,180.28c-.13,1.71-.63,2.79-1.9,3.47C246.72,181.89,246.85,181.63,249,180.28Z"/><path class="cls-3" d="M188.24,180.16c1.78.94,2.38,2,2.2,3.64C188.86,183.17,188.4,182,188.24,180.16Z"/><path class="cls-3" d="M172.94,183.83a3.31,3.31,0,0,1,2-3.58A3.14,3.14,0,0,1,172.94,183.83Z"/><path class="cls-3" d="M114.53,180.18c1.64,1,2.23,2,2.11,3.61C115,183.13,114.47,182,114.53,180.18Z"/><path class="cls-3" d="M101.31,180.28c-.12,1.71-.62,2.79-1.9,3.47C99,181.89,99.16,181.63,101.31,180.28Z"/><path class="cls-3" d="M40.55,180.16c1.79.94,2.38,2,2.2,3.64C41.17,183.17,40.71,182,40.55,180.16Z"/><path class="cls-3" d="M27.45,180.33a3.84,3.84,0,0,1-1.91,3.49C25.22,181.82,25.36,181.55,27.45,180.33Z"/><path class="cls-3" d="M64.41,116.41c-.16,1.7-.66,2.78-2,3.46C62.15,117.92,62.3,117.63,64.41,116.41Z"/><path class="cls-3" d="M77.46,116.26c1.81.95,2.4,2,2.2,3.64C78.1,119.27,77.64,118.14,77.46,116.26Z"/><path class="cls-3" d="M138.24,116.82a3.53,3.53,0,0,1-2.05,3.06C136.07,117.62,136.48,117,138.24,116.82Z"/><path class="cls-3" d="M153.37,119.88a3.44,3.44,0,0,1-2-3.31C153.3,117.43,153.49,117.76,153.37,119.88Z"/><path class="cls-3" d="M212.09,116.38c-.14,1.71-.64,2.78-1.91,3.47C209.8,118,209.94,117.71,212.09,116.38Z"/><path class="cls-3" d="M225.2,116.62c1.9.74,2.1,1,2.06,3.25A3.34,3.34,0,0,1,225.2,116.62Z"/><path class="cls-3" d="M283.73,119.92a3.24,3.24,0,0,1,2-3.56A3.13,3.13,0,0,1,283.73,119.92Z"/><path class="cls-3" d="M3.63,93.2c.16-1.69.65-2.77,2-3.43C5.89,91.7,5.75,92,3.63,93.2Z"/><path class="cls-3" d="M62.22,89.66a3.8,3.8,0,0,1,2.21,3.22C62.57,92.45,62.39,92.19,62.22,89.66Z"/><path class="cls-3" d="M79.75,89.73c0,1.73-.53,2.77-1.87,3.4C77.58,91.25,77.73,91,79.75,89.73Z"/><path class="cls-3" d="M138,93c-1.78-1.11-1.78-1.11-1.92-3.21A2.88,2.88,0,0,1,138,93Z"/><path class="cls-3" d="M151.34,93.09a3.54,3.54,0,0,1,2-3.36C153.51,91.86,153.35,92.14,151.34,93.09Z"/><path class="cls-3" d="M209.91,89.7c1.72,1.23,1.72,1.23,2.06,3.15C210.26,92.45,210.08,92.19,209.91,89.7Z"/><path class="cls-3" d="M227.42,89.54c0,1.88-.48,3-2.13,3.7C225.15,91.51,225.85,90.52,227.42,89.54Z"/><path class="cls-3" d="M285.78,92.09a3.06,3.06,0,0,0-2-2.33c0,2.18.18,2.52,2,3.16Z"/><path class="cls-3" d="M5.7,4.56c.1,2.17-.06,2.44-2,3.34A3.44,3.44,0,0,1,5.7,4.56Z"/><path class="cls-3" d="M64.42,8.16a3.37,3.37,0,0,1-2.27-3.61C63.77,5.16,64.22,6.3,64.42,8.16Z"/><path class="cls-3" d="M79.74,4.38c0,1.87-.48,3-2.13,3.69C77.47,6.35,78.16,5.35,79.74,4.38Z"/><path class="cls-3" d="M136,4.42A3.69,3.69,0,0,1,138.19,8C136.44,7.41,136,6.27,136,4.42Z"/><path class="cls-3" d="M151.35,7.88a3.41,3.41,0,0,1,2.05-3.31C153.47,6.76,153.31,7,151.35,7.88Z"/><path class="cls-3" d="M211.85,8c-1.57-.54-2-1.68-2-3.18C211.64,5.5,211.77,5.7,211.85,8Z"/><path class="cls-3" d="M225.16,8.05c.15-1.7.65-2.78,1.94-3.45C227.43,6.52,227.29,6.79,225.16,8.05Z"/><path class="cls-3" d="M285.78,7.09a3.16,3.16,0,0,0-2.09-2.54c-.11,1.59.43,2.59,2.09,3.59Z"/><path class="cls-3" d="M25.32,13.43A3,3,0,0,1,27,10.05C27.43,11.85,27.28,12.15,25.32,13.43Z"/><path class="cls-3" d="M42.81,13.58c-1.67-.83-2.1-2-2.27-3.65C42.33,10.65,42.84,11.75,42.81,13.58Z"/><path class="cls-3" d="M99.07,13.64c0-1.88.49-3,2.13-3.69C101.33,11.67,100.65,12.68,99.07,13.64Z"/><path class="cls-3" d="M116.68,13.59A3.69,3.69,0,0,1,114.43,10C116.19,10.62,116.65,11.74,116.68,13.59Z"/><path class="cls-3" d="M175.13,10.09a3.51,3.51,0,0,1-2,3.37C173,11.36,173.12,11.09,175.13,10.09Z"/><path class="cls-3" d="M190.4,13.53a3.58,3.58,0,0,1-2.12-3.23C190.1,10.79,190.28,11.05,190.4,13.53Z"/><path class="cls-3" d="M246.8,13.4A3.09,3.09,0,0,1,248.62,10C248.89,12,248.73,12.28,246.8,13.4Z"/><path class="cls-3" d="M264.16,13.45a3.35,3.35,0,0,1-2-3.29C264.08,11,264.24,11.28,264.16,13.45Z"/><path class="cls-3" d="M62.27,260.09c1.52.57,2,1.71,2.11,3.18C62.5,262.67,62.33,262.41,62.27,260.09Z"/><path class="cls-3" d="M77.58,263.5c.32-2.17.32-2.17,1.83-3.32C79.76,262,79.62,262.26,77.58,263.5Z"/><path class="cls-3" d="M138.22,263.39c-2-.89-2.15-1.17-2-3.31A3.43,3.43,0,0,1,138.22,263.39Z"/><path class="cls-3" d="M151.36,263.44a3.53,3.53,0,0,1,2-3.38C153.52,262.16,153.37,262.44,151.36,263.44Z"/><path class="cls-3" d="M211.88,263.26c-1.63-.47-2.1-1.59-2.06-3.22C211.51,260.65,211.84,261.87,211.88,263.26Z"/><path class="cls-3" d="M225.23,263.12c.47-2,.47-2,2-3C227.33,262.36,226.94,262.94,225.23,263.12Z"/><path class="cls-3" d="M285.78,262.6a3.1,3.1,0,0,0-2.1-2.55,3.32,3.32,0,0,0,2.1,3.51Z"/><path class="cls-3" d="M27.47,265.48c-.14,1.71-.64,2.79-1.94,3.45C25.22,267,25.36,266.72,27.47,265.48Z"/><path class="cls-3" d="M40.79,265.55a3,3,0,0,1,2,3.19C41,268,40.87,267.83,40.79,265.55Z"/><path class="cls-3" d="M99.07,269.21c0-1.95.48-3,2.15-3.76C101.31,267.16,100.63,268.17,99.07,269.21Z"/><path class="cls-3" d="M114.41,265.4c2.11,1.42,2.11,1.42,2.09,3.54C115,268.33,114.54,267.21,114.41,265.4Z"/><path class="cls-3" d="M172.94,269a3.32,3.32,0,0,1,2-3.58A3.13,3.13,0,0,1,172.94,269Z"/><path class="cls-3" d="M188.23,265.35a3.55,3.55,0,0,1,2.31,3.65C188.88,268.35,188.42,267.23,188.23,265.35Z"/><path class="cls-3" d="M249,265.58a3.5,3.5,0,0,1-2,3.38C246.81,266.86,247,266.59,249,265.58Z"/><path class="cls-3" d="M262.12,265.62c2,.93,2.15,1.21,2,3.33A3.42,3.42,0,0,1,262.12,265.62Z"/><path class="cls-3" d="M25.34,281.27a3.55,3.55,0,0,1,2.09,3.27C25.61,284,25.43,283.68,25.34,281.27Z"/><path class="cls-3" d="M42.77,281.14a3.63,3.63,0,0,1-2,3.81C40.47,283.12,41.25,282.17,42.77,281.14Z"/><path class="cls-3" d="M101.31,284.86c-2.06-1.33-2.06-1.33-2.11-3.5C100.71,282,101.16,283.08,101.31,284.86Z"/><path class="cls-3" d="M116.48,281.42c.07,2,.07,2-1.67,3.24C114.48,282.88,114.61,282.62,116.48,281.42Z"/><path class="cls-3" d="M174.9,284.8a3.15,3.15,0,0,1-2-3.28C174.77,282.33,174.92,282.58,174.9,284.8Z"/><path class="cls-3" d="M188.38,284.75a3.32,3.32,0,0,1,1.81-3.42C190.5,283.3,190.38,283.53,188.38,284.75Z"/><path class="cls-3" d="M246.9,281.37a3.25,3.25,0,0,1,2.07,3.21C247.09,283.89,246.92,283.62,246.9,281.37Z"/><path class="cls-3" d="M262.2,284.75a3.58,3.58,0,0,1,1.84-3.48C264.33,283.34,264.2,283.58,262.2,284.75Z"/><path class="cls-3" d="M3.66,286.94c1.93.77,2.12,1.09,2.05,3.27A3.39,3.39,0,0,1,3.66,286.94Z"/><path class="cls-3" d="M62.15,290.42c0-1.87.47-3,2.11-3.71C64.42,288.44,63.71,289.42,62.15,290.42Z"/><path class="cls-3" d="M79.59,290.19c-1.53-.56-1.88-1.77-2.18-3.24C79.39,287.65,79.59,288,79.59,290.19Z"/><path class="cls-3" d="M138.16,286.79c-.35,2.19-.35,2.19-1.87,3.32C136,288.27,136.14,288,138.16,286.79Z"/><path class="cls-3" d="M151.35,287c1.91.73,2.1,1.05,2.06,3.25A3.36,3.36,0,0,1,151.35,287Z"/><path class="cls-3" d="M209.85,290.38a3.52,3.52,0,0,1,2.18-3.77A3.79,3.79,0,0,1,209.85,290.38Z"/><path class="cls-3" d="M227.29,290.3a3.7,3.7,0,0,1-2.1-3.28C227,287.59,227.24,287.9,227.29,290.3Z"/><path class="cls-3" d="M285.78,286.85c-1.93,1.11-2.09,1.45-1.8,3.34a3.3,3.3,0,0,0,1.8-2.46Z"/><path class="cls-3" d="M242.07,126c-1.38,1.16-2.56,1-4,.13A3.14,3.14,0,0,1,242.07,126Z"/><path class="cls-3" d="M273,126a3,3,0,0,1-4,.2C270.37,125,271.56,125.27,273,126Z"/><path class="cls-3" d="M62.18,132.19a3.62,3.62,0,0,1,2.14,3.56C62.62,135.12,62.13,134,62.18,132.19Z"/><path class="cls-3" d="M138.13,135.78a3,3,0,0,1-2.09-3.42C137.66,133,138.17,134.07,138.13,135.78Z"/><path class="cls-3" d="M212,135.78a3,3,0,0,1-2.09-3.42A3.09,3.09,0,0,1,212,135.78Z"/><path class="cls-3" d="M285.78,134.92a2.91,2.91,0,0,0-2.07-2.56,3,3,0,0,0,2.07,3.38Z"/><path class="cls-3" d="M25.26,141.31c-.07-1.8.41-2.89,2-3.47C27.15,139.85,27.15,139.85,25.26,141.31Z"/><path class="cls-3" d="M42.56,141.17a3.34,3.34,0,0,1-2-3.13C42.48,138.62,42.74,139,42.56,141.17Z"/><path class="cls-3" d="M101,138a2.87,2.87,0,0,1-1.76,3.26C98.82,139.48,99.72,138.63,101,138Z"/><path class="cls-3" d="M114.7,138c1.42.63,2.16,1.56,1.84,3.17A2.75,2.75,0,0,1,114.7,138Z"/><path class="cls-3" d="M173.05,141.25c-.33-1.76.43-2.69,1.88-3.58A3.11,3.11,0,0,1,173.05,141.25Z"/><path class="cls-3" d="M190.55,141.36c-2-1.49-2-1.49-2.07-3.51C190.08,138.4,190.47,139.54,190.55,141.36Z"/><path class="cls-3" d="M248.9,137.56c-.33,2.47-.33,2.47-2,3.57C246.55,139.49,247.33,138.58,248.9,137.56Z"/><path class="cls-3" d="M262.18,137.59c1.64.94,2.27,1.94,2.12,3.58C262.54,140.05,262.54,140.05,262.18,137.59Z"/><path class="cls-3" d="M25.29,153.52a3.61,3.61,0,0,1,2.17,3C25.91,156.65,25.52,156.17,25.29,153.52Z"/><path class="cls-3" d="M99.08,153.38c2,1.67,2,1.67,1.92,3.59C99.5,156.3,99,155.2,99.08,153.38Z"/><path class="cls-3" d="M175.07,157.15c-1.64-.91-2.33-1.88-2-3.49C174.69,154.72,174.69,154.72,175.07,157.15Z"/><path class="cls-3" d="M246.74,153.44A3.75,3.75,0,0,1,249,157C247.16,156.4,246.77,155.26,246.74,153.44Z"/><path class="cls-3" d="M16.45,168.7c1.53-1,2.71-1.12,4,0C18.68,169.58,18.68,169.58,16.45,168.7Z"/><path class="cls-3" d="M51.62,168.73a3.67,3.67,0,0,1-3.94.17C49.18,167.61,49.18,167.61,51.62,168.73Z"/><path class="cls-3" d="M90.22,168.75c1.6-1,2.78-1.17,4.16,0C93,169.63,91.86,169.55,90.22,168.75Z"/><path class="cls-3" d="M121.23,168.76a3,3,0,0,1,4.11,0A3.64,3.64,0,0,1,121.23,168.76Z"/><path class="cls-3" d="M164.07,168.75c1.59-1,2.77-1.17,4.15,0C166.87,169.63,165.71,169.55,164.07,168.75Z"/><path class="cls-3" d="M195,168.71c1.6-1,2.77-1.09,4.17.08A3.77,3.77,0,0,1,195,168.71Z"/><path class="cls-3" d="M242.31,168.67a3.85,3.85,0,0,1-4.26.11C239.45,167.57,240.63,167.78,242.31,168.67Z"/><path class="cls-3" d="M272.94,168.81a3.78,3.78,0,0,1-3.75.19C270.63,167.58,271,167.56,272.94,168.81Z"/><path class="cls-3" d="M16.47,211.2c2.32-.83,2.32-.83,4,.13C19.15,212.31,18,212.27,16.47,211.2Z"/><path class="cls-3" d="M47.71,211.23c1.64-.86,1.64-.86,3.49-.12C49.84,212.34,49.39,212.36,47.71,211.23Z"/><path class="cls-3" d="M90.1,211.32c1.73-.94,2.89-1,4.3-.13C93,212.4,91.85,212.12,90.1,211.32Z"/><path class="cls-3" d="M121.22,211.17c1.63-.78,2.8-.86,4.1.09A3,3,0,0,1,121.22,211.17Z"/><path class="cls-3" d="M164.24,211.27a3.09,3.09,0,0,1,4,0A3,3,0,0,1,164.24,211.27Z"/><path class="cls-3" d="M199.17,211.29a3,3,0,0,1-4-.06A3.1,3.1,0,0,1,199.17,211.29Z"/><path class="cls-3" d="M238,211.33c2.14-1,2.14-1,4-.08C240.72,212.37,239.54,212.17,238,211.33Z"/><path class="cls-3" d="M268.85,211.29a3.65,3.65,0,0,1,4.17-.12C271.66,212.36,270.48,212.19,268.85,211.29Z"/><path class="cls-3" d="M64.26,221.1c-1.51-.92-2.19-1.86-2.09-3.35C64,218.42,64,218.46,64.26,221.1Z"/><path class="cls-3" d="M135.9,217.37c2,1.41,2,1.41,2.15,3.48C136.43,220.33,136.06,219.18,135.9,217.37Z"/><path class="cls-3" d="M212,221.14c-1.57-1-2.35-1.91-2-3.55C211.64,218.65,211.64,218.65,212,221.14Z"/><path class="cls-3" d="M285.78,220a3,3,0,0,0-2.09-2.51,3.32,3.32,0,0,0,2.09,3.49Z"/><path class="cls-3" d="M25.3,226.5c-.21-1.89.53-2.82,2.08-3.76A3.72,3.72,0,0,1,25.3,226.5Z"/><path class="cls-3" d="M40.67,222.94a3,3,0,0,1,2.09,3.41A3.11,3.11,0,0,1,40.67,222.94Z"/><path class="cls-3" d="M101,223.15a2.87,2.87,0,0,1-1.77,3.25C98.82,224.64,99.72,223.79,101,223.15Z"/><path class="cls-3" d="M114.71,223.17a2.76,2.76,0,0,1,1.91,3.15A2.66,2.66,0,0,1,114.71,223.17Z"/><path class="cls-3" d="M175,222.74a3.52,3.52,0,0,1-2,3.75C172.71,224.62,173.53,223.72,175,222.74Z"/><path class="cls-3" d="M188.25,222.68c1.69,1,2.34,2,2.22,3.64C188.84,225.75,188.41,224.64,188.25,222.68Z"/><path class="cls-3" d="M246.79,226.42a3.34,3.34,0,0,1,1.76-3.47C248.9,224.8,248.84,224.93,246.79,226.42Z"/><path class="cls-3" d="M264.12,226.32a3.27,3.27,0,0,1-2-3.08C264,223.73,264.24,224.15,264.12,226.32Z"/><path class="cls-3" d="M27.38,242.31c-1.64-.91-2.33-1.87-2.05-3.49C27,239.89,27,239.89,27.38,242.31Z"/><path class="cls-3" d="M101.22,242.16a3,3,0,0,1-2.12-3.4A3.17,3.17,0,0,1,101.22,242.16Z"/><path class="cls-3" d="M175.07,242.31c-1.64-.91-2.34-1.87-2-3.49C174.69,239.89,174.69,239.89,175.07,242.31Z"/><path class="cls-3" d="M249,242.37c-1.74-1-2.44-1.93-2.13-3.63C248.34,239.38,248.82,240.46,249,242.37Z"/><path class="cls-3" d="M16.38,253.91c1.6-1,2.78-1.16,4.15,0C19.18,254.8,18,254.71,16.38,253.91Z"/><path class="cls-3" d="M51.38,254a3.5,3.5,0,0,1-3.7,0C49.21,252.75,49.6,252.74,51.38,254Z"/><path class="cls-3" d="M90.34,254a3,3,0,0,1,4-.21C93,254.94,91.85,254.67,90.34,254Z"/><path class="cls-3" d="M125.44,253.86c-2.24.88-2.24.88-4,0C122.72,252.75,123.9,252.9,125.44,253.86Z"/><path class="cls-3" d="M168.43,253.85c-2.33.89-2.33.89-4.08,0C165.64,252.74,166.82,252.93,168.43,253.85Z"/><path class="cls-3" d="M199.34,253.9a4,4,0,0,1-4.22.07C196.56,252.75,197.74,252.9,199.34,253.9Z"/><path class="cls-3" d="M237.93,253.94c1.56-1.07,2.75-1.17,4.13,0C240.73,254.81,239.57,254.71,237.93,253.94Z"/><path class="cls-3" d="M272.91,254a3.5,3.5,0,0,1-3.7,0C270.74,252.75,271.13,252.74,272.91,254Z"/><path class="cls-3" d="M20.53,40.93a3,3,0,0,1-4,0A3.1,3.1,0,0,1,20.53,40.93Z"/><path class="cls-3" d="M47.34,40.92a4.16,4.16,0,0,1,4.26-.15C50.12,42,48.93,41.88,47.34,40.92Z"/><path class="cls-3" d="M90.49,40.83a3.33,3.33,0,0,1,3.69-.13C92.77,42,92.35,42,90.49,40.83Z"/><path class="cls-3" d="M125.33,40.89a3,3,0,0,1-4,.08C122.7,39.9,123.9,40,125.33,40.89Z"/><path class="cls-3" d="M168.3,40.9c-1.48,1-2.67,1.07-4,.07C166.1,40,166.1,40,168.3,40.9Z"/><path class="cls-3" d="M199.24,40.92a3.2,3.2,0,0,1-4.07.09C197,40,197,40,199.24,40.92Z"/><path class="cls-3" d="M242.4,40.8c-2.36,1.09-2.36,1.09-4.22.16C239.43,39.82,240.63,40.19,242.4,40.8Z"/><path class="cls-3" d="M268.84,40.94a3.68,3.68,0,0,1,4.18-.1C271.67,42,270.49,41.86,268.84,40.94Z"/><path class="cls-3" d="M62.22,47.1a3.46,3.46,0,0,1,2.13,3.25C62.52,49.72,62.45,49.62,62.22,47.1Z"/><path class="cls-3" d="M135.94,47a3.67,3.67,0,0,1,2.22,3.62C136.44,50,136,48.85,135.94,47Z"/><path class="cls-3" d="M209.86,47A3.63,3.63,0,0,1,212,50.58C210.31,50,209.82,48.87,209.86,47Z"/><path class="cls-3" d="M285.64,50.37a2.77,2.77,0,0,1-1.93-3.14A2.66,2.66,0,0,1,285.64,50.37Z"/><path class="cls-3" d="M27.32,52.57a3.08,3.08,0,0,1-2,3.46A3,3,0,0,1,27.32,52.57Z"/><path class="cls-3" d="M40.51,52.54A3.23,3.23,0,0,1,42.83,56C41.08,55.42,40.78,54.22,40.51,52.54Z"/><path class="cls-3" d="M101,52.82a2.86,2.86,0,0,1-1.76,3.25C98.82,54.31,99.72,53.46,101,52.82Z"/><path class="cls-3" d="M116.6,56a3.14,3.14,0,0,1-2.09-3.42A3,3,0,0,1,116.6,56Z"/><path class="cls-3" d="M175.07,52.28c-.35,2.58-.35,2.58-2,3.69C172.67,54.3,173.56,53.44,175.07,52.28Z"/><path class="cls-3" d="M190.44,56a3.11,3.11,0,0,1-2.08-3.41A3,3,0,0,1,190.44,56Z"/><path class="cls-3" d="M249,52.33c-.15,2-.63,3-2.1,3.72C246.55,54.32,247.34,53.41,249,52.33Z"/><path class="cls-3" d="M262.17,52.61A3,3,0,0,1,264.3,56C262.68,55.38,262.2,54.29,262.17,52.61Z"/><path class="cls-3" d="M25.29,68.41a3.14,3.14,0,0,1,2.05,3.42A2.93,2.93,0,0,1,25.29,68.41Z"/><path class="cls-3" d="M99.06,68.31c1.88,1.4,1.88,1.4,2,3.43C99.47,71.23,99.08,70.09,99.06,68.31Z"/><path class="cls-3" d="M175,71.55c-1.81-1-1.81-1-1.93-3.09C174.6,69,174.92,70.2,175,71.55Z"/><path class="cls-3" d="M248.87,72c-1.57-.87-2.19-1.85-2.11-3.32C248.54,69.34,248.54,69.34,248.87,72Z"/><path class="cls-3" d="M16.43,83.72c1.5-1.33,2.68-1.1,4.15-.32C19.19,84.62,18,84.26,16.43,83.72Z"/><path class="cls-3" d="M47.76,83.59c1.16-1.07,2.31-1,3.69-.17C50.13,84.63,49,84.27,47.76,83.59Z"/><path class="cls-3" d="M90.28,83.51c1.56-.92,2.74-1.1,4,0C92.5,84.41,92.5,84.41,90.28,83.51Z"/><path class="cls-3" d="M125.45,83.56a3.92,3.92,0,0,1-4,.22C123,82.44,123,82.44,125.45,83.56Z"/><path class="cls-3" d="M164.09,83.61c1.56-1.07,2.74-1.17,4.13,0C166.89,84.48,165.73,84.38,164.09,83.61Z"/><path class="cls-3" d="M195.11,83.57c1.48-1.08,2.66-1.09,3.95-.09C197.31,84.41,197.31,84.41,195.11,83.57Z"/><path class="cls-3" d="M238,83.71c1.51-1.31,2.69-1.1,4.15-.31C240.72,84.62,239.53,84.26,238,83.71Z"/><path class="cls-3" d="M269,83.58a2.91,2.91,0,0,1,4-.07A3.19,3.19,0,0,1,269,83.58Z"/><path class="cls-3" d="M16.56,126.12a3.1,3.1,0,0,1,4-.05A3,3,0,0,1,16.56,126.12Z"/><path class="cls-3" d="M51.62,125.89c-1.51,1.36-2.7,1.08-4.17.36C48.84,125,50,125.39,51.62,125.89Z"/><path class="cls-3" d="M90.49,126a3.31,3.31,0,0,1,3.68-.14C92.77,127.18,92.35,127.2,90.49,126Z"/><path class="cls-3" d="M121.21,126a3.59,3.59,0,0,1,4.12,0C123.94,127.14,122.74,127.1,121.21,126Z"/><path class="cls-3" d="M168.32,126c-1.49,1.18-2.68,1-4.19.11A3.59,3.59,0,0,1,168.32,126Z"/><path class="cls-3" d="M195.18,126.07a3.11,3.11,0,0,1,4,.05A3,3,0,0,1,195.18,126.07Z"/><path class="cls-3" d="M14.55,190a3.21,3.21,0,0,1-4,.07A3.22,3.22,0,0,1,14.55,190Z"/><path class="cls-3" d="M53.81,189.75a3,3,0,0,1,3.41,0C55.69,191.1,55.22,191.1,53.81,189.75Z"/><path class="cls-3" d="M88.33,190a3,3,0,0,1-3.6.28C85.8,189,86,188.94,88.33,190Z"/><path class="cls-3" d="M131.37,190a3.29,3.29,0,0,1-4.06.06A3.26,3.26,0,0,1,131.37,190Z"/><path class="cls-3" d="M161.92,190.15a2.79,2.79,0,0,1-3.38.06C159.85,188.89,160.41,188.88,161.92,190.15Z"/><path class="cls-3" d="M201.16,190c1.52-.87,2.64-.93,4,0A3.1,3.1,0,0,1,201.16,190Z"/><path class="cls-3" d="M236.13,189.9a3.13,3.13,0,0,1-4,.14C233.38,189,234.51,189.11,236.13,189.9Z"/><path class="cls-3" d="M275.19,189.89a3,3,0,0,1,3.6-.09C277.2,191.05,277.2,191.05,275.19,189.89Z"/><path class="cls-3" d="M14.64,275.07c-1.59,1-2.71,1-4.05.1C11.93,274.14,13.05,274.3,14.64,275.07Z"/><path class="cls-3" d="M53.81,274.91a3,3,0,0,1,3.41,0C55.69,276.27,55.22,276.26,53.81,274.91Z"/><path class="cls-3" d="M88.4,275.1a3.21,3.21,0,0,1-4,.1C85.75,274.18,86.87,274.24,88.4,275.1Z"/><path class="cls-3" d="M131.39,275.12a3.11,3.11,0,0,1-4,0A3.27,3.27,0,0,1,131.39,275.12Z"/><path class="cls-3" d="M162.27,275.08a3.1,3.1,0,0,1-4,.1C159.57,274.16,160.7,274.26,162.27,275.08Z"/><path class="cls-3" d="M205,275.24a2.89,2.89,0,0,1-3.57.08C203,274.1,203.09,274.1,205,275.24Z"/><path class="cls-3" d="M235.94,275.21a2.9,2.9,0,0,1-3.58.14C233.72,274.11,233.82,274.1,235.94,275.21Z"/><path class="cls-3" d="M278.85,275.25a2.84,2.84,0,0,1-3.56.05C276.92,274.09,277,274.09,278.85,275.25Z"/><path class="cls-3" d="M131.19,104.91a2.89,2.89,0,0,1-3.57.08C129.14,103.77,129.25,103.77,131.19,104.91Z"/><path class="cls-3" d="M84.44,104.74a3.26,3.26,0,0,1,3.67-.16C86.63,105.87,86.59,105.87,84.44,104.74Z"/><path class="cls-3" d="M57.41,104.88a2.87,2.87,0,0,1-3.58.12C55.15,103.79,55.31,103.78,57.41,104.88Z"/><path class="cls-3" d="M10.59,104.79c1.89-.81,1.89-.81,3.59-.18C12.92,105.85,12.81,105.86,10.59,104.79Z"/><path class="cls-3" d="M278.84,104.92a3,3,0,0,1-3.6.08C276.93,103.76,277,103.76,278.84,104.92Z"/><path class="cls-3" d="M232.11,104.88c2-1,2-1,3.82,0A3.06,3.06,0,0,1,232.11,104.88Z"/><path class="cls-3" d="M205.1,104.88a2.87,2.87,0,0,1-3.58.12C202.83,103.79,203,103.78,205.1,104.88Z"/><path class="cls-3" d="M162.13,104.89c-1.92.78-1.92.78-3.59.11C159.88,103.78,160,103.77,162.13,104.89Z"/><path class="cls-3" d="M279.24,62.25c-1.76.85-2.93,1-4.16,0C276.4,61.15,277.61,61.37,279.24,62.25Z"/><path class="cls-3" d="M236.06,62.21a3,3,0,0,1-3.93,0A3,3,0,0,1,236.06,62.21Z"/><path class="cls-3" d="M205.21,62.22c-2.09.9-2.09.9-3.94,0C202.54,61.21,203.73,61.32,205.21,62.22Z"/><path class="cls-3" d="M158.28,62.27a3.06,3.06,0,0,1,3.94-.09A3.06,3.06,0,0,1,158.28,62.27Z"/><path class="cls-3" d="M131.28,62.19c-1.33,1.06-2.52.93-3.94.09A3,3,0,0,1,131.28,62.19Z"/><path class="cls-3" d="M88.66,62.19c-1.74.92-2.91,1-4.2.07C85.78,61.12,87,61.43,88.66,62.19Z"/><path class="cls-3" d="M53.43,62.21a3.21,3.21,0,0,1,3.83-.16C55.85,63.19,55.72,63.2,53.43,62.21Z"/><path class="cls-3" d="M14.54,62.28c-1.41.84-2.61,1-3.93-.09A3,3,0,0,1,14.54,62.28Z"/><path class="cls-3" d="M10.54,147.38a3.16,3.16,0,0,1,3.81-.16C12.89,148.36,12.74,148.37,10.54,147.38Z"/><path class="cls-3" d="M53.4,147.45c2.12-1,2.12-1,4-.08C56.13,148.43,55,148.24,53.4,147.45Z"/><path class="cls-3" d="M84.45,147.38a3,3,0,0,1,3.93,0A3,3,0,0,1,84.45,147.38Z"/><path class="cls-3" d="M131.41,147.44c-1.57.86-2.73.9-4,0C128.71,146.39,129.9,146.46,131.41,147.44Z"/><path class="cls-3" d="M162.22,147.36a3.07,3.07,0,0,1-3.94.07A3,3,0,0,1,162.22,147.36Z"/><path class="cls-3" d="M201,147.4c1.58-.93,2.74-1,4.06-.05C203.79,148.43,202.61,148.25,201,147.4Z"/><path class="cls-3" d="M10.61,232.54a3,3,0,0,1,3.92,0A3,3,0,0,1,10.61,232.54Z"/><path class="cls-3" d="M57.51,232.58a3.29,3.29,0,0,1-3.84.16C55.18,231.57,55.26,231.57,57.51,232.58Z"/><path class="cls-3" d="M88.38,232.57a3.05,3.05,0,0,1-3.93,0A3,3,0,0,1,88.38,232.57Z"/><path class="cls-3" d="M131.36,232.52c-1.47,1.08-2.65.88-4.11.11A3.24,3.24,0,0,1,131.36,232.52Z"/><path class="cls-3" d="M162.29,232.43c-1.42,1.23-2.62.91-4.11.28C159.63,231.44,160.83,231.76,162.29,232.43Z"/><path class="cls-3" d="M201,232.59c1.55-.93,2.74-1.07,4.06,0C203.8,233.54,202.64,233.44,201,232.59Z"/><path class="cls-3" d="M236.22,232.55a3.44,3.44,0,0,1-4.09.08C233.46,231.52,234.64,231.69,236.22,232.55Z"/><path class="cls-3" d="M274.93,232.65a3.25,3.25,0,0,1,4.11-.15C277.59,233.62,276.4,233.38,274.93,232.65Z"/><path class="cls-3" d="M236.19,147.42a3.83,3.83,0,0,1-4.16.09C233.47,146.37,234.66,146.49,236.19,147.42Z"/><path class="cls-3" d="M279,147.41a3.05,3.05,0,0,1-3.93,0A3,3,0,0,1,279,147.41Z"/><path class="cls-3" d="M275,19.67a3.27,3.27,0,0,1,4-.06A3.18,3.18,0,0,1,275,19.67Z"/><path class="cls-3" d="M235.94,19.7a2.88,2.88,0,0,1-3.58.15C233.72,18.61,233.81,18.61,235.94,19.7Z"/><path class="cls-3" d="M201.16,19.62c1.53-.87,2.64-.94,4,0A3.09,3.09,0,0,1,201.16,19.62Z"/><path class="cls-3" d="M158.2,19.69a3.2,3.2,0,0,1,4-.07A3.19,3.19,0,0,1,158.2,19.69Z"/><path class="cls-3" d="M131.25,19.72a2.89,2.89,0,0,1-3.58.12C129,18.62,129.16,18.61,131.25,19.72Z"/><path class="cls-3" d="M88.21,19.73a2.9,2.9,0,0,1-3.58.1C86.17,18.6,86.2,18.6,88.21,19.73Z"/><path class="cls-3" d="M57.35,19.74a2.89,2.89,0,0,1-3.57.08C55.3,18.6,55.4,18.6,57.35,19.74Z"/><path class="cls-3" d="M10.51,19.66a3.24,3.24,0,0,1,4,0A3.15,3.15,0,0,1,10.51,19.66Z"/></g></svg>