<svg id="Layer_1" data-name="Layer 1" xmlns="http://www.w3.org/2000/svg" viewBox="0 0 710.03 816.49"><defs><style>.cls-1,.cls-5{fill:#c04e9c;}.cls-1,.cls-2{fill-rule:evenodd;}.cls-2,.cls-3{fill:#14477e;}.cls-4{fill:#c8a1ca;}.cls-6{fill:gray;}</style></defs><title>healthandlove_logo2017</title><path class="cls-1" d="M309.72,58.28c0,28.09-18.17,50.86-50.86,50.86A50.86,50.86,0,0,1,208,58.28c0-28.09,17.93-50.86,50.86-50.86A50.86,50.86,0,0,1,309.72,58.28Z" transform="translate(-6.83 -2)"/><path class="cls-2" d="M523.73,48.52A46.52,46.52,0,0,1,477.2,95c-25.69,0-46.52-15.31-46.52-46.52A46.52,46.52,0,0,1,477.2,2C502.9,2,523.73,18.35,523.73,48.52Z" transform="translate(-6.83 -2)"/><path class="cls-3" d="M561.52,205.06a142.85,142.85,0,0,0-10.88-38.51c-12-26.48-33-42.4-53.91-48.71-35.69-10.78-74.29,4.49-100.65,29-7.93,7.36-14.77,15.78-21.41,24.31-1.69,2.17-17.78,21.25-16.88,22.6,8,12,20.75-8.11,29.64,6.3,5.3-7.72-2.14-3.91,10.82-15.55,12.69-11.4,26.53-22.17,41.92-29.69,37.35-18.26,77.55-2,89.23,38.62,20.92,72.83-9.64,154.71-55,211.81-20.29,25.54-43.78,48.21-67.36,70.65-10,9.55-7.9,35.8,42-7C495.53,429,538.11,366.68,556.43,290.6,562.94,263.55,565.59,233.2,561.52,205.06Z" transform="translate(-6.83 -2)"/><path class="cls-4" d="M403,231.56s0-.07,0-.1Z" transform="translate(-6.83 -2)"/><path class="cls-4" d="M417.42,237.55c.42.2-7.16,18.75-8.36,20.43-16.94,23.66-51.83.24-43-25,4-11.38,15.54-31,28.5-33.61.25.94-.69,6.6-1.55,4.21a57.4,57.4,0,0,0-15.48-23.08c-1.36-1.23-3-2.46-4.8-2.38s-3.2-.29-4.47.93c-14,13.47-26,32.59-28.92,52-5.39,36.44,33.77,72.62,68.5,50.44,4.88-3.11,8.93-7,11.24-12.34C422.43,261.39,425.39,241.27,417.42,237.55Z" transform="translate(-6.83 -2)"/><path class="cls-5" d="M403,231.56s0-.07,0-.1Z" transform="translate(-6.83 -2)"/><path class="cls-5" d="M423.87,227.82c-2-12.67-6.91-23.73-12.74-35.15-.38-.74-.61-1.5-1-2.23a126.82,126.82,0,0,0-11.81-17.63c-21.86-27.44-50.9-50.74-86.46-55.5C241.18,107.85,173.34,163.66,163.22,223c-17.64,103.4,71.15,198.64,164.1,233.74,76.64,28.95,73.14,10.43,58.92,1.18-10.89-7.08-24.06-11.07-36-16-13-5.41-25.3-13.48-37-21.36-57-38.29-124.13-98.57-119.47-173.1h0c3.75-56,54.27-101.57,107.72-95.18,32.76,3.92,64.54,22.91,86,47.74,8.13,9.42,16.2,19.81,21.25,31.48,5.76,13.32,4.31,27.06,7.43,40.89l.33,1.45c.29-.45.41-.65.94-1.5a33,33,0,0,0,1.75-3.22,74.55,74.55,0,0,0,5.07-38.95Q424.05,229,423.87,227.82Z" transform="translate(-6.83 -2)"/><path class="cls-3" d="M53.35,541.77c0,14.54-.22,36.69-.45,66q-.67,44.29-.67,66.44a4.47,4.47,0,1,1-8.95,0c0-13.87.22-35.12.67-64.2,0-2.91-1.57-4.7-4.7-4.47-2.68.22-5.82.45-9.17.67-3.58.22-6.49.22-8.72.45-2.68,0-4.25,1.79-4.25,4.7.22,29.31.22,50.78.22,64.88a4.47,4.47,0,0,1-8.95,0c0-14.76,0-37.14-.22-66.89s-.22-51.9-.22-66.89a4.47,4.47,0,1,1,8.95,0c0,13.2,0,30.2.22,50.78,0,2.91,1.57,4.47,4.47,4.47,4.92-.22,12.53-.67,18.12-.89,2.91-.22,4.25-2,4.25-4.7.22-20.58.45-37.36.45-50.33a4.47,4.47,0,1,1,8.95,0Z" transform="translate(-6.83 -2)"/><path class="cls-3" d="M77.73,544c-2.46,0-3.8,0-3.8.22a13.51,13.51,0,0,0-.9,4c-.67,6.93-.22,15.66.9,27.52.45,5.59.67,9.17.67,10.29v7.61c-.22,3.13,1.34,4.7,4.25,4.7a46.82,46.82,0,0,0,5.82-.22,4.48,4.48,0,0,1,.45,8.95,60.85,60.85,0,0,1-6.71.22c-2.91,0-4.47,1.57-4.7,4.47-.67,20.58-1.12,37.81-.22,50.11.22,3.8.45,6.71,1.12,8.72,0,.22.22.67.22.89,0,.45,1.12,1.12,3.58,1.57,4.7.67,10.29,0,16.78-.45,3.36-.22,5.82-.45,7.38-.45a4.47,4.47,0,1,1,0,8.95c-1.34,0-3.58.22-6.71.45-4,.22-6.94.45-8.5.45q-11.07.67-16.78-2c-2.91-1.12-4-4-4.7-7.38a49.88,49.88,0,0,1-1.34-10.07c-.89-13.65-.45-33.11.22-47.87.22-7.38.45-13.42.67-18.57.22-4.92.22-8.28.22-10.07q0-1.34-.67-9.4c-1.12-12.3-1.57-22.15-.9-29.31.67-4.7,1.57-9.17,4.92-11.19a8.66,8.66,0,0,1,4-1.12H87.58c10.74.45,16.55.67,17.45.45a4.39,4.39,0,0,1,4.92,4,4.28,4.28,0,0,1-.9,3.36,6,6,0,0,1-3.13,1.57c-1.12.22-7.38,0-18.57-.45H77.73Z" transform="translate(-6.83 -2)"/><path class="cls-3" d="M159.61,571.74A759.23,759.23,0,0,1,167,676.66a4.47,4.47,0,0,1-8.95,0q0-31.88-2.68-63.76c-.22-2.91-1.79-4.25-4.7-4.47-5.59-.45-11.19-.67-16.78-.89a4.06,4.06,0,0,0-4.7,4c-.67,8.72-1.79,21-2.91,36.46-1.12,16.78-2,26.4-2.46,28.86-.22,2.46-2.68,4-5.15,3.8s-4-2.68-3.8-5.15c.22-2,1.12-11.41,2.46-28.19,2.91-37.58,5.15-64,8.95-83.44,2.46-11.86,5.37-21,10.74-23.71,9.84-5.15,16.33,1.34,19.24,11A122.77,122.77,0,0,1,158.94,567Zm-24.38,26.85c4.47,0,8.95.22,13.65.45,3.13.22,4.92-1.34,4.7-4.47-.9-7.16-1.79-14.32-2.91-21.48,0-1.12-.67-8.28-1.34-13A44.2,44.2,0,0,0,146.19,550c-.9-1.79-2.24-3.36-4-2.46-1.12.67-2.46,2.24-3.58,5.15a90.78,90.78,0,0,0-3.58,13c-1.34,7.38-2.68,16.55-4,28C130.75,596.8,132.09,598.36,135.22,598.59Z" transform="translate(-6.83 -2)"/><path class="cls-3" d="M184.21,543.33c-.9,19.91-.9,41.61-.45,69.8.22,14.09.22,24.83.22,32,0,9.17,0,14.54.22,16.11a62.2,62.2,0,0,0,.89,8.28c0,.45.22.67.22,1.12.22.67,1.34,1.34,3.58,1.57a47.49,47.49,0,0,0,8.28.22c7.83-.45,13.2-.22,15.88.45a4.39,4.39,0,1,1-2.24,8.5c-2-.45-6.26-.45-13.2,0-7.38.22-12.75-.45-16.33-2-4.7-2.46-5.82-9.62-6-17.67-.22-1.57-.22-7.16-.22-16.55,0-7.16,0-17.9-.22-32.21-.45-28.41-.45-49.66.45-70a4.48,4.48,0,0,1,8.95.45Z" transform="translate(-6.83 -2)"/><path class="cls-3" d="M277.72,544.67a4.5,4.5,0,0,1-4.25,4.7c-4.25.22-10.51.22-18.57,0-3.13-.22-4.47,1.57-4.25,4.47a130,130,0,0,1,.45,16.78c-.22,4.7-.22,7.61-.22,8.95,0,6-.22,15.44-.67,28.63-1.12,26.17-1.12,46.08,1.34,62.19.22,2.46-1.34,4.92-3.8,5.14s-4.92-1.34-5.15-3.8c-2.46-16.78-2.46-37.36-1.34-64.2.45-13.2.67-22.59.67-28,0-2,0-5.15.22-9.84,0-4,.22-6.93.22-9.62,0,6-1.34-4.47-1.34-6.71,0-2.91-1.57-4.47-4.47-4.47a95.58,95.58,0,0,0-11.86.45,4.41,4.41,0,0,1-4.92-4.25,4.31,4.31,0,0,1,4-4.7c6-.45,14.32-.45,25.06-.22,11.41.45,19.46.45,24.16.22A4.5,4.5,0,0,1,277.72,544.67Z" transform="translate(-6.83 -2)"/><path class="cls-3" d="M304.12,606.64c-2.91,0-4.47,1.57-4.25,4.47.22,4.7.22,10.29.45,17,.67,18.57,1.12,33.33,1.12,46.75a4.47,4.47,0,1,1-8.95,0c0-9.62-.22-23-.9-40.71-1.12-35.12-1.57-36-.67-61.07.45-12.08.45-21,.22-26.85a4.41,4.41,0,0,1,4.47-4.7,4.3,4.3,0,0,1,4.47,4.25c.22,6.49.22,15.66-.22,27.52-.22,8.5-.45,15.21-.45,19.91,0,2.91,1.57,4.47,4.47,4.47h21c2.91,0,4.47-1.57,4.7-4.47,0-6.94.22-11.86.22-15.44,0-2,0-4.7.22-8.05s.22-6.26.22-8.28c0-4-.45-10.07-2-13.87a4.68,4.68,0,0,1,2.91-5.82c2.24-.9,4.7.67,5.59,2.68,1.79,5.14,2.46,12.53,2.46,17,0,2.46,0,5.37-.22,8.95s-.22,6-.22,7.38c0,4.25-.22,12.3-.45,23.71-.45,11.41-.67,20.13-.9,25.73-.22,21.92.67,37.14,2.68,45.86a4.4,4.4,0,0,1-8.5,2.24c-2.46-9.4-3.36-25.5-3.13-48.32.22-4.25.45-9.62.45-15.66.22-3.13-1.34-4.7-4.25-4.7Z" transform="translate(-6.83 -2)"/><path class="cls-4" d="M437.34,612.06q14.58,0,21.68-2.43,5.42,1.12,5.42,5,0,5.24-10,5.23l-.56-.09h-4.77q0,30.56-7.85,40.93,5.7,5.89,12.15,5.89l7.76-.56,3.55,2.9q0,3.83-2.66,5.09a16.64,16.64,0,0,1-7.06,1.26q-8.6,0-18.5-7.2-10.75,7.29-19.86,7.29a24.16,24.16,0,0,1-15.37-4.91,34.44,34.44,0,0,1-12.8-25.33,97.44,97.44,0,0,1,.51-10.65q.51-4.63,1-7.9a44.42,44.42,0,0,1,2.1-8q1.63-4.72,2.38-6.78t3.36-7.66q3.36-6.92,7.66-15.42l-1.31-26.26V546.64q0-7,3.36-10.42t9.53-3.41q6.17,0,12.43,5.14T435.75,550a52.87,52.87,0,0,1-3.88,20.7,68.94,68.94,0,0,1-11.64,18.18,25.34,25.34,0,0,1-1.78,2.71q-3.08,4.3-3.08,6.45,0,8.32,7.06,29.91t12.1,26.92q6-13.65,6-33.83v-.84q-1.4,0-1.78-.56c-.25-.37-.42-.62-.51-.75a5.76,5.76,0,0,1-.47-1c-.22-.53-.36-.86-.42-1Zm-29.91-8.69q-10.09,15.89-10.09,37.38a37,37,0,0,0,4.3,17.76q4.77,9,15,9a23.45,23.45,0,0,0,7.57-1.59,17.41,17.41,0,0,0,6.45-3.55Q412.95,636.83,407.44,603.37Zm5.42-46.92.28,25.7v2.15a99,99,0,0,0,9.44-14.49q4.58-8.41,4.58-12.66t-3.08-9.91q-3.08-5.65-6.12-5.65t-5.09,4.67Z" transform="translate(-6.83 -2)"/><path class="cls-5" d="M516.36,670.85a4.36,4.36,0,0,0,.22,1.79c.22.22.45.22.89.22,2,.22,4.7.22,8.28.45h14.76a4.47,4.47,0,1,1,0,8.95h-15c-3.8-.22-6.71-.22-8.95-.45-2.91-.22-6-.67-7.61-2.68a9.09,9.09,0,0,1-1.12-2v-.67a3.32,3.32,0,0,1-.22-1.57,25.76,25.76,0,0,0-.22-3.8v-30c-.22-7.38,0-17.23.22-29.75.67-25.06.45-45.19-2-63.09-.22-2.68,1.34-4.92,4-5.15a4.35,4.35,0,0,1,4.92,3.8c2.46,18.79,2.68,39.6,2,64.88-.22,12.75-.45,22.37-.22,29.31Z" transform="translate(-6.83 -2)"/><path class="cls-5" d="M600.7,582.7c1.57,39.37.45,60.18-3.8,74.72-2.46,10.07-6.49,16.55-11.63,19.91-7.16,4.47-13.87,2.91-19-3.13-3.58-4.25-6.71-11.19-9.4-20.58-5.59-20.36-15.21-73.82-.22-103.35,3.36-6.49,10.51-12.75,17.67-14.32,11.63-2.46,19.24,4.92,23,15.66C599.81,558.54,600.93,567.27,600.7,582.7ZM591.75,572a61.56,61.56,0,0,0-2.91-17.45c-2.68-7.38-6.49-11.19-12.75-9.62-4.25.67-9.4,5.15-11.41,9.4-13.42,26-4.7,77.4.67,96.87,2.46,8.28,4.92,13.87,7.61,17.23,2.68,2.68,4.47,3.13,7.38,1.34,6.49-4.25,10.51-19.46,11.63-41.61C592.65,617.16,592,574,591.75,572Z" transform="translate(-6.83 -2)"/><path class="cls-5" d="M635.82,640.64c.45-3.13,1.12-9.17,2.24-18.34,1.79-18.12,2.68-23.71,4.92-38.7a257.31,257.31,0,0,1,8.5-38.7,4.46,4.46,0,1,1,8.5,2.68,285,285,0,0,0-8.05,37.36c-2.24,14.54-3.13,20.13-5.15,38.25s-3.8,34-4.47,37.81-1.12,6.94-1.79,9.17a12,12,0,0,1-2.46,5.37,5.63,5.63,0,0,1-4.47,1.34,7,7,0,0,1-2.68-1.57l-.67-1.34c-.22-.22-.22-.67-.45-1.12-.22-.67-.45-1.57-.89-2.68a75.32,75.32,0,0,1-2-8.28c-2-7.83-3.36-13.65-4-17.9-6.49-36.91-9.84-56.82-10.51-60-.45-3.13-.89-7.38-1.57-13a249.78,249.78,0,0,0-4.7-27.07,4.4,4.4,0,0,1,8.5-2.24c2.46,8.28,3.8,17,5.15,28.41.67,5.59,1.12,9.84,1.57,12.53.45,3.13,4,23,10.51,59.51a44.87,44.87,0,0,0,1.12,6c1.34,4.92,2.46-2.46,2.46-2.46Z" transform="translate(-6.83 -2)"/><path class="cls-5" d="M684.59,544c-2.46,0-3.8,0-3.8.22a13.52,13.52,0,0,0-.89,4c-.67,6.93-.22,15.66.89,27.52.45,5.59.67,9.17.67,10.29v7.61c-.22,3.13,1.34,4.7,4.25,4.7a46.82,46.82,0,0,0,5.82-.22,4.48,4.48,0,1,1,.45,8.95,60.83,60.83,0,0,1-6.71.22c-2.91,0-4.47,1.57-4.7,4.47-.67,20.58-1.12,37.81-.22,50.11.22,3.8.45,6.71,1.12,8.72,0,.22.22.67.22.89,0,.45,1.12,1.12,3.58,1.57,4.7.67,10.29,0,16.78-.45,3.36-.22,5.82-.45,7.38-.45a4.47,4.47,0,1,1,0,8.95c-1.34,0-3.58.22-6.71.45-4,.22-6.93.45-8.5.45q-11.07.67-16.78-2c-2.91-1.12-4-4-4.7-7.38a49.81,49.81,0,0,1-1.34-10.07c-.89-13.65-.45-33.11.22-47.87.22-7.38.45-13.42.67-18.57.22-4.92.22-8.28.22-10.07q0-1.34-.67-9.4c-1.12-12.3-1.57-22.15-.89-29.31.67-4.7,1.57-9.17,4.92-11.19a8.66,8.66,0,0,1,4-1.12h14.54c10.74.45,16.55.67,17.45.45a4.39,4.39,0,0,1,4.92,4,4.28,4.28,0,0,1-.89,3.36,6,6,0,0,1-3.13,1.57c-1.12.22-7.38,0-18.57-.45h-9.62Z" transform="translate(-6.83 -2)"/><path class="cls-6" d="M16.23,752.66v14.11q0,4.84,2,7.33a2.93,2.93,0,0,0,2.21,1.41,2.53,2.53,0,0,0,1.79-.94,2.76,2.76,0,0,0,.8-2.12,13.55,13.55,0,0,0-2-5.92l-2.77-4.61,7.24-5,3.15,4q4.09,4.19,4.09,12.51,0,4.23-4.23,8.37-3.95,3.86-8,3.86-4.61,0-9.1-4.84t-4.49-14V752.66q0-18.81,23.51-18.81t23.51,18.81v14.11q0,9.4,12.37,9.4t12.32-9.4V715h9.4v51.72q0,18.81-21.72,18.81T44.45,766.77V752.66q0-9.4-14.11-9.4T16.23,752.66ZM9.18,724.45V715h40v9.4Z" transform="translate(-6.83 -2)"/><path class="cls-6" d="M87.94,790.28v28.21h-9.4V790.28Z" transform="translate(-6.83 -2)"/><path class="cls-6" d="M116.15,760.37l-4.7,1.18v5.22q0,9.4,14.11,9.4t14.11-9.4v-9.4h9.4v9.4q0,18.81-23.51,18.81T102,766.77v-12.6l11.75-2.87q25.86-6.3,25.86-17.44,0-9.4-14.11-9.4t-14.11,9.4h4.7v9.4H109.1q-7.05,0-7.05-7.05v-2.35Q102,715,125.56,715t23.51,18.81Q149.07,752.33,116.15,760.37Z" transform="translate(-6.83 -2)"/><path class="cls-6" d="M163.17,752.66q0-18.81,23.51-18.81t23.51,18.81v32.91h-9.4V752.66q0-9.4-14.11-9.4t-14.11,9.4v.19l10.58,10.39q4,4,4,8.13,0,4.51-4.7,9.31t-9.4,4.89q-4.09,0-8-3.86-4.23-4.14-4.23-8.37t4.09-8.28l1.65-1.69,6.68,6.58-1.65,1.69a2.11,2.11,0,0,0,0,3.34,2,2,0,0,0,1.46.66,5.84,5.84,0,0,0,4.19-4.23,2,2,0,0,0-.71-1.46l-13.4-13.17ZM219.6,715q21.16,0,21.16,18.81v51.72h-9.4V733.85q0-9.4-11.75-9.4H163.17V715Z" transform="translate(-6.83 -2)"/><path class="cls-6" d="M301.88,785.58h-9.4v-60l-9.83,9.5h-8.56l-9.83-9.5v8.32q0,5.17,11.75,5.64v9.4h-.56q-11.19,0-11.19,17.87,0,4.84,2,7.33a2.93,2.93,0,0,0,2.21,1.41,2.53,2.53,0,0,0,1.79-.94,2.76,2.76,0,0,0,.8-2.12,13.55,13.55,0,0,0-2-5.92l-2.77-4.61,7.24-5,3.15,4q4.09,4.19,4.09,12.51,0,4.23-4.23,8.37-3.95,3.86-8,3.86-4.61,0-9.1-4.84t-4.49-14q0-15.66,6.44-21.16-6.44-3.15-6.44-11.75V715h12.08l11.43,11,11.43-11h12.08Z" transform="translate(-6.83 -2)"/><path class="cls-6" d="M371.69,756l-4.14-.71q-33.48-5.17-33.48-21.44,0-18.81,23.51-18.81t23.51,16.46v2.35q0,7.05-7.05,7.05H367v-9.4h4.7q0-7.05-14.11-7.05t-14.11,9.4q0,8.23,25.63,12.22l12,1.83v37.66h-9.4L357.58,772l-14.11,13.59h-9.4V757.36h9.4v15.19L357.58,759l14.11,13.59Z" transform="translate(-6.83 -2)"/><path class="cls-6" d="M338.78,698.59q0-4.7,4.23-8.23t12.7-3.53a28.7,28.7,0,0,1,13.64,3.53,58.33,58.33,0,0,1,11.75,8.23v7.05H345.83Q338.78,705.64,338.78,698.59Zm11-3.53a4.05,4.05,0,0,0-1.65,3.53h22a25.15,25.15,0,0,0-7.52-3.53,28.19,28.19,0,0,0-7.66-1.17A9,9,0,0,0,349.83,695.06Z" transform="translate(-6.83 -2)"/><path class="cls-6" d="M427.79,733.81q-1,0-2,0H411.66q-16.46,0-16.46-14.11v-9.4h9.4v9.4q0,4.7,7.05,4.7h14.11q0-9.4,8.23-9.4t8.23,9.4a7.66,7.66,0,0,1-4.28,7.15,17.12,17.12,0,0,1,4.28,11.66v42.32h-9.4L418.71,771,404.6,785.58h-9.4V748h-2.35v-9.4H404.6v33.52l14.11-14.53,14.11,14.53V743.26Q432.82,737.76,427.79,733.81Z" transform="translate(-6.83 -2)"/><path class="cls-6" d="M474.41,733.85q0-18.81,23.51-18.81v9.4q-14.1,0-14.11,9.4v32.91q0,4.84,2,7.33a2.93,2.93,0,0,0,2.21,1.41,2.52,2.52,0,0,0,1.79-.94,2.76,2.76,0,0,0,.8-2.12,13.54,13.54,0,0,0-2-5.92l-2.77-4.61,7.24-5,3.15,4q4.09,4.19,4.09,12.51,0,4.23-4.23,8.37-4,3.86-8,3.86-4.61,0-9.1-4.84t-4.49-14Z" transform="translate(-6.83 -2)"/><path class="cls-6" d="M519.08,752.66v14.11q0,4.84,2,7.33a2.93,2.93,0,0,0,2.21,1.41,2.52,2.52,0,0,0,1.79-.94,2.76,2.76,0,0,0,.8-2.12,13.54,13.54,0,0,0-2-5.92l-2.77-4.61,7.24-5,3.15,4q4.09,4.19,4.09,12.51,0,4.23-4.23,8.37-4,3.86-8,3.86-4.61,0-9.1-4.84t-4.49-14V752.66q0-18.81,23.51-18.81t23.51,18.81v14.11q0,9.4,12.37,9.4t12.32-9.4V715h9.4v51.72q0,18.81-21.72,18.81t-21.77-18.81V752.66q0-9.4-14.11-9.4T519.08,752.66ZM512,724.45V715h40v9.4Z" transform="translate(-6.83 -2)"/><path class="cls-6" d="M546.12,804.38q0-9.4,14.11-9.4h16.46v-4.7h9.4V795h4.7V802h-4.7v4.7q4.7,0,4.7,5.88t-7.05,5.88q-7.05,0-7.05-4.7H560.22Q546.12,813.79,546.12,804.38Zm14.11,2.35h16.46V802H560.22q-4.7,0-4.7,2.35T560.22,806.74Z" transform="translate(-6.83 -2)"/><path class="cls-6" d="M614.3,766.77q0,9.4,14.11,9.4t14.11-9.4V733.85q0-18.81,21.16-18.81,11,0,16.32,5.13,5-5.13,15.42-5.13,20,0,20,18.81v51.72H706V733.85q0-9.4-10.58-9.4t-10.58,9.4v51.72h-9.4V733.85q0-9.4-11.75-9.4t-11.75,9.4v32.91q0,18.81-23.51,18.81t-23.51-18.81V749.84a16.26,16.26,0,0,1,3.9-10.39q-6.25-2.87-6.25-11.47,0-12.93,12.22-12.93a23.9,23.9,0,0,1,6.58.94v9.4a18.31,18.31,0,0,0-6.58-.94q-2.82,0-2.82,3.53t4.7,4.47l4.7.94V739q-7.05,4.28-7.05,10.81Z" transform="translate(-6.83 -2)"/></svg>